{
.appVersion = "3507";
.formatVersion = 3;
axes = (
{
name = Weight;
tag = wght;
},
{
name = Italic;
tag = ital;
}
);
classes = (
{
automatic = 1;

glyphs = (
{
color = 6;
glyphname = A;
kernLeft = A;
kernRight = A;
lastChange = "2025-12-11 10:41:50 +0000";
layers = (
{
anchors = (
{
name = bottom;
pos = (646,0);
},
{
name = ogonek;
pos = (1261,0);
},
{
name = top;
pos = (645,1443);
},
{
name = topleft;
pos = (348,1443);
}
);
background = {
shapes = (
{
closed = 0;
nodes = (
(645,1622,l),
(645,-131,l)
);
}
);
};
layerId = "B1815A28-7A99-448B-912A-F8CD41C6863A";
shapes = (
{
closed = 1;
nodes = (
(642,1354,l),
(655,1354,l),
(655,1443,l),
(626,1443,l),
(0,0,l),
(53,0,l)
);
},
{
closed = 1;
nodes = (
(1289,0,l),
(661,1443,l),
(644,1443,l),
(644,1356,l),
(1236,0,l)
);
},
{
closed = 1;
nodes = (
(222,436,l),
(1071,436,l),
(1050,484,l),
(240,484,l)
);
}
);
width = 1289;
},
{
anchors = (
{
name = bottom;
pos = (702,0);
},
{
name = ogonek;
pos = (1310,0);
},
{
name = top;
pos = (702,1444);
},
{
name = topleft;
pos = (308,1443);
}
);
background = {
shapes = (
{
closed = 0;
nodes = (
(702,1622,l),
(702,-132,l)
);
}
);
};
layerId = "0A7ECE6A-DF67-46D8-8F43-1681A4AD540C";
shapes = (
{
closed = 1;
nodes = (
(698,1264,l),
(742,1264,l),
(742,1444,l),
(592,1444,l),
(0,0,l),
(192,0,l)
);
},
{
closed = 1;
nodes = (
(1408,0,l),
(810,1444,l),
(702,1444,l),
(702,1270,l),
(1216,0,l)
);
},
{
closed = 1;
nodes = (
(282,356,l),
(1126,356,l),
(1056,516,l),
(350,516,l)
);
}
);
width = 1408;
},
{
anchors = (
{
name = bottom;
pos = (784,0);
},
{
name = ogonek;
pos = (1340,0);
},
{
name = top;
pos = (784,1443);
},
{
name = topleft;
pos = (208,1443);
}
);
background = {
shapes = (
{
closed = 0;
nodes = (
(784,1622,l),
(784,-131,l)
);
}
);
};
layerId = "0CA926B8-BF71-483F-A045-F233B587689B";
shapes = (
{
closed = 1;
nodes = (
(775,959,l),
(828,959,l),
(818,1443,l),
(585,1443,l),
(0,0,l),
(429,0,l)
);
},
{
closed = 1;
nodes = (
(1567,0,l),
(980,1443,l),
(780,1443,l),
(790,965,l),
(1137,0,l)
);
},
{
closed = 1;
nodes = (
(392,216,l),
(1173,216,l),
(1061,506,l),
(502,506,l)
);
}
);
width = 1567;
},
{
anchors = (
{
name = bottom;
pos = (535,0);
},
{
name = ogonek;
pos = (1150,0);
},
{
name = top;
pos = (840,1443);
},
{
name = topleft;
pos = (543,1443);
}
);
background = {
shapes = (
{
closed = 0;
nodes = (
(683,1622,l),
(683,-131,l)
);
}
);
};
layerId = "6871CC57-2503-4E31-BAA0-540E82C15514";
shapes = (
{
closed = 1;
nodes = (
(822,1354,l),
(831,1354,l),
(850,1443,l),
(821,1443,l),
(-111,0,l),
(-54,0,l)
);
},
{
closed = 1;
nodes = (
(1178,0,l),
(856,1443,l),
(839,1443,l),
(825,1356,l),
(1129,0,l)
);
},
{
closed = 1;
nodes = (
(203,436,l),
(1052,436,l),
(1042,484,l),
(232,484,l)
);
}
);
width = 1289;
},
{
anchors = (
{
name = bottom;
pos = (591,0);
},
{
name = ogonek;
pos = (1199,0);
},
{
name = top;
pos = (897,1444);
},
{
name = topleft;
pos = (503,1443);
}
);
background = {
shapes = (
{
closed = 0;
nodes = (
(763,1622,l),
(763,-132,l)
);
}
);
};
layerId = "0655DA90-B56F-496E-8077-C2A69D96FC98";
shapes = (
{
closed = 1;
nodes = (
(865,1264,l),
(909,1264,l),
(937,1444,l),
(787,1444,l),
(-111,0,l),
(81,0,l)
);
},
{
closed = 1;
nodes = (
(1297,0,l),
(1005,1444,l),
(897,1444,l),
(870,1270,l),
(1115,0,l)
);
},
{
closed = 1;
nodes = (
(246,356,l),
(1090,356,l),
(1054,516,l),
(348,516,l)
);
}
);
width = 1408;
},
{
anchors = (
{
name = bottom;
pos = (627,0);
},
{
name = ogonek;
pos = (1223,0);
},
{
name = top;
pos = (933,1443);
},
{
name = topleft;
pos = (-13,1443);
}
);
background = {
shapes = (
{
closed = 0;
nodes = (
(780,1622,l),
(780,-131,l)
);
}
);
};
layerId = "F66262BA-5A1D-44F4-BFD7-97C08A9A14E5";
shapes = (
{
closed = 1;
nodes = (
(858,969,l),
(911,969,l),
(967,1443,l),
(734,1443,l),
(-117,0,l),
(352,0,l)
);
},
{
closed = 1;
nodes = (
(1370,0,l),
(1159,1443,l),
(929,1443,l),
(874,975,l),
(950,0,l)
);
},
{
closed = 1;
nodes = (
(276,196,l),
(1057,196,l),
(1009,466,l),
(450,466,l)
);
}
);
width = 1487;
}
);
unicode = 65;
},
{
color = 10;
glyphname = Aacute;
kernLeft = A;
kernRight = A;
lastChange = "2025-12-11 10:53:19 +0000";
layers = (
{
background = {
anchors = (
{
name = bottom;
pos = (646,0);
},
{
name = ogonek;
pos = (1261,0);
},
{
name = top;
pos = (735,1700);
},
{
name = topleft;
pos = (348,1443);
}
);
shapes = (
{
closed = 1;
nodes = (
(642,1354,l),
(655,1354,l),
(655,1443,l),
(626,1443,l),
(0,0,l),
(53,0,l)
);
},
{
closed = 1;
nodes = (
(1289,0,l),
(661,1443,l),
(644,1443,l),
(644,1356,l),
(1236,0,l)
);
},
{
closed = 1;
nodes = (
(222,436,l),
(1071,436,l),
(1050,484,l),
(240,484,l)
);
},
{
closed = 1;
nodes = (
(701,1802,l),
(626,1573,l),
(670,1573,l),
(761,1802,l)
);
}
);
};
layerId = "B1815A28-7A99-448B-912A-F8CD41C6863A";
shapes = (
{
ref = A;
},
{
pos = (871,503);
ref = gravecomb;
scale = (-1,1);
}
);
width = 1289;
},
{
background = {
anchors = (
{
name = bottom;
pos = (702,0);
},
{
name = ogonek;
pos = (1310,0);
},
{
name = top;
pos = (826,1767);
},
{
name = topleft;
pos = (308,1443);
}
);
shapes = (
{
closed = 1;
nodes = (
(698,1264,l),
(742,1264,l),
(742,1444,l),
(592,1444,l),
(0,0,l),
(192,0,l)
);
},
{
closed = 1;
nodes = (
(1408,0,l),
(810,1444,l),
(702,1444,l),
(702,1270,l),
(1216,0,l)
);
},
{
closed = 1;
nodes = (
(282,356,l),
(1126,356,l),
(1056,516,l),
(350,516,l)
);
},
{
closed = 1;
nodes = (
(715,1818,l),
(625,1569,l),
(788,1569,l),
(928,1818,l)
);
}
);
};
layerId = "0A7ECE6A-DF67-46D8-8F43-1681A4AD540C";
shapes = (
{
ref = A;
},
{
pos = (1038,504);
ref = gravecomb;
scale = (-1,1);
}
);
width = 1408;
},
{
background = {
anchors = (
{
name = bottom;
pos = (784,0);
},
{
name = ogonek;
pos = (1340,0);
},
{
name = top;
pos = (904,1884);
},
{
name = topleft;
pos = (208,1443);
}
);
shapes = (
{
closed = 1;
nodes = (
(775,959,l),
(828,959,l),
(818,1443,l),
(585,1443,l),
(0,0,l),
(429,0,l)
);
},
{
closed = 1;
nodes = (
(1567,0,l),
(980,1443,l),
(780,1443,l),
(790,965,l),
(1137,0,l)
);
},
{
closed = 1;
nodes = (
(392,216,l),
(1173,216,l),
(1061,506,l),
(502,506,l)
);
},
{
closed = 1;
nodes = (
(737,1922,l),
(667,1583,l),
(910,1583,l),
(1090,1922,l)
);
}
);
};
layerId = "0CA926B8-BF71-483F-A045-F233B587689B";
shapes = (
{
ref = A;
},
{
pos = (1200,443);
ref = gravecomb;
scale = (-1,1);
}
);
width = 1567;
},
{
background = {
anchors = (
{
name = bottom;
pos = (535,0);
},
{
name = ogonek;
pos = (1150,0);
},
{
name = top;
pos = (930,1700);
},
{
name = topleft;
pos = (543,1443);
}
);
shapes = (
{
closed = 1;
nodes = (
(822,1354,l),
(831,1354,l),
(850,1443,l),
(821,1443,l),
(-111,0,l),
(-54,0,l)
);
},
{
closed = 1;
nodes = (
(1178,0,l),
(856,1443,l),
(839,1443,l),
(825,1356,l),
(1129,0,l)
);
},
{
closed = 1;
nodes = (
(203,436,l),
(1052,436,l),
(1042,484,l),
(232,484,l)
);
},
{
closed = 1;
nodes = (
(842,1802,l),
(815,1573,l),
(859,1573,l),
(902,1802,l)
);
}
);
};
layerId = "6871CC57-2503-4E31-BAA0-540E82C15514";
shapes = (
{
ref = A;
},
{
pos = (1179,503);
ref = gravecomb;
scale = (-1,1);
}
);
width = 1289;
},
{
background = {
anchors = (
{
name = bottom;
pos = (591,0);
},
{
name = ogonek;
pos = (1199,0);
},
{
name = top;
pos = (1070,1767);
},
{
name = topleft;
pos = (503,1443);
}
);
shapes = (
{
closed = 1;
nodes = (
(865,1264,l),
(909,1264,l),
(937,1444,l),
(787,1444,l),
(-111,0,l),
(81,0,l)
);
},
{
closed = 1;
nodes = (
(1297,0,l),
(1005,1444,l),
(897,1444,l),
(870,1270,l),
(1115,0,l)
);
},
{
closed = 1;
nodes = (
(246,356,l),
(1090,356,l),
(1054,516,l),
(348,516,l)
);
},
{
closed = 1;
nodes = (
(903,1818,l),
(865,1569,l),
(1028,1569,l),
(1116,1818,l)
);
}
);
};
layerId = "0655DA90-B56F-496E-8077-C2A69D96FC98";
shapes = (
{
alignment = -1;
ref = A;
},
{
alignment = -1;
pos = (1390,504);
ref = gravecomb;
scale = (-1,1);
}
);
width = 1508;
},
{
background = {
anchors = (
{
name = bottom;
pos = (627,0);
},
{
name = ogonek;
pos = (1223,0);
},
{
name = top;
pos = (1123,1884);
},
{
name = topleft;
pos = (-13,1443);
}
);
shapes = (
{
closed = 1;
nodes = (
(858,969,l),
(911,969,l),
(967,1443,l),
(734,1443,l),
(-117,0,l),
(352,0,l)
);
},
{
closed = 1;
nodes = (
(1370,0,l),
(1159,1443,l),
(929,1443,l),
(874,975,l),
(950,0,l)
);
},
{
closed = 1;
nodes = (
(276,196,l),
(1057,196,l),
(1009,466,l),
(450,466,l)
);
},
{
closed = 1;
nodes = (
(880,1922,l),
(882,1583,l),
(1125,1583,l),
(1233,1922,l)
);
}
);
};
layerId = "F66262BA-5A1D-44F4-BFD7-97C08A9A14E5";
shapes = (
{
alignment = -1;
ref = A;
},
{
alignment = -1;
pos = (1540,443);
ref = gravecomb;
scale = (-1,1);
}
);
width = 1627;
},
{
associatedMasterId = "F66262BA-5A1D-44F4-BFD7-97C08A9A14E5";
background = {
anchors = (
{
name = bottom;
pos = (627,0);
},
{
name = ogonek;
pos = (1223,0);
},
{
name = top;
pos = (1123,1884);
},
{
name = topleft;
pos = (-13,1443);
}
);
shapes = (
{
closed = 1;
nodes = (
(858,969,l),
(911,969,l),
(967,1443,l),
(734,1443,l),
(-117,0,l),
(352,0,l)
);
},
{
closed = 1;
nodes = (
(1370,0,l),
(1159,1443,l),
(929,1443,l),
(874,975,l),
(950,0,l)
);
},
{
closed = 1;
nodes = (
(276,196,l),
(1057,196,l),
(1009,466,l),
(450,466,l)
);
},
{
closed = 1;
nodes = (
(880,1922,l),
(882,1583,l),
(1125,1583,l),
(1233,1922,l)
);
}
);
};
layerId = "2F1D3E94-DF4A-4D6F-BE3B-44C12B95217A";
name = "11 Dec 25 at 11:53";
shapes = (
{
alignment = -1;
ref = A;
},
{
alignment = -1;
pos = (1540,443);
ref = gravecomb;
scale = (-1,1);
}
);
width = 1627;
},
{
associatedMasterId = "0655DA90-B56F-496E-8077-C2A69D96FC98";
background = {
anchors = (
{
name = bottom;
pos = (591,0);
},
{
name = ogonek;
pos = (1199,0);
},
{
name = top;
pos = (1070,1767);
},
{
name = topleft;
pos = (503,1443);
}
);
shapes = (
{
closed = 1;
nodes = (
(865,1264,l),
(909,1264,l),
(937,1444,l),
(787,1444,l),
(-111,0,l),
(81,0,l)
);
},
{
closed = 1;
nodes = (
(1297,0,l),
(1005,1444,l),
(897,1444,l),
(870,1270,l),
(1115,0,l)
);
},
{
closed = 1;
nodes = (
(246,356,l),
(1090,356,l),
(1054,516,l),
(348,516,l)
);
},
{
closed = 1;
nodes = (
(903,1818,l),
(865,1569,l),
(1028,1569,l),
(1116,1818,l)
);
}
);
};
layerId = "64CCC0BC-C601-48FF-9965-4B3063A6AA69";
name = "11 Dec 25 at 11:53";
shapes = (
{
alignment = -1;
ref = A;
},
{
alignment = -1;
pos = (1390,504);
ref = gravecomb;
scale = (-1,1);
}
);
width = 1508;
},
{
associatedMasterId = "0CA926B8-BF71-483F-A045-F233B587689B";
background = {
anchors = (
{
name = bottom;
pos = (784,0);
},
{
name = ogonek;
pos = (1340,0);
},
{
name = top;
pos = (904,1884);
},
{
name = topleft;
pos = (208,1443);
}
);
shapes = (
{
closed = 1;
nodes = (
(775,959,l),
(828,959,l),
(818,1443,l),
(585,1443,l),
(0,0,l),
(429,0,l)
);
},
{
closed = 1;
nodes = (
(1567,0,l),
(980,1443,l),
(780,1443,l),
(790,965,l),
(1137,0,l)
);
},
{
closed = 1;
nodes = (
(392,216,l),
(1173,216,l),
(1061,506,l),
(502,506,l)
);
},
{
closed = 1;
nodes = (
(737,1922,l),
(667,1583,l),
(910,1583,l),
(1090,1922,l)
);
}
);
};
layerId = "13F23253-CFF8-4B66-8A1D-479DE6B8FC88";
name = "11 Dec 25 at 11:53";
shapes = (
{
ref = A;
},
{
pos = (1200,443);
ref = gravecomb;
scale = (-1,1);
}
);
width = 1567;
},
{
associatedMasterId = "6871CC57-2503-4E31-BAA0-540E82C15514";
background = {
anchors = (
{
name = bottom;
pos = (535,0);
},
{
name = ogonek;
pos = (1150,0);
},
{
name = top;
pos = (930,1700);
},
{
name = topleft;
pos = (543,1443);
}
);
shapes = (
{
closed = 1;
nodes = (
(822,1354,l),
(831,1354,l),
(850,1443,l),
(821,1443,l),
(-111,0,l),
(-54,0,l)
);
},
{
closed = 1;
nodes = (
(1178,0,l),
(856,1443,l),
(839,1443,l),
(825,1356,l),
(1129,0,l)
);
},
{
closed = 1;
nodes = (
(203,436,l),
(1052,436,l),
(1042,484,l),
(232,484,l)
);
},
{
closed = 1;
nodes = (
(842,1802,l),
(815,1573,l),
(859,1573,l),
(902,1802,l)
);
}
);
};
layerId = "EAE9384D-8E1D-428C-A42A-9DBCABC7CE68";
name = "11 Dec 25 at 11:53";
shapes = (
{
ref = A;
},
{
pos = (1179,503);
ref = gravecomb;
scale = (-1,1);
}
);
width = 1289;
},
{
associatedMasterId = "0A7ECE6A-DF67-46D8-8F43-1681A4AD540C";
background = {
anchors = (
{
name = bottom;
pos = (702,0);
},
{
name = ogonek;
pos = (1310,0);
},
{
name = top;
pos = (826,1767);
},
{
name = topleft;
pos = (308,1443);
}
);
shapes = (
{
closed = 1;
nodes = (
(698,1264,l),
(742,1264,l),
(742,1444,l),
(592,1444,l),
(0,0,l),
(192,0,l)
);
},
{
closed = 1;
nodes = (
(1408,0,l),
(810,1444,l),
(702,1444,l),
(702,1270,l),
(1216,0,l)
);
},
{
closed = 1;
nodes = (
(282,356,l),
(1126,356,l),
(1056,516,l),
(350,516,l)
);
},
{
closed = 1;
nodes = (
(715,1818,l),
(625,1569,l),
(788,1569,l),
(928,1818,l)
);
}
);
};
layerId = "30DD41AF-7D39-4011-B7EE-68892316EBC7";
name = "11 Dec 25 at 11:53";
shapes = (
{
ref = A;
},
{
pos = (1038,504);
ref = gravecomb;
scale = (-1,1);
}
);
width = 1408;
},
{
associatedMasterId = "B1815A28-7A99-448B-912A-F8CD41C6863A";
background = {
anchors = (
{
name = bottom;
pos = (646,0);
},
{
name = ogonek;
pos = (1261,0);
},
{
name = top;
pos = (735,1700);
},
{
name = topleft;
pos = (348,1443);
}
);
shapes = (
{
closed = 1;
nodes = (
(642,1354,l),
(655,1354,l),
(655,1443,l),
(626,1443,l),
(0,0,l),
(53,0,l)
);
},
{
closed = 1;
nodes = (
(1289,0,l),
(661,1443,l),
(644,1443,l),
(644,1356,l),
(1236,0,l)
);
},
{
closed = 1;
nodes = (
(222,436,l),
(1071,436,l),
(1050,484,l),
(240,484,l)
);
},
{
closed = 1;
nodes = (
(701,1802,l),
(626,1573,l),
(670,1573,l),
(761,1802,l)
);
}
);
};
layerId = "AA913225-C435-4445-A884-AF13757B8884";
name = "11 Dec 25 at 11:53";
shapes = (
{
ref = A;
},
{
pos = (871,503);
ref = gravecomb;
scale = (-1,1);
}
);
width = 1289;
}
);
unicode = 193;
},
{
color = 10;
glyphname = Abreve;
kernLeft = A;
kernRight = A;
lastChange = "2025-12-11 10:53:19 +0000";
layers = (
{
background = {
anchors = (
{
name = bottom;
pos = (646,0);
},
{
name = ogonek;
pos = (1261,0);
},
{
name = top;
pos = (645,1738);
},
{
name = topleft;
pos = (348,1443);
}
);
shapes = (
{
closed = 1;
nodes = (
(642,1354,l),
(655,1354,l),
(655,1443,l),
(626,1443,l),
(0,0,l),
(53,0,l)
);
},
{
closed = 1;
nodes = (
(1289,0,l),
(661,1443,l),
(644,1443,l),
(644,1356,l),
(1236,0,l)
);
},
{
closed = 1;
nodes = (
(222,436,l),
(1071,436,l),
(1050,484,l),
(240,484,l)
);
},
{
closed = 1;
nodes = (
(762,1587,o),
(835,1661,o),
(835,1778,c),
(787,1778,l),
(786,1689,o),
(732,1631,o),
(646,1631,cs),
(560,1631,o),
(506,1689,o),
(505,1778,c),
(457,1778,l),
(457,1661,o),
(530,1587,o),
(646,1587,cs)
);
}
);
};
layerId = "B1815A28-7A99-448B-912A-F8CD41C6863A";
shapes = (
{
ref = A;
},
{
pos = (347,503);
ref = brevecomb;
}
);
width = 1289;
},
{
background = {
anchors = (
{
name = bottom;
pos = (702,0);
},
{
name = ogonek;
pos = (1310,0);
},
{
name = top;
pos = (702,1717);
},
{
name = topleft;
pos = (308,1443);
}
);
shapes = (
{
closed = 1;
nodes = (
(698,1264,l),
(742,1264,l),
(742,1444,l),
(592,1444,l),
(0,0,l),
(192,0,l)
);
},
{
closed = 1;
nodes = (
(1408,0,l),
(810,1444,l),
(702,1444,l),
(702,1270,l),
(1216,0,l)
);
},
{
closed = 1;
nodes = (
(282,356,l),
(1126,356,l),
(1056,516,l),
(350,516,l)
);
},
{
closed = 1;
nodes = (
(849,1539,o),
(941,1624,o),
(941,1760,c),
(774,1760,l),
(773,1702,o),
(745,1666,o),
(702,1666,cs),
(659,1666,o),
(631,1702,o),
(630,1760,c),
(463,1760,l),
(463,1624,o),
(555,1539,o),
(702,1539,cs)
);
}
);
};
layerId = "0A7ECE6A-DF67-46D8-8F43-1681A4AD540C";
shapes = (
{
ref = A;
},
{
pos = (353,504);
ref = brevecomb;
}
);
width = 1408;
},
{
background = {
anchors = (
{
name = bottom;
pos = (784,0);
},
{
name = ogonek;
pos = (1340,0);
},
{
name = top;
pos = (784,1816);
},
{
name = topleft;
pos = (208,1443);
}
);
shapes = (
{
closed = 1;
nodes = (
(775,959,l),
(828,959,l),
(818,1443,l),
(585,1443,l),
(0,0,l),
(429,0,l)
);
},
{
closed = 1;
nodes = (
(1567,0,l),
(980,1443,l),
(780,1443,l),
(790,965,l),
(1137,0,l)
);
},
{
closed = 1;
nodes = (
(392,216,l),
(1173,216,l),
(1061,506,l),
(502,506,l)
);
},
{
closed = 1;
nodes = (
(1008,1545,o),
(1149,1669,o),
(1149,1866,c),
(880,1866,l),
(879,1790,o),
(842,1742,o),
(784,1742,cs),
(726,1742,o),
(689,1790,o),
(688,1866,c),
(419,1866,l),
(419,1669,o),
(560,1545,o),
(784,1545,cs)
);
}
);
};
layerId = "0CA926B8-BF71-483F-A045-F233B587689B";
shapes = (
{
ref = A;
},
{
pos = (309,443);
ref = brevecomb;
}
);
width = 1567;
},
{
background = {
anchors = (
{
name = bottom;
pos = (535,0);
},
{
name = ogonek;
pos = (1150,0);
},
{
name = top;
pos = (892,1738);
},
{
name = topleft;
pos = (543,1443);
}
);
shapes = (
{
closed = 1;
nodes = (
(822,1354,l),
(831,1354,l),
(850,1443,l),
(821,1443,l),
(-111,0,l),
(-54,0,l)
);
},
{
closed = 1;
nodes = (
(1178,0,l),
(856,1443,l),
(839,1443,l),
(825,1356,l),
(1129,0,l)
);
},
{
closed = 1;
nodes = (
(203,436,l),
(1052,436,l),
(1042,484,l),
(232,484,l)
);
},
{
closed = 1;
nodes = (
(982,1587,o),
(1068,1661,o),
(1089,1778,c),
(1041,1778,l),
(1024,1689,o),
(960,1631,o),
(874,1631,cs),
(788,1631,o),
(744,1689,o),
(759,1778,c),
(711,1778,l),
(690,1661,o),
(750,1587,o),
(866,1587,cs)
);
}
);
};
layerId = "6871CC57-2503-4E31-BAA0-540E82C15514";
shapes = (
{
ref = A;
},
{
pos = (440,503);
ref = brevecomb;
}
);
width = 1289;
},
{
background = {
anchors = (
{
name = bottom;
pos = (591,0);
},
{
name = ogonek;
pos = (1199,0);
},
{
name = top;
pos = (924,1717);
},
{
name = topleft;
pos = (503,1443);
}
);
shapes = (
{
closed = 1;
nodes = (
(865,1264,l),
(909,1264,l),
(937,1444,l),
(787,1444,l),
(-111,0,l),
(81,0,l)
);
},
{
closed = 1;
nodes = (
(1297,0,l),
(1005,1444,l),
(897,1444,l),
(870,1270,l),
(1115,0,l)
);
},
{
closed = 1;
nodes = (
(246,356,l),
(1090,356,l),
(1054,516,l),
(348,516,l)
);
},
{
closed = 1;
nodes = (
(1040,1539,o),
(1147,1624,o),
(1170,1760,c),
(1003,1760,l),
(992,1702,o),
(958,1666,o),
(915,1666,cs),
(872,1666,o),
(850,1702,o),
(859,1760,c),
(692,1760,l),
(669,1624,o),
(746,1539,o),
(893,1539,cs)
);
}
);
};
layerId = "0655DA90-B56F-496E-8077-C2A69D96FC98";
shapes = (
{
alignment = -1;
ref = A;
},
{
alignment = -1;
pos = (431,504);
ref = brevecomb;
}
);
width = 1508;
},
{
background = {
anchors = (
{
name = bottom;
pos = (627,0);
},
{
name = ogonek;
pos = (1223,0);
},
{
name = top;
pos = (1038,1816);
},
{
name = topleft;
pos = (-13,1443);
}
);
shapes = (
{
closed = 1;
nodes = (
(858,969,l),
(911,969,l),
(967,1443,l),
(734,1443,l),
(-117,0,l),
(352,0,l)
);
},
{
closed = 1;
nodes = (
(1370,0,l),
(1159,1443,l),
(929,1443,l),
(874,975,l),
(950,0,l)
);
},
{
closed = 1;
nodes = (
(276,196,l),
(1057,196,l),
(1009,466,l),
(450,466,l)
);
},
{
closed = 1;
nodes = (
(1215,1545,o),
(1378,1669,o),
(1412,1866,c),
(1143,1866,l),
(1129,1790,o),
(1083,1742,o),
(1025,1742,cs),
(967,1742,o),
(939,1790,o),
(951,1866,c),
(682,1866,l),
(648,1669,o),
(767,1545,o),
(991,1545,cs)
);
}
);
};
layerId = "F66262BA-5A1D-44F4-BFD7-97C08A9A14E5";
shapes = (
{
alignment = -1;
ref = A;
},
{
alignment = -1;
pos = (386,443);
ref = brevecomb;
}
);
width = 1627;
},
{
associatedMasterId = "F66262BA-5A1D-44F4-BFD7-97C08A9A14E5";
background = {
anchors = (
{
name = bottom;
pos = (627,0);
},
{
name = ogonek;
pos = (1223,0);
},
{
name = top;
pos = (1038,1816);
},
{
name = topleft;
pos = (-13,1443);
}
);
shapes = (
{
closed = 1;
nodes = (
(858,969,l),
(911,969,l),
(967,1443,l),
(734,1443,l),
(-117,0,l),
(352,0,l)
);
},
{
closed = 1;
nodes = (
(1370,0,l),
(1159,1443,l),
(929,1443,l),
(874,975,l),
(950,0,l)
);
},
{
closed = 1;
nodes = (
(276,196,l),
(1057,196,l),
(1009,466,l),
(450,466,l)
);
},
{
closed = 1;
nodes = (
(1215,1545,o),
(1378,1669,o),
(1412,1866,c),
(1143,1866,l),
(1129,1790,o),
(1083,1742,o),
(1025,1742,cs),
(967,1742,o),
(939,1790,o),
(951,1866,c),
(682,1866,l),
(648,1669,o),
(767,1545,o),
(991,1545,cs)
);
}
);
};
layerId = "521A852B-273B-4F24-A124-AF6597C7F7E9";
name = "11 Dec 25 at 11:53";
shapes = (
{
alignment = -1;
ref = A;
},
{
alignment = -1;
pos = (386,443);
ref = brevecomb;
}
);
width = 1627;
},
{
associatedMasterId = "0655DA90-B56F-496E-8077-C2A69D96FC98";
background = {
anchors = (
{
name = bottom;
pos = (591,0);
},
{
name = ogonek;
pos = (1199,0);
},
{
name = top;
pos = (924,1717);
},
{
name = topleft;
pos = (503,1443);
}
);
shapes = (
{
closed = 1;
nodes = (
(865,1264,l),
(909,1264,l),
(937,1444,l),
(787,1444,l),
(-111,0,l),
(81,0,l)
);
},
{
closed = 1;
nodes = (
(1297,0,l),
(1005,1444,l),
(897,1444,l),
(870,1270,l),
(1115,0,l)
);
},
{
closed = 1;
nodes = (
(246,356,l),
(1090,356,l),
(1054,516,l),
(348,516,l)
);
},
{
closed = 1;
nodes = (
(1040,1539,o),
(1147,1624,o),
(1170,1760,c),
(1003,1760,l),
(992,1702,o),
(958,1666,o),
(915,1666,cs),
(872,1666,o),
(850,1702,o),
(859,1760,c),
(692,1760,l),
(669,1624,o),
(746,1539,o),
(893,1539,cs)
);
}
);
};
layerId = "CD0D266C-B8A5-477F-8FC2-456F459A797D";
name = "11 Dec 25 at 11:53";
shapes = (
{
alignment = -1;
ref = A;
},
{
alignment = -1;
pos = (431,504);
ref = brevecomb;
}
);
width = 1508;
},
{
associatedMasterId = "0CA926B8-BF71-483F-A045-F233B587689B";
background = {
anchors = (
{
name = bottom;
pos = (784,0);
},
{
name = ogonek;
pos = (1340,0);
},
{
name = top;
pos = (784,1816);
},
{
name = topleft;
pos = (208,1443);
}
);
shapes = (
{
closed = 1;
nodes = (
(775,959,l),
(828,959,l),
(818,1443,l),
(585,1443,l),
(0,0,l),
(429,0,l)
);
},
{
closed = 1;
nodes = (
(1567,0,l),
(980,1443,l),
(780,1443,l),
(790,965,l),
(1137,0,l)
);
},
{
closed = 1;
nodes = (
(392,216,l),
(1173,216,l),
(1061,506,l),
(502,506,l)
);
},
{
closed = 1;
nodes = (
(1008,1545,o),
(1149,1669,o),
(1149,1866,c),
(880,1866,l),
(879,1790,o),
(842,1742,o),
(784,1742,cs),
(726,1742,o),
(689,1790,o),
(688,1866,c),
(419,1866,l),
(419,1669,o),
(560,1545,o),
(784,1545,cs)
);
}
);
};
layerId = "11AD39F9-C412-46FF-9DF0-D383B6DF0407";
name = "11 Dec 25 at 11:53";
shapes = (
{
ref = A;
},
{
pos = (309,443);
ref = brevecomb;
}
);
width = 1567;
},
{
associatedMasterId = "6871CC57-2503-4E31-BAA0-540E82C15514";
background = {
anchors = (
{
name = bottom;
pos = (535,0);
},
{
name = ogonek;
pos = (1150,0);
},
{
name = top;
pos = (892,1738);
},
{
name = topleft;
pos = (543,1443);
}
);
shapes = (
{
closed = 1;
nodes = (
(822,1354,l),
(831,1354,l),
(850,1443,l),
(821,1443,l),
(-111,0,l),
(-54,0,l)
);
},
{
closed = 1;
nodes = (
(1178,0,l),
(856,1443,l),
(839,1443,l),
(825,1356,l),
(1129,0,l)
);
},
{
closed = 1;
nodes = (
(203,436,l),
(1052,436,l),
(1042,484,l),
(232,484,l)
);
},
{
closed = 1;
nodes = (
(982,1587,o),
(1068,1661,o),
(1089,1778,c),
(1041,1778,l),
(1024,1689,o),
(960,1631,o),
(874,1631,cs),
(788,1631,o),
(744,1689,o),
(759,1778,c),
(711,1778,l),
(690,1661,o),
(750,1587,o),
(866,1587,cs)
);
}
);
};
layerId = "FF87EA39-1448-4763-AB4B-24AA6B2AE4E4";
name = "11 Dec 25 at 11:53";
shapes = (
{
ref = A;
},
{
pos = (440,503);
ref = brevecomb;
}
);
width = 1289;
},
{
associatedMasterId = "0A7ECE6A-DF67-46D8-8F43-1681A4AD540C";
background = {
anchors = (
{
name = bottom;
pos = (702,0);
},
{
name = ogonek;
pos = (1310,0);
},
{
name = top;
pos = (702,1717);
},
{
name = topleft;
pos = (308,1443);
}
);
shapes = (
{
closed = 1;
nodes = (
(698,1264,l),
(742,1264,l),
(742,1444,l),
(592,1444,l),
(0,0,l),
(192,0,l)
);
},
{
closed = 1;
nodes = (
(1408,0,l),
(810,1444,l),
(702,1444,l),
(702,1270,l),
(1216,0,l)
);
},
{
closed = 1;
nodes = (
(282,356,l),
(1126,356,l),
(1056,516,l),
(350,516,l)
);
},
{
closed = 1;
nodes = (
(849,1539,o),
(941,1624,o),
(941,1760,c),
(774,1760,l),
(773,1702,o),
(745,1666,o),
(702,1666,cs),
(659,1666,o),
(631,1702,o),
(630,1760,c),
(463,1760,l),
(463,1624,o),
(555,1539,o),
(702,1539,cs)
);
}
);
};
layerId = "94A0FEA9-02D6-4840-B3B5-AC3EB9383926";
name = "11 Dec 25 at 11:53";
shapes = (
{
ref = A;
},
{
pos = (353,504);
ref = brevecomb;
}
);
width = 1408;
},
{
associatedMasterId = "B1815A28-7A99-448B-912A-F8CD41C6863A";
background = {
anchors = (
{
name = bottom;
pos = (646,0);
},
{
name = ogonek;
pos = (1261,0);
},
{
name = top;
pos = (645,1738);
},
{
name = topleft;
pos = (348,1443);
}
);
shapes = (
{
closed = 1;
nodes = (
(642,1354,l),
(655,1354,l),
(655,1443,l),
(626,1443,l),
(0,0,l),
(53,0,l)
);
},
{
closed = 1;
nodes = (
(1289,0,l),
(661,1443,l),
(644,1443,l),
(644,1356,l),
(1236,0,l)
);
},
{
closed = 1;
nodes = (
(222,436,l),
(1071,436,l),
(1050,484,l),
(240,484,l)
);
},
{
closed = 1;
nodes = (
(762,1587,o),
(835,1661,o),
(835,1778,c),
(787,1778,l),
(786,1689,o),
(732,1631,o),
(646,1631,cs),
(560,1631,o),
(506,1689,o),
(505,1778,c),
(457,1778,l),
(457,1661,o),
(530,1587,o),
(646,1587,cs)
);
}
);
};
layerId = "CD0BC1CB-0F91-4217-B0D5-5138F6DABF55";
name = "11 Dec 25 at 11:53";
shapes = (
{
ref = A;
},
{
pos = (347,503);
ref = brevecomb;
}
);
width = 1289;
}
);
unicode = 258;
},
{
color = 10;
glyphname = Acaron;
kernLeft = A;
kernRight = A;
lastChange = "2025-12-11 10:53:19 +0000";
layers = (
{
background = {
anchors = (
{
name = bottom;
pos = (645,1616);
},
{
name = ogonek;
pos = (1261,0);
},
{
name = top;
pos = (645,1736);
},
{
name = topleft;
pos = (348,1443);
}
);
shapes = (
{
closed = 1;
nodes = (
(642,1354,l),
(655,1354,l),
(655,1443,l),
(626,1443,l),
(0,0,l),
(53,0,l)
);
},
{
closed = 1;
nodes = (
(1289,0,l),
(661,1443,l),
(644,1443,l),
(644,1356,l),
(1236,0,l)
);
},
{
closed = 1;
nodes = (
(222,436,l),
(1071,436,l),
(1050,484,l),
(240,484,l)
);
},
{
closed = 1;
nodes = (
(667,1575,l),
(852,1784,l),
(788,1784,l),
(646,1622,l),
(644,1622,l),
(502,1784,l),
(438,1784,l),
(623,1575,l)
);
}
);
};
layerId = "B1815A28-7A99-448B-912A-F8CD41C6863A";
shapes = (
{
ref = A;
},
{
pos = (328,503);
ref = caroncomb;
}
);
width = 1289;
},
{
background = {
anchors = (
{
name = bottom;
pos = (692,1582);
},
{
name = ogonek;
pos = (1310,0);
},
{
name = top;
pos = (702,1727);
},
{
name = topleft;
pos = (308,1443);
}
);
shapes = (
{
closed = 1;
nodes = (
(698,1264,l),
(742,1264,l),
(742,1444,l),
(592,1444,l),
(0,0,l),
(192,0,l)
);
},
{
closed = 1;
nodes = (
(1408,0,l),
(810,1444,l),
(702,1444,l),
(702,1270,l),
(1216,0,l)
);
},
{
closed = 1;
nodes = (
(282,356,l),
(1126,356,l),
(1056,516,l),
(350,516,l)
);
},
{
closed = 1;
nodes = (
(804,1551,l),
(974,1790,l),
(780,1790,l),
(704,1655,l),
(698,1655,l),
(624,1790,l),
(430,1790,l),
(598,1551,l)
);
}
);
};
layerId = "0A7ECE6A-DF67-46D8-8F43-1681A4AD540C";
shapes = (
{
ref = A;
},
{
pos = (320,504);
ref = caroncomb;
}
);
width = 1408;
},
{
background = {
anchors = (
{
name = bottom;
pos = (789,1591);
},
{
name = ogonek;
pos = (1340,0);
},
{
name = top;
pos = (784,1865);
},
{
name = topleft;
pos = (208,1443);
}
);
shapes = (
{
closed = 1;
nodes = (
(775,959,l),
(828,959,l),
(818,1443,l),
(585,1443,l),
(0,0,l),
(429,0,l)
);
},
{
closed = 1;
nodes = (
(1567,0,l),
(980,1443,l),
(780,1443,l),
(790,965,l),
(1137,0,l)
);
},
{
closed = 1;
nodes = (
(392,216,l),
(1173,216,l),
(1061,506,l),
(502,506,l)
);
},
{
closed = 1;
nodes = (
(978,1559,l),
(1204,1908,l),
(892,1908,l),
(795,1733,l),
(785,1733,l),
(686,1908,l),
(374,1908,l),
(602,1559,l)
);
}
);
};
layerId = "0CA926B8-BF71-483F-A045-F233B587689B";
shapes = (
{
ref = A;
},
{
pos = (264,443);
ref = caroncomb;
}
);
width = 1567;
},
{
background = {
anchors = (
{
name = bottom;
pos = (869,1616);
},
{
name = ogonek;
pos = (1150,0);
},
{
name = top;
pos = (894,1736);
},
{
name = topleft;
pos = (543,1443);
}
);
shapes = (
{
closed = 1;
nodes = (
(822,1354,l),
(831,1354,l),
(850,1443,l),
(821,1443,l),
(-111,0,l),
(-54,0,l)
);
},
{
closed = 1;
nodes = (
(1178,0,l),
(856,1443,l),
(839,1443,l),
(825,1356,l),
(1129,0,l)
);
},
{
closed = 1;
nodes = (
(203,436,l),
(1052,436,l),
(1042,484,l),
(232,484,l)
);
},
{
closed = 1;
nodes = (
(887,1555,l),
(1116,1764,l),
(1047,1764,l),
(871,1602,l),
(869,1602,l),
(761,1764,l),
(702,1764,l),
(843,1555,l)
);
}
);
};
layerId = "6871CC57-2503-4E31-BAA0-540E82C15514";
shapes = (
{
ref = A;
},
{
pos = (433,503);
ref = caroncomb;
}
);
width = 1289;
},
{
background = {
anchors = (
{
name = bottom;
pos = (874,1582);
},
{
name = ogonek;
pos = (1199,0);
},
{
name = top;
pos = (906,1727);
},
{
name = topleft;
pos = (503,1443);
}
);
shapes = (
{
closed = 1;
nodes = (
(865,1264,l),
(909,1264,l),
(937,1444,l),
(787,1444,l),
(-111,0,l),
(81,0,l)
);
},
{
closed = 1;
nodes = (
(1297,0,l),
(1005,1444,l),
(897,1444,l),
(870,1270,l),
(1115,0,l)
);
},
{
closed = 1;
nodes = (
(246,356,l),
(1090,356,l),
(1054,516,l),
(348,516,l)
);
},
{
closed = 1;
nodes = (
(994,1551,l),
(1214,1790,l),
(1006,1790,l),
(906,1655,l),
(900,1655,l),
(850,1790,l),
(670,1790,l),
(788,1551,l)
);
}
);
};
layerId = "0655DA90-B56F-496E-8077-C2A69D96FC98";
shapes = (
{
alignment = -1;
ref = A;
},
{
alignment = -1;
pos = (402,504);
ref = caroncomb;
}
);
width = 1508;
},
{
background = {
anchors = (
{
name = bottom;
pos = (977,1588);
},
{
name = ogonek;
pos = (1223,0);
},
{
name = top;
pos = (1041,1856);
},
{
name = topleft;
pos = (-13,1443);
}
);
shapes = (
{
closed = 1;
nodes = (
(858,969,l),
(911,969,l),
(967,1443,l),
(734,1443,l),
(-117,0,l),
(352,0,l)
);
},
{
closed = 1;
nodes = (
(1370,0,l),
(1159,1443,l),
(929,1443,l),
(874,975,l),
(950,0,l)
);
},
{
closed = 1;
nodes = (
(276,196,l),
(1057,196,l),
(1009,466,l),
(450,466,l)
);
},
{
closed = 1;
nodes = (
(1169,1553,l),
(1479,1902,l),
(1147,1902,l),
(1023,1727,l),
(1013,1727,l),
(941,1902,l),
(649,1902,l),
(803,1553,l)
);
}
);
};
layerId = "F66262BA-5A1D-44F4-BFD7-97C08A9A14E5";
shapes = (
{
alignment = -1;
ref = A;
},
{
alignment = -1;
pos = (345,437);
ref = caroncomb;
}
);
width = 1627;
},
{
associatedMasterId = "F66262BA-5A1D-44F4-BFD7-97C08A9A14E5";
background = {
anchors = (
{
name = bottom;
pos = (977,1588);
},
{
name = ogonek;
pos = (1223,0);
},
{
name = top;
pos = (1041,1856);
},
{
name = topleft;
pos = (-13,1443);
}
);
shapes = (
{
closed = 1;
nodes = (
(858,969,l),
(911,969,l),
(967,1443,l),
(734,1443,l),
(-117,0,l),
(352,0,l)
);
},
{
closed = 1;
nodes = (
(1370,0,l),
(1159,1443,l),
(929,1443,l),
(874,975,l),
(950,0,l)
);
},
{
closed = 1;
nodes = (
(276,196,l),
(1057,196,l),
(1009,466,l),
(450,466,l)
);
},
{
closed = 1;
nodes = (
(1169,1553,l),
(1479,1902,l),
(1147,1902,l),
(1023,1727,l),
(1013,1727,l),
(941,1902,l),
(649,1902,l),
(803,1553,l)
);
}
);
};
layerId = "CB88E075-1C0A-40C6-96E3-5689667FF552";
name = "11 Dec 25 at 11:53";
shapes = (
{
alignment = -1;
ref = A;
},
{
alignment = -1;
pos = (345,437);
ref = caroncomb;
}
);
width = 1627;
},
{
associatedMasterId = "0655DA90-B56F-496E-8077-C2A69D96FC98";
background = {
anchors = (
{
name = bottom;
pos = (874,1582);
},
{
name = ogonek;
pos = (1199,0);
},
{
name = top;
pos = (906,1727);
},
{
name = topleft;
pos = (503,1443);
}
);
shapes = (
{
closed = 1;
nodes = (
(865,1264,l),
(909,1264,l),
(937,1444,l),
(787,1444,l),
(-111,0,l),
(81,0,l)
);
},
{
closed = 1;
nodes = (
(1297,0,l),
(1005,1444,l),
(897,1444,l),
(870,1270,l),
(1115,0,l)
);
},
{
closed = 1;
nodes = (
(246,356,l),
(1090,356,l),
(1054,516,l),
(348,516,l)
);
},
{
closed = 1;
nodes = (
(994,1551,l),
(1214,1790,l),
(1006,1790,l),
(906,1655,l),
(900,1655,l),
(850,1790,l),
(670,1790,l),
(788,1551,l)
);
}
);
};
layerId = "867F5FEA-147C-47B1-9818-07D690DF5916";
name = "11 Dec 25 at 11:53";
shapes = (
{
alignment = -1;
ref = A;
},
{
alignment = -1;
pos = (402,504);
ref = caroncomb;
}
);
width = 1508;
},
{
associatedMasterId = "0CA926B8-BF71-483F-A045-F233B587689B";
background = {
anchors = (
{
name = bottom;
pos = (789,1591);
},
{
name = ogonek;
pos = (1340,0);
},
{
name = top;
pos = (784,1865);
},
{
name = topleft;
pos = (208,1443);
}
);
shapes = (
{
closed = 1;
nodes = (
(775,959,l),
(828,959,l),
(818,1443,l),
(585,1443,l),
(0,0,l),
(429,0,l)
);
},
{
closed = 1;
nodes = (
(1567,0,l),
(980,1443,l),
(780,1443,l),
(790,965,l),
(1137,0,l)
);
},
{
closed = 1;
nodes = (
(392,216,l),
(1173,216,l),
(1061,506,l),
(502,506,l)
);
},
{
closed = 1;
nodes = (
(978,1559,l),
(1204,1908,l),
(892,1908,l),
(795,1733,l),
(785,1733,l),
(686,1908,l),
(374,1908,l),
(602,1559,l)
);
}
);
};
layerId = "DF36FE9E-587F-494D-8662-6738B298767A";
name = "11 Dec 25 at 11:53";
shapes = (
{
ref = A;
},
{
pos = (264,443);
ref = caroncomb;
}
);
width = 1567;
},
{
associatedMasterId = "6871CC57-2503-4E31-BAA0-540E82C15514";
background = {
anchors = (
{
name = bottom;
pos = (869,1616);
},
{
name = ogonek;
pos = (1150,0);
},
{
name = top;
pos = (894,1736);
},
{
name = topleft;
pos = (543,1443);
}
);
shapes = (
{
closed = 1;
nodes = (
(822,1354,l),
(831,1354,l),
(850,1443,l),
(821,1443,l),
(-111,0,l),
(-54,0,l)
);
},
{
closed = 1;
nodes = (
(1178,0,l),
(856,1443,l),
(839,1443,l),
(825,1356,l),
(1129,0,l)
);
},
{
closed = 1;
nodes = (
(203,436,l),
(1052,436,l),
(1042,484,l),
(232,484,l)
);
},
{
closed = 1;
nodes = (
(887,1555,l),
(1116,1764,l),
(1047,1764,l),
(871,1602,l),
(869,1602,l),
(761,1764,l),
(702,1764,l),
(843,1555,l)
);
}
);
};
layerId = "2639BDA2-8F0E-48A7-9368-98059813B201";
name = "11 Dec 25 at 11:53";
shapes = (
{
ref = A;
},
{
pos = (433,503);
ref = caroncomb;
}
);
width = 1289;
},
{
associatedMasterId = "0A7ECE6A-DF67-46D8-8F43-1681A4AD540C";
background = {
anchors = (
{
name = bottom;
pos = (692,1582);
},
{
name = ogonek;
pos = (1310,0);
},
{
name = top;
pos = (702,1727);
},
{
name = topleft;
pos = (308,1443);
}
);
shapes = (
{
closed = 1;
nodes = (
(698,1264,l),
(742,1264,l),
(742,1444,l),
(592,1444,l),
(0,0,l),
(192,0,l)
);
},
{
closed = 1;
nodes = (
(1408,0,l),
(810,1444,l),
(702,1444,l),
(702,1270,l),
(1216,0,l)
);
},
{
closed = 1;
nodes = (
(282,356,l),
(1126,356,l),
(1056,516,l),
(350,516,l)
);
},
{
closed = 1;
nodes = (
(804,1551,l),
(974,1790,l),
(780,1790,l),
(704,1655,l),
(698,1655,l),
(624,1790,l),
(430,1790,l),
(598,1551,l)
);
}
);
};
layerId = "FEE99A4F-02BC-4BF4-A819-BB664B4D6AEB";
name = "11 Dec 25 at 11:53";
shapes = (
{
ref = A;
},
{
pos = (320,504);
ref = caroncomb;
}
);
width = 1408;
},
{
associatedMasterId = "B1815A28-7A99-448B-912A-F8CD41C6863A";
background = {
anchors = (
{
name = bottom;
pos = (645,1616);
},
{
name = ogonek;
pos = (1261,0);
},
{
name = top;
pos = (645,1736);
},
{
name = topleft;
pos = (348,1443);
}
);
shapes = (
{
closed = 1;
nodes = (
(642,1354,l),
(655,1354,l),
(655,1443,l),
(626,1443,l),
(0,0,l),
(53,0,l)
);
},
{
closed = 1;
nodes = (
(1289,0,l),
(661,1443,l),
(644,1443,l),
(644,1356,l),
(1236,0,l)
);
},
{
closed = 1;
nodes = (
(222,436,l),
(1071,436,l),
(1050,484,l),
(240,484,l)
);
},
{
closed = 1;
nodes = (
(667,1575,l),
(852,1784,l),
(788,1784,l),
(646,1622,l),
(644,1622,l),
(502,1784,l),
(438,1784,l),
(623,1575,l)
);
}
);
};
layerId = "4E0AE1BC-F6C2-4700-B69A-69F02D4764A6";
name = "11 Dec 25 at 11:53";
shapes = (
{
ref = A;
},
{
pos = (328,503);
ref = caroncomb;
}
);
width = 1289;
}
);
unicode = 461;
},
{
color = 10;
glyphname = Acircumflex;
kernLeft = A;
kernRight = A;
lastChange = "2025-12-11 10:53:19 +0000";
layers = (
{
background = {
anchors = (
{
name = bottom;
pos = (646,0);
},
{
name = ogonek;
pos = (1261,0);
},
{
name = top;
pos = (643,1757);
},
{
name = topleft;
pos = (348,1443);
}
);
shapes = (
{
closed = 1;
nodes = (
(642,1354,l),
(655,1354,l),
(655,1443,l),
(626,1443,l),
(0,0,l),
(53,0,l)
);
},
{
closed = 1;
nodes = (
(1289,0,l),
(661,1443,l),
(644,1443,l),
(644,1356,l),
(1236,0,l)
);
},
{
closed = 1;
nodes = (
(222,436,l),
(1071,436,l),
(1050,484,l),
(240,484,l)
);
},
{
closed = 1;
nodes = (
(436,1589,l),
(500,1589,l),
(642,1751,l),
(644,1751,l),
(786,1589,l),
(850,1589,l),
(665,1798,l),
(621,1798,l)
);
}
);
};
layerId = "B1815A28-7A99-448B-912A-F8CD41C6863A";
shapes = (
{
ref = A;
},
{
pos = (326,503);
ref = circumflexcomb;
}
);
width = 1289;
},
{
background = {
anchors = (
{
name = bottom;
pos = (702,0);
},
{
name = ogonek;
pos = (1310,0);
},
{
name = top;
pos = (693,1747);
},
{
name = topleft;
pos = (308,1443);
}
);
shapes = (
{
closed = 1;
nodes = (
(698,1264,l),
(742,1264,l),
(742,1444,l),
(592,1444,l),
(0,0,l),
(192,0,l)
);
},
{
closed = 1;
nodes = (
(1408,0,l),
(810,1444,l),
(702,1444,l),
(702,1270,l),
(1216,0,l)
);
},
{
closed = 1;
nodes = (
(282,356,l),
(1126,356,l),
(1056,516,l),
(350,516,l)
);
},
{
closed = 1;
nodes = (
(431,1539,l),
(625,1539,l),
(699,1654,l),
(705,1654,l),
(781,1539,l),
(975,1539,l),
(805,1778,l),
(599,1778,l)
);
}
);
};
layerId = "0A7ECE6A-DF67-46D8-8F43-1681A4AD540C";
shapes = (
{
ref = A;
},
{
pos = (321,504);
ref = circumflexcomb;
}
);
width = 1408;
},
{
background = {
anchors = (
{
name = bottom;
pos = (784,0);
},
{
name = ogonek;
pos = (1340,0);
},
{
name = top;
pos = (784,1854);
},
{
name = topleft;
pos = (208,1443);
}
);
shapes = (
{
closed = 1;
nodes = (
(775,959,l),
(828,959,l),
(818,1443,l),
(585,1443,l),
(0,0,l),
(429,0,l)
);
},
{
closed = 1;
nodes = (
(1567,0,l),
(980,1443,l),
(780,1443,l),
(790,965,l),
(1137,0,l)
);
},
{
closed = 1;
nodes = (
(392,216,l),
(1173,216,l),
(1061,506,l),
(502,506,l)
);
},
{
closed = 1;
nodes = (
(369,1537,l),
(681,1537,l),
(780,1712,l),
(790,1712,l),
(887,1537,l),
(1199,1537,l),
(973,1886,l),
(597,1886,l)
);
}
);
};
layerId = "0CA926B8-BF71-483F-A045-F233B587689B";
shapes = (
{
ref = A;
},
{
pos = (259,443);
ref = circumflexcomb;
}
);
width = 1567;
},
{
background = {
anchors = (
{
name = bottom;
pos = (535,0);
},
{
name = ogonek;
pos = (1150,0);
},
{
name = top;
pos = (904,1757);
},
{
name = topleft;
pos = (543,1443);
}
);
shapes = (
{
closed = 1;
nodes = (
(822,1354,l),
(831,1354,l),
(850,1443,l),
(821,1443,l),
(-111,0,l),
(-54,0,l)
);
},
{
closed = 1;
nodes = (
(1178,0,l),
(856,1443,l),
(839,1443,l),
(825,1356,l),
(1129,0,l)
);
},
{
closed = 1;
nodes = (
(203,436,l),
(1052,436,l),
(1042,484,l),
(232,484,l)
);
},
{
closed = 1;
nodes = (
(662,1589,l),
(726,1589,l),
(902,1751,l),
(904,1751,l),
(1012,1589,l),
(1076,1589,l),
(935,1798,l),
(891,1798,l)
);
}
);
};
layerId = "6871CC57-2503-4E31-BAA0-540E82C15514";
shapes = (
{
ref = A;
},
{
pos = (431,503);
ref = circumflexcomb;
}
);
width = 1289;
},
{
background = {
anchors = (
{
name = bottom;
pos = (591,0);
},
{
name = ogonek;
pos = (1199,0);
},
{
name = top;
pos = (938,1747);
},
{
name = topleft;
pos = (503,1443);
}
);
shapes = (
{
closed = 1;
nodes = (
(865,1264,l),
(909,1264,l),
(937,1444,l),
(787,1444,l),
(-111,0,l),
(81,0,l)
);
},
{
closed = 1;
nodes = (
(1297,0,l),
(1005,1444,l),
(897,1444,l),
(870,1270,l),
(1115,0,l)
);
},
{
closed = 1;
nodes = (
(246,356,l),
(1090,356,l),
(1054,516,l),
(348,516,l)
);
},
{
closed = 1;
nodes = (
(621,1539,l),
(815,1539,l),
(913,1654,l),
(919,1654,l),
(971,1539,l),
(1165,1539,l),
(1045,1778,l),
(839,1778,l)
);
}
);
};
layerId = "0655DA90-B56F-496E-8077-C2A69D96FC98";
shapes = (
{
alignment = -1;
ref = A;
},
{
alignment = -1;
pos = (407,504);
ref = circumflexcomb;
}
);
width = 1508;
},
{
background = {
anchors = (
{
name = bottom;
pos = (627,0);
},
{
name = ogonek;
pos = (1223,0);
},
{
name = top;
pos = (1060,1824);
},
{
name = topleft;
pos = (-13,1443);
}
);
shapes = (
{
closed = 1;
nodes = (
(858,969,l),
(911,969,l),
(967,1443,l),
(734,1443,l),
(-117,0,l),
(352,0,l)
);
},
{
closed = 1;
nodes = (
(1370,0,l),
(1159,1443,l),
(929,1443,l),
(874,975,l),
(950,0,l)
);
},
{
closed = 1;
nodes = (
(276,196,l),
(1057,196,l),
(1009,466,l),
(450,466,l)
);
},
{
closed = 1;
nodes = (
(578,1537,l),
(890,1537,l),
(1026,1712,l),
(1036,1712,l),
(1096,1537,l),
(1408,1537,l),
(1256,1886,l),
(880,1886,l)
);
}
);
};
layerId = "F66262BA-5A1D-44F4-BFD7-97C08A9A14E5";
shapes = (
{
alignment = -1;
ref = A;
},
{
alignment = -1;
pos = (352,443);
ref = circumflexcomb;
}
);
width = 1627;
},
{
associatedMasterId = "F66262BA-5A1D-44F4-BFD7-97C08A9A14E5";
background = {
anchors = (
{
name = bottom;
pos = (627,0);
},
{
name = ogonek;
pos = (1223,0);
},
{
name = top;
pos = (1060,1824);
},
{
name = topleft;
pos = (-13,1443);
}
);
shapes = (
{
closed = 1;
nodes = (
(858,969,l),
(911,969,l),
(967,1443,l),
(734,1443,l),
(-117,0,l),
(352,0,l)
);
},
{
closed = 1;
nodes = (
(1370,0,l),
(1159,1443,l),
(929,1443,l),
(874,975,l),
(950,0,l)
);
},
{
closed = 1;
nodes = (
(276,196,l),
(1057,196,l),
(1009,466,l),
(450,466,l)
);
},
{
closed = 1;
nodes = (
(578,1537,l),
(890,1537,l),
(1026,1712,l),
(1036,1712,l),
(1096,1537,l),
(1408,1537,l),
(1256,1886,l),
(880,1886,l)
);
}
);
};
layerId = "67A46ACD-9076-4CD0-9C85-61014C240FC5";
name = "11 Dec 25 at 11:53";
shapes = (
{
alignment = -1;
ref = A;
},
{
alignment = -1;
pos = (352,443);
ref = circumflexcomb;
}
);
width = 1627;
},
{
associatedMasterId = "0655DA90-B56F-496E-8077-C2A69D96FC98";
background = {
anchors = (
{
name = bottom;
pos = (591,0);
},
{
name = ogonek;
pos = (1199,0);
},
{
name = top;
pos = (938,1747);
},
{
name = topleft;
pos = (503,1443);
}
);
shapes = (
{
closed = 1;
nodes = (
(865,1264,l),
(909,1264,l),
(937,1444,l),
(787,1444,l),
(-111,0,l),
(81,0,l)
);
},
{
closed = 1;
nodes = (
(1297,0,l),
(1005,1444,l),
(897,1444,l),
(870,1270,l),
(1115,0,l)
);
},
{
closed = 1;
nodes = (
(246,356,l),
(1090,356,l),
(1054,516,l),
(348,516,l)
);
},
{
closed = 1;
nodes = (
(621,1539,l),
(815,1539,l),
(913,1654,l),
(919,1654,l),
(971,1539,l),
(1165,1539,l),
(1045,1778,l),
(839,1778,l)
);
}
);
};
layerId = "6DA1CD88-2385-4F47-8FB2-7520D8E309CA";
name = "11 Dec 25 at 11:53";
shapes = (
{
alignment = -1;
ref = A;
},
{
alignment = -1;
pos = (407,504);
ref = circumflexcomb;
}
);
width = 1508;
},
{
associatedMasterId = "0CA926B8-BF71-483F-A045-F233B587689B";
background = {
anchors = (
{
name = bottom;
pos = (784,0);
},
{
name = ogonek;
pos = (1340,0);
},
{
name = top;
pos = (784,1854);
},
{
name = topleft;
pos = (208,1443);
}
);
shapes = (
{
closed = 1;
nodes = (
(775,959,l),
(828,959,l),
(818,1443,l),
(585,1443,l),
(0,0,l),
(429,0,l)
);
},
{
closed = 1;
nodes = (
(1567,0,l),
(980,1443,l),
(780,1443,l),
(790,965,l),
(1137,0,l)
);
},
{
closed = 1;
nodes = (
(392,216,l),
(1173,216,l),
(1061,506,l),
(502,506,l)
);
},
{
closed = 1;
nodes = (
(369,1537,l),
(681,1537,l),
(780,1712,l),
(790,1712,l),
(887,1537,l),
(1199,1537,l),
(973,1886,l),
(597,1886,l)
);
}
);
};
layerId = "9827CE69-5513-4EF7-840F-8CB437A63C94";
name = "11 Dec 25 at 11:53";
shapes = (
{
ref = A;
},
{
pos = (259,443);
ref = circumflexcomb;
}
);
width = 1567;
},
{
associatedMasterId = "6871CC57-2503-4E31-BAA0-540E82C15514";
background = {
anchors = (
{
name = bottom;
pos = (535,0);
},
{
name = ogonek;
pos = (1150,0);
},
{
name = top;
pos = (904,1757);
},
{
name = topleft;
pos = (543,1443);
}
);
shapes = (
{
closed = 1;
nodes = (
(822,1354,l),
(831,1354,l),
(850,1443,l),
(821,1443,l),
(-111,0,l),
(-54,0,l)
);
},
{
closed = 1;
nodes = (
(1178,0,l),
(856,1443,l),
(839,1443,l),
(825,1356,l),
(1129,0,l)
);
},
{
closed = 1;
nodes = (
(203,436,l),
(1052,436,l),
(1042,484,l),
(232,484,l)
);
},
{
closed = 1;
nodes = (
(662,1589,l),
(726,1589,l),
(902,1751,l),
(904,1751,l),
(1012,1589,l),
(1076,1589,l),
(935,1798,l),
(891,1798,l)
);
}
);
};
layerId = "644ECC83-FBE1-4691-B603-6F46DDA5E6CA";
name = "11 Dec 25 at 11:53";
shapes = (
{
ref = A;
},
{
pos = (431,503);
ref = circumflexcomb;
}
);
width = 1289;
},
{
associatedMasterId = "0A7ECE6A-DF67-46D8-8F43-1681A4AD540C";
background = {
anchors = (
{
name = bottom;
pos = (702,0);
},
{
name = ogonek;
pos = (1310,0);
},
{
name = top;
pos = (693,1747);
},
{
name = topleft;
pos = (308,1443);
}
);
shapes = (
{
closed = 1;
nodes = (
(698,1264,l),
(742,1264,l),
(742,1444,l),
(592,1444,l),
(0,0,l),
(192,0,l)
);
},
{
closed = 1;
nodes = (
(1408,0,l),
(810,1444,l),
(702,1444,l),
(702,1270,l),
(1216,0,l)
);
},
{
closed = 1;
nodes = (
(282,356,l),
(1126,356,l),
(1056,516,l),
(350,516,l)
);
},
{
closed = 1;
nodes = (
(431,1539,l),
(625,1539,l),
(699,1654,l),
(705,1654,l),
(781,1539,l),
(975,1539,l),
(805,1778,l),
(599,1778,l)
);
}
);
};
layerId = "A153B493-8E73-404C-B99F-5BBB1C82797F";
name = "11 Dec 25 at 11:53";
shapes = (
{
ref = A;
},
{
pos = (321,504);
ref = circumflexcomb;
}
);
width = 1408;
},
{
associatedMasterId = "B1815A28-7A99-448B-912A-F8CD41C6863A";
background = {
anchors = (
{
name = bottom;
pos = (646,0);
},
{
name = ogonek;
pos = (1261,0);
},
{
name = top;
pos = (643,1757);
},
{
name = topleft;
pos = (348,1443);
}
);
shapes = (
{
closed = 1;
nodes = (
(642,1354,l),
(655,1354,l),
(655,1443,l),
(626,1443,l),
(0,0,l),
(53,0,l)
);
},
{
closed = 1;
nodes = (
(1289,0,l),
(661,1443,l),
(644,1443,l),
(644,1356,l),
(1236,0,l)
);
},
{
closed = 1;
nodes = (
(222,436,l),
(1071,436,l),
(1050,484,l),
(240,484,l)
);
},
{
closed = 1;
nodes = (
(436,1589,l),
(500,1589,l),
(642,1751,l),
(644,1751,l),
(786,1589,l),
(850,1589,l),
(665,1798,l),
(621,1798,l)
);
}
);
};
layerId = "A690BEDA-A546-446E-9855-38D96C3A82C5";
name = "11 Dec 25 at 11:53";
shapes = (
{
ref = A;
},
{
pos = (326,503);
ref = circumflexcomb;
}
);
width = 1289;
}
);
unicode = 194;
},
{
color = 10;
glyphname = Adieresis;
kernLeft = A;
kernRight = A;
lastChange = "2025-12-11 10:53:19 +0000";
layers = (
{
background = {
anchors = (
{
name = bottom;
pos = (646,0);
},
{
name = ogonek;
pos = (1261,0);
},
{
name = top;
pos = (645,1443);
},
{
name = topleft;
pos = (348,1443);
}
);
shapes = (
{
closed = 1;
nodes = (
(642,1354,l),
(655,1354,l),
(655,1443,l),
(626,1443,l),
(0,0,l),
(53,0,l)
);
},
{
closed = 1;
nodes = (
(1289,0,l),
(661,1443,l),
(644,1443,l),
(644,1356,l),
(1236,0,l)
);
},
{
closed = 1;
nodes = (
(222,436,l),
(1071,436,l),
(1050,484,l),
(240,484,l)
);
},
{
closed = 1;
nodes = (
(469,1638,l),
(539,1638,l),
(539,1708,l),
(469,1708,l)
);
},
{
closed = 1;
nodes = (
(752,1638,l),
(822,1638,l),
(822,1708,l),
(752,1708,l)
);
}
);
};
layerId = "B1815A28-7A99-448B-912A-F8CD41C6863A";
shapes = (
{
ref = A;
},
{
pos = (359,503);
ref = dieresiscomb;
}
);
width = 1289;
},
{
background = {
anchors = (
{
name = bottom;
pos = (702,0);
},
{
name = ogonek;
pos = (1310,0);
},
{
name = top;
pos = (702,1444);
},
{
name = topleft;
pos = (308,1443);
}
);
shapes = (
{
closed = 1;
nodes = (
(698,1264,l),
(742,1264,l),
(742,1444,l),
(592,1444,l),
(0,0,l),
(192,0,l)
);
},
{
closed = 1;
nodes = (
(1408,0,l),
(810,1444,l),
(702,1444,l),
(702,1270,l),
(1216,0,l)
);
},
{
closed = 1;
nodes = (
(282,356,l),
(1126,356,l),
(1056,516,l),
(350,516,l)
);
},
{
closed = 1;
nodes = (
(459,1565,l),
(639,1565,l),
(639,1744,l),
(459,1744,l)
);
},
{
closed = 1;
nodes = (
(766,1565,l),
(946,1565,l),
(946,1744,l),
(766,1744,l)
);
}
);
};
layerId = "0A7ECE6A-DF67-46D8-8F43-1681A4AD540C";
shapes = (
{
ref = A;
},
{
pos = (349,504);
ref = dieresiscomb;
}
);
width = 1408;
},
{
background = {
anchors = (
{
name = bottom;
pos = (784,0);
},
{
name = ogonek;
pos = (1340,0);
},
{
name = top;
pos = (784,1443);
},
{
name = topleft;
pos = (208,1443);
}
);
shapes = (
{
closed = 1;
nodes = (
(775,959,l),
(828,959,l),
(818,1443,l),
(585,1443,l),
(0,0,l),
(429,0,l)
);
},
{
closed = 1;
nodes = (
(1567,0,l),
(980,1443,l),
(780,1443,l),
(790,965,l),
(1137,0,l)
);
},
{
closed = 1;
nodes = (
(392,216,l),
(1173,216,l),
(1061,506,l),
(502,506,l)
);
},
{
closed = 1;
nodes = (
(435,1605,l),
(713,1605,l),
(713,1848,l),
(435,1848,l)
);
},
{
closed = 1;
nodes = (
(850,1605,l),
(1128,1605,l),
(1128,1848,l),
(850,1848,l)
);
}
);
};
layerId = "0CA926B8-BF71-483F-A045-F233B587689B";
shapes = (
{
ref = A;
},
{
pos = (325,443);
ref = dieresiscomb;
}
);
width = 1567;
},
{
background = {
anchors = (
{
name = bottom;
pos = (535,0);
},
{
name = ogonek;
pos = (1150,0);
},
{
name = top;
pos = (840,1443);
},
{
name = topleft;
pos = (543,1443);
}
);
shapes = (
{
closed = 1;
nodes = (
(822,1354,l),
(831,1354,l),
(850,1443,l),
(821,1443,l),
(-111,0,l),
(-54,0,l)
);
},
{
closed = 1;
nodes = (
(1178,0,l),
(856,1443,l),
(839,1443,l),
(825,1356,l),
(1129,0,l)
);
},
{
closed = 1;
nodes = (
(203,436,l),
(1052,436,l),
(1042,484,l),
(232,484,l)
);
},
{
closed = 1;
nodes = (
(692,1628,l),
(762,1628,l),
(776,1698,l),
(706,1698,l)
);
},
{
closed = 1;
nodes = (
(975,1628,l),
(1045,1628,l),
(1059,1698,l),
(989,1698,l)
);
}
);
};
layerId = "6871CC57-2503-4E31-BAA0-540E82C15514";
shapes = (
{
ref = A;
},
{
pos = (452,503);
ref = dieresiscomb;
}
);
width = 1289;
},
{
background = {
anchors = (
{
name = bottom;
pos = (591,0);
},
{
name = ogonek;
pos = (1199,0);
},
{
name = top;
pos = (897,1444);
},
{
name = topleft;
pos = (503,1443);
}
);
shapes = (
{
closed = 1;
nodes = (
(865,1264,l),
(909,1264,l),
(937,1444,l),
(787,1444,l),
(-111,0,l),
(81,0,l)
);
},
{
closed = 1;
nodes = (
(1297,0,l),
(1005,1444,l),
(897,1444,l),
(870,1270,l),
(1115,0,l)
);
},
{
closed = 1;
nodes = (
(246,356,l),
(1090,356,l),
(1054,516,l),
(348,516,l)
);
},
{
closed = 1;
nodes = (
(643,1555,l),
(823,1555,l),
(860,1734,l),
(681,1734,l)
);
},
{
closed = 1;
nodes = (
(950,1555,l),
(1130,1555,l),
(1167,1734,l),
(988,1734,l)
);
}
);
};
layerId = "0655DA90-B56F-496E-8077-C2A69D96FC98";
shapes = (
{
alignment = -1;
ref = A;
},
{
alignment = -1;
pos = (425,504);
ref = dieresiscomb;
}
);
width = 1508;
},
{
background = {
anchors = (
{
name = bottom;
pos = (627,0);
},
{
name = ogonek;
pos = (1223,0);
},
{
name = top;
pos = (933,1443);
},
{
name = topleft;
pos = (-13,1443);
}
);
shapes = (
{
closed = 1;
nodes = (
(858,969,l),
(911,969,l),
(967,1443,l),
(734,1443,l),
(-117,0,l),
(352,0,l)
);
},
{
closed = 1;
nodes = (
(1370,0,l),
(1159,1443,l),
(929,1443,l),
(874,975,l),
(950,0,l)
);
},
{
closed = 1;
nodes = (
(276,196,l),
(1057,196,l),
(1009,466,l),
(450,466,l)
);
},
{
closed = 1;
nodes = (
(658,1605,l),
(936,1605,l),
(988,1848,l),
(710,1848,l)
);
},
{
closed = 1;
nodes = (
(1073,1605,l),
(1351,1605,l),
(1403,1848,l),
(1125,1848,l)
);
}
);
};
layerId = "F66262BA-5A1D-44F4-BFD7-97C08A9A14E5";
shapes = (
{
alignment = -1;
ref = A;
},
{
alignment = -1;
pos = (418,443);
ref = dieresiscomb;
}
);
width = 1627;
},
{
associatedMasterId = "F66262BA-5A1D-44F4-BFD7-97C08A9A14E5";
background = {
anchors = (
{
name = bottom;
pos = (627,0);
},
{
name = ogonek;
pos = (1223,0);
},
{
name = top;
pos = (933,1443);
},
{
name = topleft;
pos = (-13,1443);
}
);
shapes = (
{
closed = 1;
nodes = (
(858,969,l),
(911,969,l),
(967,1443,l),
(734,1443,l),
(-117,0,l),
(352,0,l)
);
},
{
closed = 1;
nodes = (
(1370,0,l),
(1159,1443,l),
(929,1443,l),
(874,975,l),
(950,0,l)
);
},
{
closed = 1;
nodes = (
(276,196,l),
(1057,196,l),
(1009,466,l),
(450,466,l)
);
},
{
closed = 1;
nodes = (
(658,1605,l),
(936,1605,l),
(988,1848,l),
(710,1848,l)
);
},
{
closed = 1;
nodes = (
(1073,1605,l),
(1351,1605,l),
(1403,1848,l),
(1125,1848,l)
);
}
);
};
layerId = "E573E9FF-C5EC-436B-8E7A-C8559C690010";
name = "11 Dec 25 at 11:53";
shapes = (
{
alignment = -1;
ref = A;
},
{
alignment = -1;
pos = (418,443);
ref = dieresiscomb;
}
);
width = 1627;
},
{
associatedMasterId = "0655DA90-B56F-496E-8077-C2A69D96FC98";
background = {
anchors = (
{
name = bottom;
pos = (591,0);
},
{
name = ogonek;
pos = (1199,0);
},
{
name = top;
pos = (897,1444);
},
{
name = topleft;
pos = (503,1443);
}
);
shapes = (
{
closed = 1;
nodes = (
(865,1264,l),
(909,1264,l),
(937,1444,l),
(787,1444,l),
(-111,0,l),
(81,0,l)
);
},
{
closed = 1;
nodes = (
(1297,0,l),
(1005,1444,l),
(897,1444,l),
(870,1270,l),
(1115,0,l)
);
},
{
closed = 1;
nodes = (
(246,356,l),
(1090,356,l),
(1054,516,l),
(348,516,l)
);
},
{
closed = 1;
nodes = (
(643,1555,l),
(823,1555,l),
(860,1734,l),
(681,1734,l)
);
},
{
closed = 1;
nodes = (
(950,1555,l),
(1130,1555,l),
(1167,1734,l),
(988,1734,l)
);
}
);
};
layerId = "F0A56E4E-69AA-4E28-BD17-7D4B42F4D6D3";
name = "11 Dec 25 at 11:53";
shapes = (
{
alignment = -1;
ref = A;
},
{
alignment = -1;
pos = (425,504);
ref = dieresiscomb;
}
);
width = 1508;
},
{
associatedMasterId = "0CA926B8-BF71-483F-A045-F233B587689B";
background = {
anchors = (
{
name = bottom;
pos = (784,0);
},
{
name = ogonek;
pos = (1340,0);
},
{
name = top;
pos = (784,1443);
},
{
name = topleft;
pos = (208,1443);
}
);
shapes = (
{
closed = 1;
nodes = (
(775,959,l),
(828,959,l),
(818,1443,l),
(585,1443,l),
(0,0,l),
(429,0,l)
);
},
{
closed = 1;
nodes = (
(1567,0,l),
(980,1443,l),
(780,1443,l),
(790,965,l),
(1137,0,l)
);
},
{
closed = 1;
nodes = (
(392,216,l),
(1173,216,l),
(1061,506,l),
(502,506,l)
);
},
{
closed = 1;
nodes = (
(435,1605,l),
(713,1605,l),
(713,1848,l),
(435,1848,l)
);
},
{
closed = 1;
nodes = (
(850,1605,l),
(1128,1605,l),
(1128,1848,l),
(850,1848,l)
);
}
);
};
layerId = "50944320-6665-4006-A9F3-A720789BF894";
name = "11 Dec 25 at 11:53";
shapes = (
{
ref = A;
},
{
pos = (325,443);
ref = dieresiscomb;
}
);
width = 1567;
},
{
associatedMasterId = "6871CC57-2503-4E31-BAA0-540E82C15514";
background = {
anchors = (
{
name = bottom;
pos = (535,0);
},
{
name = ogonek;
pos = (1150,0);
},
{
name = top;
pos = (840,1443);
},
{
name = topleft;
pos = (543,1443);
}
);
shapes = (
{
closed = 1;
nodes = (
(822,1354,l),
(831,1354,l),
(850,1443,l),
(821,1443,l),
(-111,0,l),
(-54,0,l)
);
},
{
closed = 1;
nodes = (
(1178,0,l),
(856,1443,l),
(839,1443,l),
(825,1356,l),
(1129,0,l)
);
},
{
closed = 1;
nodes = (
(203,436,l),
(1052,436,l),
(1042,484,l),
(232,484,l)
);
},
{
closed = 1;
nodes = (
(692,1628,l),
(762,1628,l),
(776,1698,l),
(706,1698,l)
);
},
{
closed = 1;
nodes = (
(975,1628,l),
(1045,1628,l),
(1059,1698,l),
(989,1698,l)
);
}
);
};
layerId = "E2D6FE08-E5AF-4640-9BA0-41CA680C74DA";
name = "11 Dec 25 at 11:53";
shapes = (
{
ref = A;
},
{
pos = (452,503);
ref = dieresiscomb;
}
);
width = 1289;
},
{
associatedMasterId = "0A7ECE6A-DF67-46D8-8F43-1681A4AD540C";
background = {
anchors = (
{
name = bottom;
pos = (702,0);
},
{
name = ogonek;
pos = (1310,0);
},
{
name = top;
pos = (702,1444);
},
{
name = topleft;
pos = (308,1443);
}
);
shapes = (
{
closed = 1;
nodes = (
(698,1264,l),
(742,1264,l),
(742,1444,l),
(592,1444,l),
(0,0,l),
(192,0,l)
);
},
{
closed = 1;
nodes = (
(1408,0,l),
(810,1444,l),
(702,1444,l),
(702,1270,l),
(1216,0,l)
);
},
{
closed = 1;
nodes = (
(282,356,l),
(1126,356,l),
(1056,516,l),
(350,516,l)
);
},
{
closed = 1;
nodes = (
(459,1565,l),
(639,1565,l),
(639,1744,l),
(459,1744,l)
);
},
{
closed = 1;
nodes = (
(766,1565,l),
(946,1565,l),
(946,1744,l),
(766,1744,l)
);
}
);
};
layerId = "4BA2A808-CBEC-48AB-9124-23BC3726F180";
name = "11 Dec 25 at 11:53";
shapes = (
{
ref = A;
},
{
pos = (349,504);
ref = dieresiscomb;
}
);
width = 1408;
},
{
associatedMasterId = "B1815A28-7A99-448B-912A-F8CD41C6863A";
background = {
anchors = (
{
name = bottom;
pos = (646,0);
},
{
name = ogonek;
pos = (1261,0);
},
{
name = top;
pos = (645,1443);
},
{
name = topleft;
pos = (348,1443);
}
);
shapes = (
{
closed = 1;
nodes = (
(642,1354,l),
(655,1354,l),
(655,1443,l),
(626,1443,l),
(0,0,l),
(53,0,l)
);
},
{
closed = 1;
nodes = (
(1289,0,l),
(661,1443,l),
(644,1443,l),
(644,1356,l),
(1236,0,l)
);
},
{
closed = 1;
nodes = (
(222,436,l),
(1071,436,l),
(1050,484,l),
(240,484,l)
);
},
{
closed = 1;
nodes = (
(469,1638,l),
(539,1638,l),
(539,1708,l),
(469,1708,l)
);
},
{
closed = 1;
nodes = (
(752,1638,l),
(822,1638,l),
(822,1708,l),
(752,1708,l)
);
}
);
};
layerId = "F16205EE-8668-40D3-BB9E-147026C8C95F";
name = "11 Dec 25 at 11:53";
shapes = (
{
ref = A;
},
{
pos = (359,503);
ref = dieresiscomb;
}
);
width = 1289;
}
);
unicode = 196;
},
{
color = 10;
glyphname = Agrave;
kernLeft = A;
kernRight = A;
lastChange = "2025-12-11 10:53:19 +0000";
layers = (
{
background = {
anchors = (
{
name = bottom;
pos = (646,0);
},
{
name = ogonek;
pos = (1261,0);
},
{
name = top;
pos = (555,1700);
},
{
name = topleft;
pos = (348,1443);
}
);
shapes = (
{
closed = 1;
nodes = (
(642,1354,l),
(655,1354,l),
(655,1443,l),
(626,1443,l),
(0,0,l),
(53,0,l)
);
},
{
closed = 1;
nodes = (
(1289,0,l),
(661,1443,l),
(644,1443,l),
(644,1356,l),
(1236,0,l)
);
},
{
closed = 1;
nodes = (
(222,436,l),
(1071,436,l),
(1050,484,l),
(240,484,l)
);
},
{
closed = 1;
nodes = (
(620,1573,l),
(664,1573,l),
(589,1802,l),
(529,1802,l)
);
}
);
};
layerId = "B1815A28-7A99-448B-912A-F8CD41C6863A";
shapes = (
{
ref = A;
},
{
pos = (419,503);
ref = gravecomb;
}
);
width = 1289;
},
{
background = {
anchors = (
{
name = bottom;
pos = (702,0);
},
{
name = ogonek;
pos = (1310,0);
},
{
name = top;
pos = (578,1767);
},
{
name = topleft;
pos = (308,1443);
}
);
shapes = (
{
closed = 1;
nodes = (
(698,1264,l),
(742,1264,l),
(742,1444,l),
(592,1444,l),
(0,0,l),
(192,0,l)
);
},
{
closed = 1;
nodes = (
(1408,0,l),
(810,1444,l),
(702,1444,l),
(702,1270,l),
(1216,0,l)
);
},
{
closed = 1;
nodes = (
(282,356,l),
(1126,356,l),
(1056,516,l),
(350,516,l)
);
},
{
closed = 1;
nodes = (
(616,1569,l),
(779,1569,l),
(689,1818,l),
(476,1818,l)
);
}
);
};
layerId = "0A7ECE6A-DF67-46D8-8F43-1681A4AD540C";
shapes = (
{
ref = A;
},
{
pos = (366,504);
ref = gravecomb;
}
);
width = 1408;
},
{
background = {
anchors = (
{
name = bottom;
pos = (784,0);
},
{
name = ogonek;
pos = (1340,0);
},
{
name = top;
pos = (664,1884);
},
{
name = topleft;
pos = (208,1443);
}
);
shapes = (
{
closed = 1;
nodes = (
(775,959,l),
(828,959,l),
(818,1443,l),
(585,1443,l),
(0,0,l),
(429,0,l)
);
},
{
closed = 1;
nodes = (
(1567,0,l),
(980,1443,l),
(780,1443,l),
(790,965,l),
(1137,0,l)
);
},
{
closed = 1;
nodes = (
(392,216,l),
(1173,216,l),
(1061,506,l),
(502,506,l)
);
},
{
closed = 1;
nodes = (
(658,1583,l),
(901,1583,l),
(831,1922,l),
(478,1922,l)
);
}
);
};
layerId = "0CA926B8-BF71-483F-A045-F233B587689B";
shapes = (
{
ref = A;
},
{
pos = (368,443);
ref = gravecomb;
}
);
width = 1567;
},
{
background = {
anchors = (
{
name = bottom;
pos = (535,0);
},
{
name = ogonek;
pos = (1150,0);
},
{
name = top;
pos = (750,1700);
},
{
name = topleft;
pos = (543,1443);
}
);
shapes = (
{
closed = 1;
nodes = (
(822,1354,l),
(831,1354,l),
(850,1443,l),
(821,1443,l),
(-111,0,l),
(-54,0,l)
);
},
{
closed = 1;
nodes = (
(1178,0,l),
(856,1443,l),
(839,1443,l),
(825,1356,l),
(1129,0,l)
);
},
{
closed = 1;
nodes = (
(203,436,l),
(1052,436,l),
(1042,484,l),
(232,484,l)
);
},
{
closed = 1;
nodes = (
(821,1573,l),
(865,1573,l),
(838,1802,l),
(778,1802,l)
);
}
);
};
layerId = "6871CC57-2503-4E31-BAA0-540E82C15514";
shapes = (
{
ref = A;
},
{
pos = (501,503);
ref = gravecomb;
}
);
width = 1289;
},
{
background = {
anchors = (
{
name = bottom;
pos = (591,0);
},
{
name = ogonek;
pos = (1199,0);
},
{
name = top;
pos = (772,1767);
},
{
name = topleft;
pos = (503,1443);
}
);
shapes = (
{
closed = 1;
nodes = (
(865,1264,l),
(909,1264,l),
(937,1444,l),
(787,1444,l),
(-111,0,l),
(81,0,l)
);
},
{
closed = 1;
nodes = (
(1297,0,l),
(1005,1444,l),
(897,1444,l),
(870,1270,l),
(1115,0,l)
);
},
{
closed = 1;
nodes = (
(246,356,l),
(1090,356,l),
(1054,516,l),
(348,516,l)
);
},
{
closed = 1;
nodes = (
(814,1569,l),
(977,1569,l),
(939,1818,l),
(726,1818,l)
);
}
);
};
layerId = "0655DA90-B56F-496E-8077-C2A69D96FC98";
shapes = (
{
alignment = -1;
ref = A;
},
{
alignment = -1;
pos = (452,504);
ref = gravecomb;
}
);
width = 1508;
},
{
background = {
anchors = (
{
name = bottom;
pos = (627,0);
},
{
name = ogonek;
pos = (1223,0);
},
{
name = top;
pos = (883,1884);
},
{
name = topleft;
pos = (-13,1443);
}
);
shapes = (
{
closed = 1;
nodes = (
(858,969,l),
(911,969,l),
(967,1443,l),
(734,1443,l),
(-117,0,l),
(352,0,l)
);
},
{
closed = 1;
nodes = (
(1370,0,l),
(1159,1443,l),
(929,1443,l),
(874,975,l),
(950,0,l)
);
},
{
closed = 1;
nodes = (
(276,196,l),
(1057,196,l),
(1009,466,l),
(450,466,l)
);
},
{
closed = 1;
nodes = (
(881,1583,l),
(1124,1583,l),
(1126,1922,l),
(773,1922,l)
);
}
);
};
layerId = "F66262BA-5A1D-44F4-BFD7-97C08A9A14E5";
shapes = (
{
alignment = -1;
ref = A;
},
{
alignment = -1;
pos = (466,443);
ref = gravecomb;
}
);
width = 1627;
},
{
associatedMasterId = "F66262BA-5A1D-44F4-BFD7-97C08A9A14E5";
background = {
anchors = (
{
name = bottom;
pos = (627,0);
},
{
name = ogonek;
pos = (1223,0);
},
{
name = top;
pos = (883,1884);
},
{
name = topleft;
pos = (-13,1443);
}
);
shapes = (
{
closed = 1;
nodes = (
(858,969,l),
(911,969,l),
(967,1443,l),
(734,1443,l),
(-117,0,l),
(352,0,l)
);
},
{
closed = 1;
nodes = (
(1370,0,l),
(1159,1443,l),
(929,1443,l),
(874,975,l),
(950,0,l)
);
},
{
closed = 1;
nodes = (
(276,196,l),
(1057,196,l),
(1009,466,l),
(450,466,l)
);
},
{
closed = 1;
nodes = (
(881,1583,l),
(1124,1583,l),
(1126,1922,l),
(773,1922,l)
);
}
);
};
layerId = "8B7077D9-CD73-46C0-8560-7B2546D5E413";
name = "11 Dec 25 at 11:53";
shapes = (
{
alignment = -1;
ref = A;
},
{
alignment = -1;
pos = (466,443);
ref = gravecomb;
}
);
width = 1627;
},
{
associatedMasterId = "0655DA90-B56F-496E-8077-C2A69D96FC98";
background = {
anchors = (
{
name = bottom;
pos = (591,0);
},
{
name = ogonek;
pos = (1199,0);
},
{
name = top;
pos = (772,1767);
},
{
name = topleft;
pos = (503,1443);
}
);
shapes = (
{
closed = 1;
nodes = (
(865,1264,l),
(909,1264,l),
(937,1444,l),
(787,1444,l),
(-111,0,l),
(81,0,l)
);
},
{
closed = 1;
nodes = (
(1297,0,l),
(1005,1444,l),
(897,1444,l),
(870,1270,l),
(1115,0,l)
);
},
{
closed = 1;
nodes = (
(246,356,l),
(1090,356,l),
(1054,516,l),
(348,516,l)
);
},
{
closed = 1;
nodes = (
(814,1569,l),
(977,1569,l),
(939,1818,l),
(726,1818,l)
);
}
);
};
layerId = "05A638B4-1199-41EE-8AD0-E78DE2E1F5B7";
name = "11 Dec 25 at 11:53";
shapes = (
{
alignment = -1;
ref = A;
},
{
alignment = -1;
pos = (452,504);
ref = gravecomb;
}
);
width = 1508;
},
{
associatedMasterId = "0CA926B8-BF71-483F-A045-F233B587689B";
background = {
anchors = (
{
name = bottom;
pos = (784,0);
},
{
name = ogonek;
pos = (1340,0);
},
{
name = top;
pos = (664,1884);
},
{
name = topleft;
pos = (208,1443);
}
);
shapes = (
{
closed = 1;
nodes = (
(775,959,l),
(828,959,l),
(818,1443,l),
(585,1443,l),
(0,0,l),
(429,0,l)
);
},
{
closed = 1;
nodes = (
(1567,0,l),
(980,1443,l),
(780,1443,l),
(790,965,l),
(1137,0,l)
);
},
{
closed = 1;
nodes = (
(392,216,l),
(1173,216,l),
(1061,506,l),
(502,506,l)
);
},
{
closed = 1;
nodes = (
(658,1583,l),
(901,1583,l),
(831,1922,l),
(478,1922,l)
);
}
);
};
layerId = "2DA4FB1D-AE13-426F-88F3-357EDA7B3456";
name = "11 Dec 25 at 11:53";
shapes = (
{
ref = A;
},
{
pos = (368,443);
ref = gravecomb;
}
);
width = 1567;
},
{
associatedMasterId = "6871CC57-2503-4E31-BAA0-540E82C15514";
background = {
anchors = (
{
name = bottom;
pos = (535,0);
},
{
name = ogonek;
pos = (1150,0);
},
{
name = top;
pos = (750,1700);
},
{
name = topleft;
pos = (543,1443);
}
);
shapes = (
{
closed = 1;
nodes = (
(822,1354,l),
(831,1354,l),
(850,1443,l),
(821,1443,l),
(-111,0,l),
(-54,0,l)
);
},
{
closed = 1;
nodes = (
(1178,0,l),
(856,1443,l),
(839,1443,l),
(825,1356,l),
(1129,0,l)
);
},
{
closed = 1;
nodes = (
(203,436,l),
(1052,436,l),
(1042,484,l),
(232,484,l)
);
},
{
closed = 1;
nodes = (
(821,1573,l),
(865,1573,l),
(838,1802,l),
(778,1802,l)
);
}
);
};
layerId = "F777052C-D915-426C-9756-2D1E3E312C1E";
name = "11 Dec 25 at 11:53";
shapes = (
{
ref = A;
},
{
pos = (501,503);
ref = gravecomb;
}
);
width = 1289;
},
{
associatedMasterId = "0A7ECE6A-DF67-46D8-8F43-1681A4AD540C";
background = {
anchors = (
{
name = bottom;
pos = (702,0);
},
{
name = ogonek;
pos = (1310,0);
},
{
name = top;
pos = (578,1767);
},
{
name = topleft;
pos = (308,1443);
}
);
shapes = (
{
closed = 1;
nodes = (
(698,1264,l),
(742,1264,l),
(742,1444,l),
(592,1444,l),
(0,0,l),
(192,0,l)
);
},
{
closed = 1;
nodes = (
(1408,0,l),
(810,1444,l),
(702,1444,l),
(702,1270,l),
(1216,0,l)
);
},
{
closed = 1;
nodes = (
(282,356,l),
(1126,356,l),
(1056,516,l),
(350,516,l)
);
},
{
closed = 1;
nodes = (
(616,1569,l),
(779,1569,l),
(689,1818,l),
(476,1818,l)
);
}
);
};
layerId = "49BD28D3-07C8-421D-9651-250D8257A451";
name = "11 Dec 25 at 11:53";
shapes = (
{
ref = A;
},
{
pos = (366,504);
ref = gravecomb;
}
);
width = 1408;
},
{
associatedMasterId = "B1815A28-7A99-448B-912A-F8CD41C6863A";
background = {
anchors = (
{
name = bottom;
pos = (646,0);
},
{
name = ogonek;
pos = (1261,0);
},
{
name = top;
pos = (555,1700);
},
{
name = topleft;
pos = (348,1443);
}
);
shapes = (
{
closed = 1;
nodes = (
(642,1354,l),
(655,1354,l),
(655,1443,l),
(626,1443,l),
(0,0,l),
(53,0,l)
);
},
{
closed = 1;
nodes = (
(1289,0,l),
(661,1443,l),
(644,1443,l),
(644,1356,l),
(1236,0,l)
);
},
{
closed = 1;
nodes = (
(222,436,l),
(1071,436,l),
(1050,484,l),
(240,484,l)
);
},
{
closed = 1;
nodes = (
(620,1573,l),
(664,1573,l),
(589,1802,l),
(529,1802,l)
);
}
);
};
layerId = "D84D09B0-4F63-4691-8AC9-C0A76F40064A";
name = "11 Dec 25 at 11:53";
shapes = (
{
ref = A;
},
{
pos = (419,503);
ref = gravecomb;
}
);
width = 1289;
}
);
unicode = 192;
},
{
color = 10;
glyphname = Amacron;
kernLeft = A;
kernRight = A;
lastChange = "2025-12-11 10:53:19 +0000";
layers = (
{
background = {
anchors = (
{
name = bottom;
pos = (646,0);
},
{
name = ogonek;
pos = (1261,0);
},
{
name = top;
pos = (635,1666);
},
{
name = topleft;
pos = (348,1443);
}
);
shapes = (
{
closed = 1;
nodes = (
(642,1354,l),
(655,1354,l),
(655,1443,l),
(626,1443,l),
(0,0,l),
(53,0,l)
);
},
{
closed = 1;
nodes = (
(1289,0,l),
(661,1443,l),
(644,1443,l),
(644,1356,l),
(1236,0,l)
);
},
{
closed = 1;
nodes = (
(222,436,l),
(1071,436,l),
(1050,484,l),
(240,484,l)
);
},
{
closed = 1;
nodes = (
(445,1634,l),
(826,1634,l),
(826,1682,l),
(445,1682,l)
);
}
);
};
layerId = "B1815A28-7A99-448B-912A-F8CD41C6863A";
shapes = (
{
ref = A;
},
{
pos = (335,503);
ref = macroncomb;
}
);
width = 1289;
},
{
background = {
anchors = (
{
name = bottom;
pos = (702,0);
},
{
name = ogonek;
pos = (1310,0);
},
{
name = top;
pos = (702,1732);
},
{
name = topleft;
pos = (308,1443);
}
);
shapes = (
{
closed = 1;
nodes = (
(698,1264,l),
(742,1264,l),
(742,1444,l),
(592,1444,l),
(0,0,l),
(192,0,l)
);
},
{
closed = 1;
nodes = (
(1408,0,l),
(810,1444,l),
(702,1444,l),
(702,1270,l),
(1216,0,l)
);
},
{
closed = 1;
nodes = (
(282,356,l),
(1126,356,l),
(1056,516,l),
(350,516,l)
);
},
{
closed = 1;
nodes = (
(465,1592,l),
(936,1592,l),
(936,1732,l),
(465,1732,l)
);
}
);
};
layerId = "0A7ECE6A-DF67-46D8-8F43-1681A4AD540C";
shapes = (
{
ref = A;
},
{
pos = (355,504);
ref = macroncomb;
}
);
width = 1408;
},
{
background = {
anchors = (
{
name = bottom;
pos = (784,0);
},
{
name = ogonek;
pos = (1340,0);
},
{
name = top;
pos = (784,1831);
},
{
name = topleft;
pos = (208,1443);
}
);
shapes = (
{
closed = 1;
nodes = (
(775,959,l),
(828,959,l),
(818,1443,l),
(585,1443,l),
(0,0,l),
(429,0,l)
);
},
{
closed = 1;
nodes = (
(1567,0,l),
(980,1443,l),
(780,1443,l),
(790,965,l),
(1137,0,l)
);
},
{
closed = 1;
nodes = (
(392,216,l),
(1173,216,l),
(1061,506,l),
(502,506,l)
);
},
{
closed = 1;
nodes = (
(457,1616,l),
(1110,1616,l),
(1110,1856,l),
(457,1856,l)
);
}
);
};
layerId = "0CA926B8-BF71-483F-A045-F233B587689B";
shapes = (
{
ref = A;
},
{
pos = (347,443);
ref = macroncomb;
}
);
width = 1567;
},
{
background = {
anchors = (
{
name = bottom;
pos = (535,0);
},
{
name = ogonek;
pos = (1150,0);
},
{
name = top;
pos = (870,1666);
},
{
name = topleft;
pos = (543,1443);
}
);
shapes = (
{
closed = 1;
nodes = (
(822,1354,l),
(831,1354,l),
(850,1443,l),
(821,1443,l),
(-111,0,l),
(-54,0,l)
);
},
{
closed = 1;
nodes = (
(1178,0,l),
(856,1443,l),
(839,1443,l),
(825,1356,l),
(1129,0,l)
);
},
{
closed = 1;
nodes = (
(203,436,l),
(1052,436,l),
(1042,484,l),
(232,484,l)
);
},
{
closed = 1;
nodes = (
(675,1634,l),
(1056,1634,l),
(1066,1682,l),
(685,1682,l)
);
}
);
};
layerId = "6871CC57-2503-4E31-BAA0-540E82C15514";
shapes = (
{
ref = A;
},
{
pos = (434,503);
ref = macroncomb;
}
);
width = 1289;
},
{
background = {
anchors = (
{
name = bottom;
pos = (591,0);
},
{
name = ogonek;
pos = (1199,0);
},
{
name = top;
pos = (946,1732);
},
{
name = topleft;
pos = (503,1443);
}
);
shapes = (
{
closed = 1;
nodes = (
(865,1264,l),
(909,1264,l),
(937,1444,l),
(787,1444,l),
(-111,0,l),
(81,0,l)
);
},
{
closed = 1;
nodes = (
(1297,0,l),
(1005,1444,l),
(897,1444,l),
(870,1270,l),
(1115,0,l)
);
},
{
closed = 1;
nodes = (
(246,356,l),
(1090,356,l),
(1054,516,l),
(348,516,l)
);
},
{
closed = 1;
nodes = (
(664,1592,l),
(1135,1592,l),
(1165,1732,l),
(694,1732,l)
);
}
);
};
layerId = "0655DA90-B56F-496E-8077-C2A69D96FC98";
shapes = (
{
alignment = -1;
ref = A;
},
{
alignment = -1;
pos = (438,504);
ref = macroncomb;
}
);
width = 1508;
},
{
background = {
anchors = (
{
name = bottom;
pos = (627,0);
},
{
name = ogonek;
pos = (1223,0);
},
{
name = top;
pos = (1063,1831);
},
{
name = topleft;
pos = (-13,1443);
}
);
shapes = (
{
closed = 1;
nodes = (
(858,969,l),
(911,969,l),
(967,1443,l),
(734,1443,l),
(-117,0,l),
(352,0,l)
);
},
{
closed = 1;
nodes = (
(1370,0,l),
(1159,1443,l),
(929,1443,l),
(874,975,l),
(950,0,l)
);
},
{
closed = 1;
nodes = (
(276,196,l),
(1057,196,l),
(1009,466,l),
(450,466,l)
);
},
{
closed = 1;
nodes = (
(690,1616,l),
(1343,1616,l),
(1395,1856,l),
(742,1856,l)
);
}
);
};
layerId = "F66262BA-5A1D-44F4-BFD7-97C08A9A14E5";
shapes = (
{
alignment = -1;
ref = A;
},
{
alignment = -1;
pos = (448,443);
ref = macroncomb;
}
);
width = 1627;
},
{
associatedMasterId = "F66262BA-5A1D-44F4-BFD7-97C08A9A14E5";
background = {
anchors = (
{
name = bottom;
pos = (627,0);
},
{
name = ogonek;
pos = (1223,0);
},
{
name = top;
pos = (1063,1831);
},
{
name = topleft;
pos = (-13,1443);
}
);
shapes = (
{
closed = 1;
nodes = (
(858,969,l),
(911,969,l),
(967,1443,l),
(734,1443,l),
(-117,0,l),
(352,0,l)
);
},
{
closed = 1;
nodes = (
(1370,0,l),
(1159,1443,l),
(929,1443,l),
(874,975,l),
(950,0,l)
);
},
{
closed = 1;
nodes = (
(276,196,l),
(1057,196,l),
(1009,466,l),
(450,466,l)
);
},
{
closed = 1;
nodes = (
(690,1616,l),
(1343,1616,l),
(1395,1856,l),
(742,1856,l)
);
}
);
};
layerId = "201CACAD-FD10-4A5E-B72C-364E49574E01";
name = "11 Dec 25 at 11:53";
shapes = (
{
alignment = -1;
ref = A;
},
{
alignment = -1;
pos = (448,443);
ref = macroncomb;
}
);
width = 1627;
},
{
associatedMasterId = "0655DA90-B56F-496E-8077-C2A69D96FC98";
background = {
anchors = (
{
name = bottom;
pos = (591,0);
},
{
name = ogonek;
pos = (1199,0);
},
{
name = top;
pos = (946,1732);
},
{
name = topleft;
pos = (503,1443);
}
);
shapes = (
{
closed = 1;
nodes = (
(865,1264,l),
(909,1264,l),
(937,1444,l),
(787,1444,l),
(-111,0,l),
(81,0,l)
);
},
{
closed = 1;
nodes = (
(1297,0,l),
(1005,1444,l),
(897,1444,l),
(870,1270,l),
(1115,0,l)
);
},
{
closed = 1;
nodes = (
(246,356,l),
(1090,356,l),
(1054,516,l),
(348,516,l)
);
},
{
closed = 1;
nodes = (
(664,1592,l),
(1135,1592,l),
(1165,1732,l),
(694,1732,l)
);
}
);
};
layerId = "7FA93D65-D7BE-4F0C-8153-7CDF4D3060D8";
name = "11 Dec 25 at 11:53";
shapes = (
{
alignment = -1;
ref = A;
},
{
alignment = -1;
pos = (438,504);
ref = macroncomb;
}
);
width = 1508;
},
{
associatedMasterId = "0CA926B8-BF71-483F-A045-F233B587689B";
background = {
anchors = (
{
name = bottom;
pos = (784,0);
},
{
name = ogonek;
pos = (1340,0);
},
{
name = top;
pos = (784,1831);
},
{
name = topleft;
pos = (208,1443);
}
);
shapes = (
{
closed = 1;
nodes = (
(775,959,l),
(828,959,l),
(818,1443,l),
(585,1443,l),
(0,0,l),
(429,0,l)
);
},
{
closed = 1;
nodes = (
(1567,0,l),
(980,1443,l),
(780,1443,l),
(790,965,l),
(1137,0,l)
);
},
{
closed = 1;
nodes = (
(392,216,l),
(1173,216,l),
(1061,506,l),
(502,506,l)
);
},
{
closed = 1;
nodes = (
(457,1616,l),
(1110,1616,l),
(1110,1856,l),
(457,1856,l)
);
}
);
};
layerId = "1A1AB120-1415-4EF7-A1DA-293BC0AE4B04";
name = "11 Dec 25 at 11:53";
shapes = (
{
ref = A;
},
{
pos = (347,443);
ref = macroncomb;
}
);
width = 1567;
},
{
associatedMasterId = "6871CC57-2503-4E31-BAA0-540E82C15514";
background = {
anchors = (
{
name = bottom;
pos = (535,0);
},
{
name = ogonek;
pos = (1150,0);
},
{
name = top;
pos = (870,1666);
},
{
name = topleft;
pos = (543,1443);
}
);
shapes = (
{
closed = 1;
nodes = (
(822,1354,l),
(831,1354,l),
(850,1443,l),
(821,1443,l),
(-111,0,l),
(-54,0,l)
);
},
{
closed = 1;
nodes = (
(1178,0,l),
(856,1443,l),
(839,1443,l),
(825,1356,l),
(1129,0,l)
);
},
{
closed = 1;
nodes = (
(203,436,l),
(1052,436,l),
(1042,484,l),
(232,484,l)
);
},
{
closed = 1;
nodes = (
(675,1634,l),
(1056,1634,l),
(1066,1682,l),
(685,1682,l)
);
}
);
};
layerId = "006D650C-231A-44C6-9AEE-AD1614BAA985";
name = "11 Dec 25 at 11:53";
shapes = (
{
ref = A;
},
{
pos = (434,503);
ref = macroncomb;
}
);
width = 1289;
},
{
associatedMasterId = "0A7ECE6A-DF67-46D8-8F43-1681A4AD540C";
background = {
anchors = (
{
name = bottom;
pos = (702,0);
},
{
name = ogonek;
pos = (1310,0);
},
{
name = top;
pos = (702,1732);
},
{
name = topleft;
pos = (308,1443);
}
);
shapes = (
{
closed = 1;
nodes = (
(698,1264,l),
(742,1264,l),
(742,1444,l),
(592,1444,l),
(0,0,l),
(192,0,l)
);
},
{
closed = 1;
nodes = (
(1408,0,l),
(810,1444,l),
(702,1444,l),
(702,1270,l),
(1216,0,l)
);
},
{
closed = 1;
nodes = (
(282,356,l),
(1126,356,l),
(1056,516,l),
(350,516,l)
);
},
{
closed = 1;
nodes = (
(465,1592,l),
(936,1592,l),
(936,1732,l),
(465,1732,l)
);
}
);
};
layerId = "4107ABAF-1D45-4730-9958-654AF7CAAB3C";
name = "11 Dec 25 at 11:53";
shapes = (
{
ref = A;
},
{
pos = (355,504);
ref = macroncomb;
}
);
width = 1408;
},
{
associatedMasterId = "B1815A28-7A99-448B-912A-F8CD41C6863A";
background = {
anchors = (
{
name = bottom;
pos = (646,0);
},
{
name = ogonek;
pos = (1261,0);
},
{
name = top;
pos = (635,1666);
},
{
name = topleft;
pos = (348,1443);
}
);
shapes = (
{
closed = 1;
nodes = (
(642,1354,l),
(655,1354,l),
(655,1443,l),
(626,1443,l),
(0,0,l),
(53,0,l)
);
},
{
closed = 1;
nodes = (
(1289,0,l),
(661,1443,l),
(644,1443,l),
(644,1356,l),
(1236,0,l)
);
},
{
closed = 1;
nodes = (
(222,436,l),
(1071,436,l),
(1050,484,l),
(240,484,l)
);
},
{
closed = 1;
nodes = (
(445,1634,l),
(826,1634,l),
(826,1682,l),
(445,1682,l)
);
}
);
};
layerId = "ED03535D-9D2E-4890-811E-DAEE9B807814";
name = "11 Dec 25 at 11:53";
shapes = (
{
ref = A;
},
{
pos = (335,503);
ref = macroncomb;
}
);
width = 1289;
}
);
unicode = 256;
},
{
color = 10;
glyphname = Aogonek;
kernLeft = A;
kernRight = A;
lastChange = "2025-12-11 10:53:19 +0000";
layers = (
{
background = {
anchors = (
{
name = bottom;
pos = (646,0);
},
{
name = ogonek;
pos = (1261,0);
},
{
name = top;
pos = (645,1443);
},
{
name = topleft;
pos = (348,1443);
}
);
shapes = (
{
closed = 1;
nodes = (
(642,1354,l),
(655,1354,l),
(655,1443,l),
(626,1443,l),
(0,0,l),
(53,0,l)
);
},
{
closed = 1;
nodes = (
(1289,0,l),
(661,1443,l),
(644,1443,l),
(644,1356,l),
(1236,0,l)
);
},
{
closed = 1;
nodes = (
(222,436,l),
(1071,436,l),
(1050,484,l),
(240,484,l)
);
},
{
closed = 1;
nodes = (
(1343,-269,l),
(1251,-269,o),
(1194,-227,o),
(1195,-159,cs),
(1196,-106,o),
(1233,-44,o),
(1290,0,c),
(1240,14,l),
(1180,-29,o),
(1142,-95,o),
(1142,-158,cs),
(1142,-256,o),
(1220,-318,o),
(1343,-318,c)
);
}
);
};
layerId = "B1815A28-7A99-448B-912A-F8CD41C6863A";
shapes = (
{
ref = A;
},
{
pos = (1032,0);
ref = ogonekcomb;
}
);
width = 1289;
},
{
background = {
anchors = (
{
name = bottom;
pos = (702,0);
},
{
name = ogonek;
pos = (1310,0);
},
{
name = top;
pos = (702,1444);
},
{
name = topleft;
pos = (308,1443);
}
);
shapes = (
{
closed = 1;
nodes = (
(698,1264,l),
(742,1264,l),
(742,1444,l),
(592,1444,l),
(0,0,l),
(192,0,l)
);
},
{
closed = 1;
nodes = (
(1408,0,l),
(810,1444,l),
(702,1444,l),
(702,1270,l),
(1216,0,l)
);
},
{
closed = 1;
nodes = (
(282,356,l),
(1126,356,l),
(1056,516,l),
(350,516,l)
);
},
{
closed = 1;
nodes = (
(1450,-242,l),
(1333,-242,o),
(1260,-206,o),
(1260,-148,c),
(1260,-96,o),
(1311,-39,o),
(1391,0,c),
(1238,0,l),
(1167,-35,o),
(1123,-103,o),
(1123,-177,cs),
(1123,-303,o),
(1249,-382,o),
(1450,-382,c)
);
}
);
};
layerId = "0A7ECE6A-DF67-46D8-8F43-1681A4AD540C";
shapes = (
{
ref = A;
},
{
pos = (1013,0);
ref = ogonekcomb;
}
);
width = 1408;
},
{
background = {
anchors = (
{
name = bottom;
pos = (784,0);
},
{
name = ogonek;
pos = (1340,0);
},
{
name = top;
pos = (784,1443);
},
{
name = topleft;
pos = (208,1443);
}
);
shapes = (
{
closed = 1;
nodes = (
(775,959,l),
(828,959,l),
(818,1443,l),
(585,1443,l),
(0,0,l),
(429,0,l)
);
},
{
closed = 1;
nodes = (
(1567,0,l),
(980,1443,l),
(780,1443,l),
(790,965,l),
(1137,0,l)
);
},
{
closed = 1;
nodes = (
(392,216,l),
(1173,216,l),
(1061,506,l),
(502,506,l)
);
},
{
closed = 1;
nodes = (
(1564,-205,l),
(1447,-205,o),
(1365,-173,o),
(1365,-128,c),
(1365,-87,o),
(1415,-35,o),
(1486,0,c),
(1223,0,l),
(1144,-31,o),
(1088,-104,o),
(1088,-177,cs),
(1088,-317,o),
(1285,-415,o),
(1564,-415,c)
);
}
);
};
layerId = "0CA926B8-BF71-483F-A045-F233B587689B";
shapes = (
{
ref = A;
},
{
pos = (978,0);
ref = ogonekcomb;
}
);
width = 1567;
},
{
background = {
anchors = (
{
name = bottom;
pos = (535,0);
},
{
name = ogonek;
pos = (1150,0);
},
{
name = top;
pos = (840,1443);
},
{
name = topleft;
pos = (543,1443);
}
);
shapes = (
{
closed = 1;
nodes = (
(822,1354,l),
(831,1354,l),
(850,1443,l),
(821,1443,l),
(-111,0,l),
(-54,0,l)
);
},
{
closed = 1;
nodes = (
(1178,0,l),
(856,1443,l),
(839,1443,l),
(825,1356,l),
(1129,0,l)
);
},
{
closed = 1;
nodes = (
(203,436,l),
(1052,436,l),
(1042,484,l),
(232,484,l)
);
},
{
closed = 1;
nodes = (
(1232,-269,l),
(1140,-269,o),
(1083,-227,o),
(1084,-159,cs),
(1085,-106,o),
(1122,-44,o),
(1179,0,c),
(1129,14,l),
(1069,-29,o),
(1031,-95,o),
(1031,-158,cs),
(1031,-256,o),
(1109,-318,o),
(1232,-318,c)
);
}
);
};
layerId = "6871CC57-2503-4E31-BAA0-540E82C15514";
shapes = (
{
ref = A;
},
{
pos = (1060,0);
ref = ogonekcomb;
}
);
width = 1289;
},
{
background = {
anchors = (
{
name = bottom;
pos = (591,0);
},
{
name = ogonek;
pos = (1199,0);
},
{
name = top;
pos = (897,1444);
},
{
name = topleft;
pos = (503,1443);
}
);
shapes = (
{
closed = 1;
nodes = (
(865,1264,l),
(909,1264,l),
(937,1444,l),
(787,1444,l),
(-111,0,l),
(81,0,l)
);
},
{
closed = 1;
nodes = (
(1297,0,l),
(1005,1444,l),
(897,1444,l),
(870,1270,l),
(1115,0,l)
);
},
{
closed = 1;
nodes = (
(246,356,l),
(1090,356,l),
(1054,516,l),
(348,516,l)
);
},
{
closed = 1;
nodes = (
(1354,-242,l),
(1237,-242,o),
(1164,-206,o),
(1164,-148,c),
(1164,-96,o),
(1215,-39,o),
(1295,0,c),
(1142,0,l),
(1071,-35,o),
(1027,-103,o),
(1027,-177,cs),
(1027,-303,o),
(1153,-382,o),
(1354,-382,c)
);
}
);
};
layerId = "0655DA90-B56F-496E-8077-C2A69D96FC98";
shapes = (
{
alignment = -1;
ref = A;
},
{
alignment = -1;
pos = (1066,0);
ref = ogonekcomb;
}
);
width = 1508;
},
{
background = {
anchors = (
{
name = bottom;
pos = (627,0);
},
{
name = ogonek;
pos = (1223,0);
},
{
name = top;
pos = (933,1443);
},
{
name = topleft;
pos = (-13,1443);
}
);
shapes = (
{
closed = 1;
nodes = (
(858,969,l),
(911,969,l),
(967,1443,l),
(734,1443,l),
(-117,0,l),
(352,0,l)
);
},
{
closed = 1;
nodes = (
(1370,0,l),
(1159,1443,l),
(929,1443,l),
(874,975,l),
(950,0,l)
);
},
{
closed = 1;
nodes = (
(276,196,l),
(1057,196,l),
(1009,466,l),
(450,466,l)
);
},
{
closed = 1;
nodes = (
(1487,-205,l),
(1370,-205,o),
(1288,-173,o),
(1288,-128,c),
(1288,-87,o),
(1338,-35,o),
(1409,0,c),
(1146,0,l),
(1067,-31,o),
(1011,-104,o),
(1011,-177,cs),
(1011,-317,o),
(1208,-415,o),
(1487,-415,c)
);
}
);
};
layerId = "F66262BA-5A1D-44F4-BFD7-97C08A9A14E5";
shapes = (
{
alignment = -1;
ref = A;
},
{
alignment = -1;
pos = (1052,0);
ref = ogonekcomb;
}
);
width = 1627;
},
{
associatedMasterId = "F66262BA-5A1D-44F4-BFD7-97C08A9A14E5";
background = {
anchors = (
{
name = bottom;
pos = (627,0);
},
{
name = ogonek;
pos = (1223,0);
},
{
name = top;
pos = (933,1443);
},
{
name = topleft;
pos = (-13,1443);
}
);
shapes = (
{
closed = 1;
nodes = (
(858,969,l),
(911,969,l),
(967,1443,l),
(734,1443,l),
(-117,0,l),
(352,0,l)
);
},
{
closed = 1;
nodes = (
(1370,0,l),
(1159,1443,l),
(929,1443,l),
(874,975,l),
(950,0,l)
);
},
{
closed = 1;
nodes = (
(276,196,l),
(1057,196,l),
(1009,466,l),
(450,466,l)
);
},
{
closed = 1;
nodes = (
(1487,-205,l),
(1370,-205,o),
(1288,-173,o),
(1288,-128,c),
(1288,-87,o),
(1338,-35,o),
(1409,0,c),
(1146,0,l),
(1067,-31,o),
(1011,-104,o),
(1011,-177,cs),
(1011,-317,o),
(1208,-415,o),
(1487,-415,c)
);
}
);
};
layerId = "20831D08-BEAC-4D58-9369-DF39D42C4EE2";
name = "11 Dec 25 at 11:53";
shapes = (
{
alignment = -1;
ref = A;
},
{
alignment = -1;
pos = (1052,0);
ref = ogonekcomb;
}
);
width = 1627;
},
{
associatedMasterId = "0655DA90-B56F-496E-8077-C2A69D96FC98";
background = {
anchors = (
{
name = bottom;
pos = (591,0);
},
{
name = ogonek;
pos = (1199,0);
},
{
name = top;
pos = (897,1444);
},
{
name = topleft;
pos = (503,1443);
}
);
shapes = (
{
closed = 1;
nodes = (
(865,1264,l),
(909,1264,l),
(937,1444,l),
(787,1444,l),
(-111,0,l),
(81,0,l)
);
},
{
closed = 1;
nodes = (
(1297,0,l),
(1005,1444,l),
(897,1444,l),
(870,1270,l),
(1115,0,l)
);
},
{
closed = 1;
nodes = (
(246,356,l),
(1090,356,l),
(1054,516,l),
(348,516,l)
);
},
{
closed = 1;
nodes = (
(1354,-242,l),
(1237,-242,o),
(1164,-206,o),
(1164,-148,c),
(1164,-96,o),
(1215,-39,o),
(1295,0,c),
(1142,0,l),
(1071,-35,o),
(1027,-103,o),
(1027,-177,cs),
(1027,-303,o),
(1153,-382,o),
(1354,-382,c)
);
}
);
};
layerId = "374E7FE2-F190-4B76-AC2F-8C4731639ECB";
name = "11 Dec 25 at 11:53";
shapes = (
{
alignment = -1;
ref = A;
},
{
alignment = -1;
pos = (1066,0);
ref = ogonekcomb;
}
);
width = 1508;
},
{
associatedMasterId = "0CA926B8-BF71-483F-A045-F233B587689B";
background = {
anchors = (
{
name = bottom;
pos = (784,0);
},
{
name = ogonek;
pos = (1340,0);
},
{
name = top;
pos = (784,1443);
},
{
name = topleft;
pos = (208,1443);
}
);
shapes = (
{
closed = 1;
nodes = (
(775,959,l),
(828,959,l),
(818,1443,l),
(585,1443,l),
(0,0,l),
(429,0,l)
);
},
{
closed = 1;
nodes = (
(1567,0,l),
(980,1443,l),
(780,1443,l),
(790,965,l),
(1137,0,l)
);
},
{
closed = 1;
nodes = (
(392,216,l),
(1173,216,l),
(1061,506,l),
(502,506,l)
);
},
{
closed = 1;
nodes = (
(1564,-205,l),
(1447,-205,o),
(1365,-173,o),
(1365,-128,c),
(1365,-87,o),
(1415,-35,o),
(1486,0,c),
(1223,0,l),
(1144,-31,o),
(1088,-104,o),
(1088,-177,cs),
(1088,-317,o),
(1285,-415,o),
(1564,-415,c)
);
}
);
};
layerId = "46253264-52C8-4261-9037-D583633848F3";
name = "11 Dec 25 at 11:53";
shapes = (
{
ref = A;
},
{
pos = (978,0);
ref = ogonekcomb;
}
);
width = 1567;
},
{
associatedMasterId = "6871CC57-2503-4E31-BAA0-540E82C15514";
background = {
anchors = (
{
name = bottom;
pos = (535,0);
},
{
name = ogonek;
pos = (1150,0);
},
{
name = top;
pos = (840,1443);
},
{
name = topleft;
pos = (543,1443);
}
);
shapes = (
{
closed = 1;
nodes = (
(822,1354,l),
(831,1354,l),
(850,1443,l),
(821,1443,l),
(-111,0,l),
(-54,0,l)
);
},
{
closed = 1;
nodes = (
(1178,0,l),
(856,1443,l),
(839,1443,l),
(825,1356,l),
(1129,0,l)
);
},
{
closed = 1;
nodes = (
(203,436,l),
(1052,436,l),
(1042,484,l),
(232,484,l)
);
},
{
closed = 1;
nodes = (
(1232,-269,l),
(1140,-269,o),
(1083,-227,o),
(1084,-159,cs),
(1085,-106,o),
(1122,-44,o),
(1179,0,c),
(1129,14,l),
(1069,-29,o),
(1031,-95,o),
(1031,-158,cs),
(1031,-256,o),
(1109,-318,o),
(1232,-318,c)
);
}
);
};
layerId = "9BEB66E4-12BC-469B-BE41-514FD0A70B52";
name = "11 Dec 25 at 11:53";
shapes = (
{
ref = A;
},
{
pos = (1060,0);
ref = ogonekcomb;
}
);
width = 1289;
},
{
associatedMasterId = "0A7ECE6A-DF67-46D8-8F43-1681A4AD540C";
background = {
anchors = (
{
name = bottom;
pos = (702,0);
},
{
name = ogonek;
pos = (1310,0);
},
{
name = top;
pos = (702,1444);
},
{
name = topleft;
pos = (308,1443);
}
);
shapes = (
{
closed = 1;
nodes = (
(698,1264,l),
(742,1264,l),
(742,1444,l),
(592,1444,l),
(0,0,l),
(192,0,l)
);
},
{
closed = 1;
nodes = (
(1408,0,l),
(810,1444,l),
(702,1444,l),
(702,1270,l),
(1216,0,l)
);
},
{
closed = 1;
nodes = (
(282,356,l),
(1126,356,l),
(1056,516,l),
(350,516,l)
);
},
{
closed = 1;
nodes = (
(1450,-242,l),
(1333,-242,o),
(1260,-206,o),
(1260,-148,c),
(1260,-96,o),
(1311,-39,o),
(1391,0,c),
(1238,0,l),
(1167,-35,o),
(1123,-103,o),
(1123,-177,cs),
(1123,-303,o),
(1249,-382,o),
(1450,-382,c)
);
}
);
};
layerId = "8688D2C0-0DA0-40E7-8ADC-A0BEF22A00AB";
name = "11 Dec 25 at 11:53";
shapes = (
{
ref = A;
},
{
pos = (1013,0);
ref = ogonekcomb;
}
);
width = 1408;
},
{
associatedMasterId = "B1815A28-7A99-448B-912A-F8CD41C6863A";
background = {
anchors = (
{
name = bottom;
pos = (646,0);
},
{
name = ogonek;
pos = (1261,0);
},
{
name = top;
pos = (645,1443);
},
{
name = topleft;
pos = (348,1443);
}
);
shapes = (
{
closed = 1;
nodes = (
(642,1354,l),
(655,1354,l),
(655,1443,l),
(626,1443,l),
(0,0,l),
(53,0,l)
);
},
{
closed = 1;
nodes = (
(1289,0,l),
(661,1443,l),
(644,1443,l),
(644,1356,l),
(1236,0,l)
);
},
{
closed = 1;
nodes = (
(222,436,l),
(1071,436,l),
(1050,484,l),
(240,484,l)
);
},
{
closed = 1;
nodes = (
(1343,-269,l),
(1251,-269,o),
(1194,-227,o),
(1195,-159,cs),
(1196,-106,o),
(1233,-44,o),
(1290,0,c),
(1240,14,l),
(1180,-29,o),
(1142,-95,o),
(1142,-158,cs),
(1142,-256,o),
(1220,-318,o),
(1343,-318,c)
);
}
);
};
layerId = "42D528EA-28E5-4B50-B410-AF5346E733B6";
name = "11 Dec 25 at 11:53";
shapes = (
{
ref = A;
},
{
pos = (1032,0);
ref = ogonekcomb;
}
);
width = 1289;
}
);
unicode = 260;
},
{
color = 10;
glyphname = Aring;
kernLeft = A;
kernRight = A;
lastChange = "2025-12-11 10:53:19 +0000";
layers = (
{
background = {
anchors = (
{
name = bottom;
pos = (646,0);
},
{
name = ogonek;
pos = (1261,0);
},
{
name = top;
pos = (645,1739);
},
{
name = topleft;
pos = (348,1443);
}
);
shapes = (
{
closed = 1;
nodes = (
(642,1354,l),
(655,1354,l),
(655,1443,l),
(626,1443,l),
(0,0,l),
(53,0,l)
);
},
{
closed = 1;
nodes = (
(1289,0,l),
(661,1443,l),
(644,1443,l),
(644,1356,l),
(1236,0,l)
);
},
{
closed = 1;
nodes = (
(222,436,l),
(1071,436,l),
(1050,484,l),
(240,484,l)
);
},
{
closed = 1;
nodes = (
(722,1540,o),
(776,1592,o),
(776,1665,cs),
(776,1739,o),
(722,1791,o),
(644,1791,cs),
(565,1791,o),
(510,1739,o),
(510,1665,cs),
(510,1592,o),
(565,1540,o),
(644,1540,cs)
);
},
{
closed = 1;
nodes = (
(594,1588,o),
(558,1620,o),
(558,1665,cs),
(558,1711,o),
(594,1743,o),
(644,1743,cs),
(693,1743,o),
(728,1711,o),
(728,1665,cs),
(728,1620,o),
(693,1588,o),
(644,1588,cs)
);
}
);
};
layerId = "B1815A28-7A99-448B-912A-F8CD41C6863A";
shapes = (
{
ref = A;
},
{
pos = (400,502);
ref = ringcomb;
}
);
width = 1289;
},
{
background = {
anchors = (
{
name = bottom;
pos = (702,0);
},
{
name = ogonek;
pos = (1310,0);
},
{
name = top;
pos = (702,1770);
},
{
name = topleft;
pos = (308,1443);
}
);
shapes = (
{
closed = 1;
nodes = (
(698,1264,l),
(742,1264,l),
(742,1444,l),
(592,1444,l),
(0,0,l),
(192,0,l)
);
},
{
closed = 1;
nodes = (
(1408,0,l),
(810,1444,l),
(702,1444,l),
(702,1270,l),
(1216,0,l)
);
},
{
closed = 1;
nodes = (
(282,356,l),
(1126,356,l),
(1056,516,l),
(350,516,l)
);
},
{
closed = 1;
nodes = (
(805,1521,o),
(877,1587,o),
(877,1680,cs),
(877,1771,o),
(805,1834,o),
(702,1834,cs),
(598,1834,o),
(525,1771,o),
(525,1680,cs),
(525,1587,o),
(598,1521,o),
(702,1521,cs)
);
},
{
closed = 1;
nodes = (
(670,1622,o),
(647,1646,o),
(647,1679,cs),
(647,1711,o),
(670,1734,o),
(702,1734,cs),
(734,1734,o),
(756,1711,o),
(756,1679,cs),
(756,1646,o),
(734,1622,o),
(702,1622,cs)
);
}
);
};
layerId = "0A7ECE6A-DF67-46D8-8F43-1681A4AD540C";
shapes = (
{
ref = A;
},
{
pos = (415,504);
ref = ringcomb;
}
);
width = 1408;
},
{
background = {
anchors = (
{
name = bottom;
pos = (784,0);
},
{
name = ogonek;
pos = (1340,0);
},
{
name = top;
pos = (784,1917);
},
{
name = topleft;
pos = (208,1443);
}
);
shapes = (
{
closed = 1;
nodes = (
(775,959,l),
(828,959,l),
(818,1443,l),
(585,1443,l),
(0,0,l),
(429,0,l)
);
},
{
closed = 1;
nodes = (
(1567,0,l),
(980,1443,l),
(780,1443,l),
(790,965,l),
(1137,0,l)
);
},
{
closed = 1;
nodes = (
(392,216,l),
(1173,216,l),
(1061,506,l),
(502,506,l)
);
},
{
closed = 1;
nodes = (
(936,1525,o),
(1044,1617,o),
(1044,1749,cs),
(1044,1880,o),
(936,1972,o),
(783,1972,cs),
(629,1972,o),
(521,1880,o),
(521,1749,cs),
(521,1617,o),
(629,1525,o),
(783,1525,cs)
);
},
{
closed = 1;
nodes = (
(741,1670,o),
(711,1703,o),
(711,1749,cs),
(711,1794,o),
(741,1826,o),
(783,1826,cs),
(825,1826,o),
(855,1794,o),
(855,1749,cs),
(855,1703,o),
(825,1670,o),
(783,1670,cs)
);
}
);
};
layerId = "0CA926B8-BF71-483F-A045-F233B587689B";
shapes = (
{
ref = A;
},
{
pos = (411,443);
ref = ringcomb;
}
);
width = 1567;
},
{
background = {
anchors = (
{
name = bottom;
pos = (535,0);
},
{
name = ogonek;
pos = (1150,0);
},
{
name = top;
pos = (920,1739);
},
{
name = topleft;
pos = (543,1443);
}
);
shapes = (
{
closed = 1;
nodes = (
(822,1354,l),
(831,1354,l),
(850,1443,l),
(821,1443,l),
(-111,0,l),
(-54,0,l)
);
},
{
closed = 1;
nodes = (
(1178,0,l),
(856,1443,l),
(839,1443,l),
(825,1356,l),
(1129,0,l)
);
},
{
closed = 1;
nodes = (
(203,436,l),
(1052,436,l),
(1042,484,l),
(232,484,l)
);
},
{
closed = 1;
nodes = (
(945,1540,o),
(1008,1592,o),
(1021,1665,cs),
(1034,1739,o),
(989,1791,o),
(911,1791,cs),
(832,1791,o),
(768,1739,o),
(755,1665,cs),
(742,1592,o),
(788,1540,o),
(867,1540,cs)
);
},
{
closed = 1;
nodes = (
(825,1588,o),
(795,1620,o),
(803,1665,cs),
(811,1711,o),
(853,1743,o),
(903,1743,cs),
(952,1743,o),
(981,1711,o),
(973,1665,cs),
(965,1620,o),
(924,1588,o),
(875,1588,cs)
);
}
);
};
layerId = "6871CC57-2503-4E31-BAA0-540E82C15514";
shapes = (
{
ref = A;
},
{
pos = (507,502);
ref = ringcomb;
}
);
width = 1289;
},
{
background = {
anchors = (
{
name = bottom;
pos = (591,0);
},
{
name = ogonek;
pos = (1199,0);
},
{
name = top;
pos = (936,1770);
},
{
name = topleft;
pos = (503,1443);
}
);
shapes = (
{
closed = 1;
nodes = (
(865,1264,l),
(909,1264,l),
(937,1444,l),
(787,1444,l),
(-111,0,l),
(81,0,l)
);
},
{
closed = 1;
nodes = (
(1297,0,l),
(1005,1444,l),
(897,1444,l),
(870,1270,l),
(1115,0,l)
);
},
{
closed = 1;
nodes = (
(246,356,l),
(1090,356,l),
(1054,516,l),
(348,516,l)
);
},
{
closed = 1;
nodes = (
(991,1521,o),
(1075,1587,o),
(1091,1680,cs),
(1107,1771,o),
(1047,1834,o),
(944,1834,cs),
(840,1834,o),
(755,1771,o),
(739,1680,cs),
(723,1587,o),
(784,1521,o),
(888,1521,cs)
);
},
{
closed = 1;
nodes = (
(874,1622,o),
(855,1646,o),
(861,1679,cs),
(867,1711,o),
(894,1734,o),
(926,1734,cs),
(958,1734,o),
(976,1711,o),
(970,1679,cs),
(964,1646,o),
(938,1622,o),
(906,1622,cs)
);
}
);
};
layerId = "0655DA90-B56F-496E-8077-C2A69D96FC98";
shapes = (
{
alignment = -1;
ref = A;
},
{
alignment = -1;
pos = (494,504);
ref = ringcomb;
}
);
width = 1508;
},
{
background = {
anchors = (
{
name = bottom;
pos = (627,0);
},
{
name = ogonek;
pos = (1223,0);
},
{
name = top;
pos = (1083,1917);
},
{
name = topleft;
pos = (-13,1443);
}
);
shapes = (
{
closed = 1;
nodes = (
(858,969,l),
(911,969,l),
(967,1443,l),
(734,1443,l),
(-117,0,l),
(352,0,l)
);
},
{
closed = 1;
nodes = (
(1370,0,l),
(1159,1443,l),
(929,1443,l),
(874,975,l),
(950,0,l)
);
},
{
closed = 1;
nodes = (
(276,196,l),
(1057,196,l),
(1009,466,l),
(450,466,l)
);
},
{
closed = 1;
nodes = (
(1136,1525,o),
(1260,1617,o),
(1283,1749,cs),
(1306,1880,o),
(1214,1972,o),
(1061,1972,cs),
(907,1972,o),
(783,1880,o),
(760,1749,cs),
(737,1617,o),
(829,1525,o),
(983,1525,cs)
);
},
{
closed = 1;
nodes = (
(966,1670,o),
(942,1703,o),
(950,1749,cs),
(958,1794,o),
(994,1826,o),
(1036,1826,cs),
(1078,1826,o),
(1102,1794,o),
(1094,1749,cs),
(1086,1703,o),
(1050,1670,o),
(1008,1670,cs)
);
}
);
};
layerId = "F66262BA-5A1D-44F4-BFD7-97C08A9A14E5";
shapes = (
{
alignment = -1;
ref = A;
},
{
alignment = -1;
pos = (489,443);
ref = ringcomb;
}
);
width = 1627;
},
{
associatedMasterId = "F66262BA-5A1D-44F4-BFD7-97C08A9A14E5";
background = {
anchors = (
{
name = bottom;
pos = (627,0);
},
{
name = ogonek;
pos = (1223,0);
},
{
name = top;
pos = (1083,1917);
},
{
name = topleft;
pos = (-13,1443);
}
);
shapes = (
{
closed = 1;
nodes = (
(858,969,l),
(911,969,l),
(967,1443,l),
(734,1443,l),
(-117,0,l),
(352,0,l)
);
},
{
closed = 1;
nodes = (
(1370,0,l),
(1159,1443,l),
(929,1443,l),
(874,975,l),
(950,0,l)
);
},
{
closed = 1;
nodes = (
(276,196,l),
(1057,196,l),
(1009,466,l),
(450,466,l)
);
},
{
closed = 1;
nodes = (
(1136,1525,o),
(1260,1617,o),
(1283,1749,cs),
(1306,1880,o),
(1214,1972,o),
(1061,1972,cs),
(907,1972,o),
(783,1880,o),
(760,1749,cs),
(737,1617,o),
(829,1525,o),
(983,1525,cs)
);
},
{
closed = 1;
nodes = (
(966,1670,o),
(942,1703,o),
(950,1749,cs),
(958,1794,o),
(994,1826,o),
(1036,1826,cs),
(1078,1826,o),
(1102,1794,o),
(1094,1749,cs),
(1086,1703,o),
(1050,1670,o),
(1008,1670,cs)
);
}
);
};
layerId = "4BDECA5C-EB5E-4E59-8041-5F16F0DF5446";
name = "11 Dec 25 at 11:53";
shapes = (
{
alignment = -1;
ref = A;
},
{
alignment = -1;
pos = (489,443);
ref = ringcomb;
}
);
width = 1627;
},
{
associatedMasterId = "0655DA90-B56F-496E-8077-C2A69D96FC98";
background = {
anchors = (
{
name = bottom;
pos = (591,0);
},
{
name = ogonek;
pos = (1199,0);
},
{
name = top;
pos = (936,1770);
},
{
name = topleft;
pos = (503,1443);
}
);
shapes = (
{
closed = 1;
nodes = (
(865,1264,l),
(909,1264,l),
(937,1444,l),
(787,1444,l),
(-111,0,l),
(81,0,l)
);
},
{
closed = 1;
nodes = (
(1297,0,l),
(1005,1444,l),
(897,1444,l),
(870,1270,l),
(1115,0,l)
);
},
{
closed = 1;
nodes = (
(246,356,l),
(1090,356,l),
(1054,516,l),
(348,516,l)
);
},
{
closed = 1;
nodes = (
(991,1521,o),
(1075,1587,o),
(1091,1680,cs),
(1107,1771,o),
(1047,1834,o),
(944,1834,cs),
(840,1834,o),
(755,1771,o),
(739,1680,cs),
(723,1587,o),
(784,1521,o),
(888,1521,cs)
);
},
{
closed = 1;
nodes = (
(874,1622,o),
(855,1646,o),
(861,1679,cs),
(867,1711,o),
(894,1734,o),
(926,1734,cs),
(958,1734,o),
(976,1711,o),
(970,1679,cs),
(964,1646,o),
(938,1622,o),
(906,1622,cs)
);
}
);
};
layerId = "CF4F6DB9-7C86-454D-A019-C4F832BA3637";
name = "11 Dec 25 at 11:53";
shapes = (
{
alignment = -1;
ref = A;
},
{
alignment = -1;
pos = (494,504);
ref = ringcomb;
}
);
width = 1508;
},
{
associatedMasterId = "0CA926B8-BF71-483F-A045-F233B587689B";
background = {
anchors = (
{
name = bottom;
pos = (784,0);
},
{
name = ogonek;
pos = (1340,0);
},
{
name = top;
pos = (784,1917);
},
{
name = topleft;
pos = (208,1443);
}
);
shapes = (
{
closed = 1;
nodes = (
(775,959,l),
(828,959,l),
(818,1443,l),
(585,1443,l),
(0,0,l),
(429,0,l)
);
},
{
closed = 1;
nodes = (
(1567,0,l),
(980,1443,l),
(780,1443,l),
(790,965,l),
(1137,0,l)
);
},
{
closed = 1;
nodes = (
(392,216,l),
(1173,216,l),
(1061,506,l),
(502,506,l)
);
},
{
closed = 1;
nodes = (
(936,1525,o),
(1044,1617,o),
(1044,1749,cs),
(1044,1880,o),
(936,1972,o),
(783,1972,cs),
(629,1972,o),
(521,1880,o),
(521,1749,cs),
(521,1617,o),
(629,1525,o),
(783,1525,cs)
);
},
{
closed = 1;
nodes = (
(741,1670,o),
(711,1703,o),
(711,1749,cs),
(711,1794,o),
(741,1826,o),
(783,1826,cs),
(825,1826,o),
(855,1794,o),
(855,1749,cs),
(855,1703,o),
(825,1670,o),
(783,1670,cs)
);
}
);
};
layerId = "45A558BD-5B2A-4CBD-AD65-BF63F65E5D7B";
name = "11 Dec 25 at 11:53";
shapes = (
{
ref = A;
},
{
pos = (411,443);
ref = ringcomb;
}
);
width = 1567;
},
{
associatedMasterId = "6871CC57-2503-4E31-BAA0-540E82C15514";
background = {
anchors = (
{
name = bottom;
pos = (535,0);
},
{
name = ogonek;
pos = (1150,0);
},
{
name = top;
pos = (920,1739);
},
{
name = topleft;
pos = (543,1443);
}
);
shapes = (
{
closed = 1;
nodes = (
(822,1354,l),
(831,1354,l),
(850,1443,l),
(821,1443,l),
(-111,0,l),
(-54,0,l)
);
},
{
closed = 1;
nodes = (
(1178,0,l),
(856,1443,l),
(839,1443,l),
(825,1356,l),
(1129,0,l)
);
},
{
closed = 1;
nodes = (
(203,436,l),
(1052,436,l),
(1042,484,l),
(232,484,l)
);
},
{
closed = 1;
nodes = (
(945,1540,o),
(1008,1592,o),
(1021,1665,cs),
(1034,1739,o),
(989,1791,o),
(911,1791,cs),
(832,1791,o),
(768,1739,o),
(755,1665,cs),
(742,1592,o),
(788,1540,o),
(867,1540,cs)
);
},
{
closed = 1;
nodes = (
(825,1588,o),
(795,1620,o),
(803,1665,cs),
(811,1711,o),
(853,1743,o),
(903,1743,cs),
(952,1743,o),
(981,1711,o),
(973,1665,cs),
(965,1620,o),
(924,1588,o),
(875,1588,cs)
);
}
);
};
layerId = "DAF32B5E-772F-4C16-90AB-7D86AC70525F";
name = "11 Dec 25 at 11:53";
shapes = (
{
ref = A;
},
{
pos = (507,502);
ref = ringcomb;
}
);
width = 1289;
},
{
associatedMasterId = "0A7ECE6A-DF67-46D8-8F43-1681A4AD540C";
background = {
anchors = (
{
name = bottom;
pos = (702,0);
},
{
name = ogonek;
pos = (1310,0);
},
{
name = top;
pos = (702,1770);
},
{
name = topleft;
pos = (308,1443);
}
);
shapes = (
{
closed = 1;
nodes = (
(698,1264,l),
(742,1264,l),
(742,1444,l),
(592,1444,l),
(0,0,l),
(192,0,l)
);
},
{
closed = 1;
nodes = (
(1408,0,l),
(810,1444,l),
(702,1444,l),
(702,1270,l),
(1216,0,l)
);
},
{
closed = 1;
nodes = (
(282,356,l),
(1126,356,l),
(1056,516,l),
(350,516,l)
);
},
{
closed = 1;
nodes = (
(805,1521,o),
(877,1587,o),
(877,1680,cs),
(877,1771,o),
(805,1834,o),
(702,1834,cs),
(598,1834,o),
(525,1771,o),
(525,1680,cs),
(525,1587,o),
(598,1521,o),
(702,1521,cs)
);
},
{
closed = 1;
nodes = (
(670,1622,o),
(647,1646,o),
(647,1679,cs),
(647,1711,o),
(670,1734,o),
(702,1734,cs),
(734,1734,o),
(756,1711,o),
(756,1679,cs),
(756,1646,o),
(734,1622,o),
(702,1622,cs)
);
}
);
};
layerId = "972B965E-DDF3-495C-9F19-1FD666D69D8C";
name = "11 Dec 25 at 11:53";
shapes = (
{
ref = A;
},
{
pos = (415,504);
ref = ringcomb;
}
);
width = 1408;
},
{
associatedMasterId = "B1815A28-7A99-448B-912A-F8CD41C6863A";
background = {
anchors = (
{
name = bottom;
pos = (646,0);
},
{
name = ogonek;
pos = (1261,0);
},
{
name = top;
pos = (645,1739);
},
{
name = topleft;
pos = (348,1443);
}
);
shapes = (
{
closed = 1;
nodes = (
(642,1354,l),
(655,1354,l),
(655,1443,l),
(626,1443,l),
(0,0,l),
(53,0,l)
);
},
{
closed = 1;
nodes = (
(1289,0,l),
(661,1443,l),
(644,1443,l),
(644,1356,l),
(1236,0,l)
);
},
{
closed = 1;
nodes = (
(222,436,l),
(1071,436,l),
(1050,484,l),
(240,484,l)
);
},
{
closed = 1;
nodes = (
(722,1540,o),
(776,1592,o),
(776,1665,cs),
(776,1739,o),
(722,1791,o),
(644,1791,cs),
(565,1791,o),
(510,1739,o),
(510,1665,cs),
(510,1592,o),
(565,1540,o),
(644,1540,cs)
);
},
{
closed = 1;
nodes = (
(594,1588,o),
(558,1620,o),
(558,1665,cs),
(558,1711,o),
(594,1743,o),
(644,1743,cs),
(693,1743,o),
(728,1711,o),
(728,1665,cs),
(728,1620,o),
(693,1588,o),
(644,1588,cs)
);
}
);
};
layerId = "DE3C7E73-EA16-46AB-B145-DFD285A8F1F2";
name = "11 Dec 25 at 11:53";
shapes = (
{
ref = A;
},
{
pos = (400,502);
ref = ringcomb;
}
);
width = 1289;
}
);
unicode = 197;
},
{
color = 10;
glyphname = Atilde;
kernLeft = A;
kernRight = A;
lastChange = "2025-12-11 10:53:19 +0000";
layers = (
{
background = {
anchors = (
{
name = bottom;
pos = (646,0);
},
{
name = ogonek;
pos = (1261,0);
},
{
name = top;
pos = (645,1627);
},
{
name = topleft;
pos = (348,1443);
}
);
shapes = (
{
closed = 1;
nodes = (
(642,1354,l),
(655,1354,l),
(655,1443,l),
(626,1443,l),
(0,0,l),
(53,0,l)
);
},
{
closed = 1;
nodes = (
(1289,0,l),
(661,1443,l),
(644,1443,l),
(644,1356,l),
(1236,0,l)
);
},
{
closed = 1;
nodes = (
(222,436,l),
(1071,436,l),
(1050,484,l),
(240,484,l)
);
},
{
closed = 1;
nodes = (
(454,1587,l),
(485,1618,o),
(523,1637,o),
(554,1637,cs),
(612,1637,o),
(663,1575,o),
(728,1575,cs),
(763,1575,o),
(803,1592,o),
(831,1623,c),
(830,1675,l),
(797,1644,o),
(758,1624,o),
(728,1624,cs),
(677,1624,o),
(621,1686,o),
(554,1686,cs),
(526,1686,o),
(487,1669,o),
(454,1639,c)
);
}
);
};
layerId = "B1815A28-7A99-448B-912A-F8CD41C6863A";
shapes = (
{
ref = A;
},
{
pos = (344,403);
ref = tildecomb;
}
);
width = 1289;
},
{
background = {
anchors = (
{
name = bottom;
pos = (702,0);
},
{
name = ogonek;
pos = (1310,0);
},
{
name = top;
pos = (702,1738);
},
{
name = topleft;
pos = (308,1443);
}
);
shapes = (
{
closed = 1;
nodes = (
(698,1264,l),
(742,1264,l),
(742,1444,l),
(592,1444,l),
(0,0,l),
(192,0,l)
);
},
{
closed = 1;
nodes = (
(1408,0,l),
(810,1444,l),
(702,1444,l),
(702,1270,l),
(1216,0,l)
);
},
{
closed = 1;
nodes = (
(282,356,l),
(1126,356,l),
(1056,516,l),
(350,516,l)
);
},
{
closed = 1;
nodes = (
(442,1583,l),
(483,1614,o),
(542,1633,o),
(597,1633,cs),
(669,1633,o),
(732,1579,o),
(813,1579,cs),
(870,1579,o),
(925,1598,o),
(955,1629,c),
(955,1765,l),
(914,1738,o),
(857,1721,o),
(805,1721,cs),
(742,1721,o),
(680,1775,o),
(597,1775,cs),
(546,1775,o),
(487,1753,o),
(442,1719,c)
);
}
);
};
layerId = "0A7ECE6A-DF67-46D8-8F43-1681A4AD540C";
shapes = (
{
ref = A;
},
{
pos = (332,504);
ref = tildecomb;
}
);
width = 1408;
},
{
background = {
anchors = (
{
name = bottom;
pos = (784,0);
},
{
name = ogonek;
pos = (1340,0);
},
{
name = top;
pos = (784,1869);
},
{
name = topleft;
pos = (208,1443);
}
);
shapes = (
{
closed = 1;
nodes = (
(775,959,l),
(828,959,l),
(818,1443,l),
(585,1443,l),
(0,0,l),
(429,0,l)
);
},
{
closed = 1;
nodes = (
(1567,0,l),
(980,1443,l),
(780,1443,l),
(790,965,l),
(1137,0,l)
);
},
{
closed = 1;
nodes = (
(392,216,l),
(1173,216,l),
(1061,506,l),
(502,506,l)
);
},
{
closed = 1;
nodes = (
(414,1614,l),
(492,1659,o),
(579,1687,o),
(638,1687,cs),
(736,1687,o),
(821,1590,o),
(930,1590,cs),
(1032,1590,o),
(1124,1624,o),
(1172,1677,c),
(1172,1897,l),
(1116,1857,o),
(1032,1832,o),
(957,1832,cs),
(872,1832,o),
(777,1929,o),
(665,1929,cs),
(593,1929,o),
(496,1899,o),
(414,1835,c)
);
}
);
};
layerId = "0CA926B8-BF71-483F-A045-F233B587689B";
shapes = (
{
ref = A;
},
{
pos = (304,442);
ref = tildecomb;
}
);
width = 1567;
},
{
background = {
anchors = (
{
name = bottom;
pos = (535,0);
},
{
name = ogonek;
pos = (1150,0);
},
{
name = top;
pos = (880,1627);
},
{
name = topleft;
pos = (543,1443);
}
);
shapes = (
{
closed = 1;
nodes = (
(822,1354,l),
(831,1354,l),
(850,1443,l),
(821,1443,l),
(-111,0,l),
(-54,0,l)
);
},
{
closed = 1;
nodes = (
(1178,0,l),
(856,1443,l),
(839,1443,l),
(825,1356,l),
(1129,0,l)
);
},
{
closed = 1;
nodes = (
(203,436,l),
(1052,436,l),
(1042,484,l),
(232,484,l)
);
},
{
closed = 1;
nodes = (
(661,1587,l),
(704,1617,o),
(752,1637,o),
(782,1637,cs),
(840,1637,o),
(864,1575,o),
(929,1575,cs),
(974,1575,o),
(1022,1590,o),
(1053,1613,c),
(1074,1675,l),
(1028,1644,o),
(979,1624,o),
(950,1624,cs),
(899,1624,o),
(870,1686,o),
(803,1686,cs),
(764,1686,o),
(717,1671,o),
(683,1649,c)
);
}
);
};
layerId = "6871CC57-2503-4E31-BAA0-540E82C15514";
shapes = (
{
ref = A;
},
{
pos = (409,403);
ref = tildecomb;
}
);
width = 1289;
},
{
background = {
anchors = (
{
name = bottom;
pos = (591,0);
},
{
name = ogonek;
pos = (1199,0);
},
{
name = top;
pos = (916,1738);
},
{
name = topleft;
pos = (503,1443);
}
);
shapes = (
{
closed = 1;
nodes = (
(865,1264,l),
(909,1264,l),
(937,1444,l),
(787,1444,l),
(-111,0,l),
(81,0,l)
);
},
{
closed = 1;
nodes = (
(1297,0,l),
(1005,1444,l),
(897,1444,l),
(870,1270,l),
(1115,0,l)
);
},
{
closed = 1;
nodes = (
(246,356,l),
(1090,356,l),
(1054,516,l),
(348,516,l)
);
},
{
closed = 1;
nodes = (
(626,1583,l),
(674,1614,o),
(737,1633,o),
(792,1633,cs),
(864,1633,o),
(915,1579,o),
(996,1579,cs),
(1053,1579,o),
(1112,1598,o),
(1149,1629,c),
(1178,1765,l),
(1131,1738,o),
(1070,1721,o),
(1018,1721,cs),
(955,1721,o),
(905,1775,o),
(822,1775,cs),
(771,1775,o),
(707,1753,o),
(655,1719,c)
);
}
);
};
layerId = "0655DA90-B56F-496E-8077-C2A69D96FC98";
shapes = (
{
alignment = -1;
ref = A;
},
{
alignment = -1;
pos = (402,504);
ref = tildecomb;
}
);
width = 1508;
},
{
background = {
anchors = (
{
name = bottom;
pos = (627,0);
},
{
name = ogonek;
pos = (1223,0);
},
{
name = top;
pos = (993,1869);
},
{
name = topleft;
pos = (-13,1443);
}
);
shapes = (
{
closed = 1;
nodes = (
(858,969,l),
(911,969,l),
(967,1443,l),
(734,1443,l),
(-117,0,l),
(352,0,l)
);
},
{
closed = 1;
nodes = (
(1370,0,l),
(1159,1443,l),
(929,1443,l),
(874,975,l),
(950,0,l)
);
},
{
closed = 1;
nodes = (
(276,196,l),
(1057,196,l),
(1009,466,l),
(450,466,l)
);
},
{
closed = 1;
nodes = (
(582,1614,l),
(670,1659,o),
(763,1687,o),
(822,1687,cs),
(920,1687,o),
(984,1590,o),
(1093,1590,cs),
(1195,1590,o),
(1294,1624,o),
(1353,1677,c),
(1400,1897,l),
(1336,1857,o),
(1246,1832,o),
(1171,1832,cs),
(1086,1832,o),
(1012,1929,o),
(900,1929,cs),
(828,1929,o),
(725,1899,o),
(629,1835,c)
);
}
);
};
layerId = "F66262BA-5A1D-44F4-BFD7-97C08A9A14E5";
shapes = (
{
alignment = -1;
ref = A;
},
{
alignment = -1;
pos = (340,442);
ref = tildecomb;
}
);
width = 1627;
},
{
associatedMasterId = "F66262BA-5A1D-44F4-BFD7-97C08A9A14E5";
background = {
anchors = (
{
name = bottom;
pos = (627,0);
},
{
name = ogonek;
pos = (1223,0);
},
{
name = top;
pos = (993,1869);
},
{
name = topleft;
pos = (-13,1443);
}
);
shapes = (
{
closed = 1;
nodes = (
(858,969,l),
(911,969,l),
(967,1443,l),
(734,1443,l),
(-117,0,l),
(352,0,l)
);
},
{
closed = 1;
nodes = (
(1370,0,l),
(1159,1443,l),
(929,1443,l),
(874,975,l),
(950,0,l)
);
},
{
closed = 1;
nodes = (
(276,196,l),
(1057,196,l),
(1009,466,l),
(450,466,l)
);
},
{
closed = 1;
nodes = (
(582,1614,l),
(670,1659,o),
(763,1687,o),
(822,1687,cs),
(920,1687,o),
(984,1590,o),
(1093,1590,cs),
(1195,1590,o),
(1294,1624,o),
(1353,1677,c),
(1400,1897,l),
(1336,1857,o),
(1246,1832,o),
(1171,1832,cs),
(1086,1832,o),
(1012,1929,o),
(900,1929,cs),
(828,1929,o),
(725,1899,o),
(629,1835,c)
);
}
);
};
layerId = "75CE61FC-5F1C-47F9-91EC-CE2523A99D96";
name = "11 Dec 25 at 11:53";
shapes = (
{
alignment = -1;
ref = A;
},
{
alignment = -1;
pos = (340,442);
ref = tildecomb;
}
);
width = 1627;
},
{
associatedMasterId = "0655DA90-B56F-496E-8077-C2A69D96FC98";
background = {
anchors = (
{
name = bottom;
pos = (591,0);
},
{
name = ogonek;
pos = (1199,0);
},
{
name = top;
pos = (916,1738);
},
{
name = topleft;
pos = (503,1443);
}
);
shapes = (
{
closed = 1;
nodes = (
(865,1264,l),
(909,1264,l),
(937,1444,l),
(787,1444,l),
(-111,0,l),
(81,0,l)
);
},
{
closed = 1;
nodes = (
(1297,0,l),
(1005,1444,l),
(897,1444,l),
(870,1270,l),
(1115,0,l)
);
},
{
closed = 1;
nodes = (
(246,356,l),
(1090,356,l),
(1054,516,l),
(348,516,l)
);
},
{
closed = 1;
nodes = (
(626,1583,l),
(674,1614,o),
(737,1633,o),
(792,1633,cs),
(864,1633,o),
(915,1579,o),
(996,1579,cs),
(1053,1579,o),
(1112,1598,o),
(1149,1629,c),
(1178,1765,l),
(1131,1738,o),
(1070,1721,o),
(1018,1721,cs),
(955,1721,o),
(905,1775,o),
(822,1775,cs),
(771,1775,o),
(707,1753,o),
(655,1719,c)
);
}
);
};
layerId = "846663B2-0BB3-46E6-B2E9-F26C6D3920D3";
name = "11 Dec 25 at 11:53";
shapes = (
{
alignment = -1;
ref = A;
},
{
alignment = -1;
pos = (402,504);
ref = tildecomb;
}
);
width = 1508;
},
{
associatedMasterId = "0CA926B8-BF71-483F-A045-F233B587689B";
background = {
anchors = (
{
name = bottom;
pos = (784,0);
},
{
name = ogonek;
pos = (1340,0);
},
{
name = top;
pos = (784,1869);
},
{
name = topleft;
pos = (208,1443);
}
);
shapes = (
{
closed = 1;
nodes = (
(775,959,l),
(828,959,l),
(818,1443,l),
(585,1443,l),
(0,0,l),
(429,0,l)
);
},
{
closed = 1;
nodes = (
(1567,0,l),
(980,1443,l),
(780,1443,l),
(790,965,l),
(1137,0,l)
);
},
{
closed = 1;
nodes = (
(392,216,l),
(1173,216,l),
(1061,506,l),
(502,506,l)
);
},
{
closed = 1;
nodes = (
(414,1614,l),
(492,1659,o),
(579,1687,o),
(638,1687,cs),
(736,1687,o),
(821,1590,o),
(930,1590,cs),
(1032,1590,o),
(1124,1624,o),
(1172,1677,c),
(1172,1897,l),
(1116,1857,o),
(1032,1832,o),
(957,1832,cs),
(872,1832,o),
(777,1929,o),
(665,1929,cs),
(593,1929,o),
(496,1899,o),
(414,1835,c)
);
}
);
};
layerId = "3EFF22DC-84D0-46CE-BA19-41A96D17AC47";
name = "11 Dec 25 at 11:53";
shapes = (
{
ref = A;
},
{
pos = (304,442);
ref = tildecomb;
}
);
width = 1567;
},
{
associatedMasterId = "6871CC57-2503-4E31-BAA0-540E82C15514";
background = {
anchors = (
{
name = bottom;
pos = (535,0);
},
{
name = ogonek;
pos = (1150,0);
},
{
name = top;
pos = (880,1627);
},
{
name = topleft;
pos = (543,1443);
}
);
shapes = (
{
closed = 1;
nodes = (
(822,1354,l),
(831,1354,l),
(850,1443,l),
(821,1443,l),
(-111,0,l),
(-54,0,l)
);
},
{
closed = 1;
nodes = (
(1178,0,l),
(856,1443,l),
(839,1443,l),
(825,1356,l),
(1129,0,l)
);
},
{
closed = 1;
nodes = (
(203,436,l),
(1052,436,l),
(1042,484,l),
(232,484,l)
);
},
{
closed = 1;
nodes = (
(661,1587,l),
(704,1617,o),
(752,1637,o),
(782,1637,cs),
(840,1637,o),
(864,1575,o),
(929,1575,cs),
(974,1575,o),
(1022,1590,o),
(1053,1613,c),
(1074,1675,l),
(1028,1644,o),
(979,1624,o),
(950,1624,cs),
(899,1624,o),
(870,1686,o),
(803,1686,cs),
(764,1686,o),
(717,1671,o),
(683,1649,c)
);
}
);
};
layerId = "B4209046-2EE0-4CCE-A849-DD7586D849E9";
name = "11 Dec 25 at 11:53";
shapes = (
{
ref = A;
},
{
pos = (409,403);
ref = tildecomb;
}
);
width = 1289;
},
{
associatedMasterId = "0A7ECE6A-DF67-46D8-8F43-1681A4AD540C";
background = {
anchors = (
{
name = bottom;
pos = (702,0);
},
{
name = ogonek;
pos = (1310,0);
},
{
name = top;
pos = (702,1738);
},
{
name = topleft;
pos = (308,1443);
}
);
shapes = (
{
closed = 1;
nodes = (
(698,1264,l),
(742,1264,l),
(742,1444,l),
(592,1444,l),
(0,0,l),
(192,0,l)
);
},
{
closed = 1;
nodes = (
(1408,0,l),
(810,1444,l),
(702,1444,l),
(702,1270,l),
(1216,0,l)
);
},
{
closed = 1;
nodes = (
(282,356,l),
(1126,356,l),
(1056,516,l),
(350,516,l)
);
},
{
closed = 1;
nodes = (
(442,1583,l),
(483,1614,o),
(542,1633,o),
(597,1633,cs),
(669,1633,o),
(732,1579,o),
(813,1579,cs),
(870,1579,o),
(925,1598,o),
(955,1629,c),
(955,1765,l),
(914,1738,o),
(857,1721,o),
(805,1721,cs),
(742,1721,o),
(680,1775,o),
(597,1775,cs),
(546,1775,o),
(487,1753,o),
(442,1719,c)
);
}
);
};
layerId = "735E8E6E-8989-45D1-878B-329E955799F0";
name = "11 Dec 25 at 11:53";
shapes = (
{
ref = A;
},
{
pos = (332,504);
ref = tildecomb;
}
);
width = 1408;
},
{
associatedMasterId = "B1815A28-7A99-448B-912A-F8CD41C6863A";
background = {
anchors = (
{
name = bottom;
pos = (646,0);
},
{
name = ogonek;
pos = (1261,0);
},
{
name = top;
pos = (645,1627);
},
{
name = topleft;
pos = (348,1443);
}
);
shapes = (
{
closed = 1;
nodes = (
(642,1354,l),
(655,1354,l),
(655,1443,l),
(626,1443,l),
(0,0,l),
(53,0,l)
);
},
{
closed = 1;
nodes = (
(1289,0,l),
(661,1443,l),
(644,1443,l),
(644,1356,l),
(1236,0,l)
);
},
{
closed = 1;
nodes = (
(222,436,l),
(1071,436,l),
(1050,484,l),
(240,484,l)
);
},
{
closed = 1;
nodes = (
(454,1587,l),
(485,1618,o),
(523,1637,o),
(554,1637,cs),
(612,1637,o),
(663,1575,o),
(728,1575,cs),
(763,1575,o),
(803,1592,o),
(831,1623,c),
(830,1675,l),
(797,1644,o),
(758,1624,o),
(728,1624,cs),
(677,1624,o),
(621,1686,o),
(554,1686,cs),
(526,1686,o),
(487,1669,o),
(454,1639,c)
);
}
);
};
layerId = "D0548AB0-6F9F-4927-9602-2185FFF96120";
name = "11 Dec 25 at 11:53";
shapes = (
{
ref = A;
},
{
pos = (344,403);
ref = tildecomb;
}
);
width = 1289;
}
);
unicode = 195;
},
{
color = 6;
glyphname = AE;
lastChange = "2025-12-11 10:41:50 +0000";
layers = (
{
anchors = (
{
name = bottom;
pos = (898,0);
},
{
name = top;
pos = (1298,1443);
}
);
layerId = "B1815A28-7A99-448B-912A-F8CD41C6863A";
shapes = (
{
closed = 1;
nodes = (
(717,1395,l),
(915,1395,l),
(915,1443,l),
(686,1443,l),
(0,0,l),
(52,0,l)
);
},
{
closed = 1;
nodes = (
(242,436,l),
(931,436,l),
(931,484,l),
(260,484,l)
);
},
{
closed = 1;
nodes = (
(1776,0,l),
(1776,48,l),
(958,48,l),
(958,716,l),
(1712,716,l),
(1712,764,l),
(958,764,l),
(958,1395,l),
(1776,1395,l),
(1776,1443,l),
(908,1443,l),
(908,0,l)
);
}
);
width = 1816;
},
{
anchors = (
{
name = bottom;
pos = (942,0);
},
{
name = top;
pos = (1305,1443);
}
);
layerId = "0A7ECE6A-DF67-46D8-8F43-1681A4AD540C";
shapes = (
{
closed = 1;
nodes = (
(705,1283,l),
(921,1283,l),
(921,1443,l),
(588,1443,l),
(0,0,l),
(191,0,l)
);
},
{
closed = 1;
nodes = (
(281,356,l),
(934,356,l),
(934,516,l),
(349,516,l)
);
},
{
closed = 1;
nodes = (
(1823,0,l),
(1823,160,l),
(1091,160,l),
(1091,650,l),
(1759,650,l),
(1759,810,l),
(1091,810,l),
(1091,1282,l),
(1823,1282,l),
(1823,1443,l),
(911,1443,l),
(911,0,l)
);
}
);
width = 1863;
},
{
anchors = (
{
name = bottom;
pos = (849,0);
},
{
name = top;
pos = (1485,1443);
}
);
layerId = "0CA926B8-BF71-483F-A045-F233B587689B";
shapes = (
{
closed = 1;
nodes = (
(838,1104,l),
(973,1104,l),
(973,1443,l),
(575,1443,l),
(0,0,l),
(439,0,l)
);
},
{
closed = 1;
nodes = (
(352,236,l),
(975,236,l),
(975,546,l),
(462,546,l)
);
},
{
closed = 1;
nodes = (
(1954,0,l),
(1954,340,l),
(1330,340,l),
(1330,571,l),
(1878,571,l),
(1878,881,l),
(1330,881,l),
(1330,1102,l),
(1930,1102,l),
(1930,1443,l),
(950,1443,l),
(950,0,l)
);
}
);
width = 1994;
},
{
anchors = (
{
name = bottom;
pos = (787,0);
},
{
name = top;
pos = (1493,1443);
}
);
layerId = "6871CC57-2503-4E31-BAA0-540E82C15514";
shapes = (
{
closed = 1;
nodes = (
(906,1395,l),
(1100,1395,l),
(1110,1443,l),
(881,1443,l),
(-111,0,l),
(-55,0,l)
);
},
{
closed = 1;
nodes = (
(223,436,l),
(912,436,l),
(923,484,l),
(252,484,l)
);
},
{
closed = 1;
nodes = (
(1665,0,l),
(1675,48,l),
(857,48,l),
(999,716,l),
(1753,716,l),
(1763,764,l),
(1009,764,l),
(1143,1395,l),
(1961,1395,l),
(1971,1443,l),
(1103,1443,l),
(797,0,l)
);
}
);
width = 1896;
},
{
anchors = (
{
name = bottom;
pos = (831,0);
},
{
name = top;
pos = (1500,1443);
}
);
layerId = "0655DA90-B56F-496E-8077-C2A69D96FC98";
shapes = (
{
closed = 1;
nodes = (
(886,1283,l),
(1082,1283,l),
(1116,1443,l),
(783,1443,l),
(-111,0,l),
(100,0,l)
);
},
{
closed = 1;
nodes = (
(245,356,l),
(898,356,l),
(932,516,l),
(347,516,l)
);
},
{
closed = 1;
nodes = (
(1712,0,l),
(1746,160,l),
(1014,160,l),
(1118,650,l),
(1786,650,l),
(1820,810,l),
(1152,810,l),
(1252,1282,l),
(1984,1282,l),
(2018,1443,l),
(1106,1443,l),
(800,0,l)
);
}
);
width = 1923;
},
{
anchors = (
{
name = bottom;
pos = (732,0);
},
{
name = top;
pos = (1674,1443);
}
);
layerId = "F66262BA-5A1D-44F4-BFD7-97C08A9A14E5";
shapes = (
{
closed = 1;
nodes = (
(985,1104,l),
(1090,1104,l),
(1162,1443,l),
(764,1443,l),
(-117,0,l),
(352,0,l)
);
},
{
closed = 1;
nodes = (
(285,236,l),
(908,236,l),
(974,546,l),
(461,546,l)
);
},
{
closed = 1;
nodes = (
(1837,0,l),
(1909,340,l),
(1285,340,l),
(1334,571,l),
(1882,571,l),
(1948,881,l),
(1400,881,l),
(1447,1102,l),
(2047,1102,l),
(2119,1443,l),
(1139,1443,l),
(833,0,l)
);
}
);
width = 2074;
}
);
metricLeft = A;
metricRight = E;
unicode = 198;
},
{
color = 6;
glyphname = B;
kernLeft = B;
kernRight = B;
lastChange = "2025-12-11 10:41:50 +0000";
layers = (
{
anchors = (
{
name = bottom;
pos = (550,0);
},
{
name = top;
pos = (550,1443);
},
{
name = tophook;
pos = (370,1443);
}
);
layerId = "B1815A28-7A99-448B-912A-F8CD41C6863A";
shapes = (
{
closed = 1;
nodes = (
(100,1443,l),
(100,0,l),
(150,0,l),
(150,1443,l)
);
},
{
closed = 1;
nodes = (
(134,732,l),
(684,732,ls),
(932,732,o),
(1087,600,o),
(1087,389,cs),
(1087,181,o),
(932,50,o),
(684,50,cs),
(134,50,l),
(134,0,l),
(686,0,ls),
(963,0,o),
(1137,150,o),
(1137,389,cs),
(1137,589,o),
(1010,734,o),
(807,764,c),
(807,767,l),
(950,809,o),
(1039,931,o),
(1039,1083,cs),
(1039,1304,o),
(880,1443,o),
(628,1443,cs),
(134,1443,l),
(134,1395,l),
(626,1395,ls),
(849,1395,o),
(989,1275,o),
(989,1083,cs),
(989,898,o),
(844,782,o),
(614,782,cs),
(134,782,l)
);
}
);
width = 1197;
},
{
anchors = (
{
name = bottom;
pos = (552,0);
},
{
name = top;
pos = (552,1443);
},
{
name = tophook;
pos = (389,1443);
}
);
layerId = "0A7ECE6A-DF67-46D8-8F43-1681A4AD540C";
shapes = (
{
closed = 1;
nodes = (
(100,1443,l),
(100,0,l),
(280,0,l),
(280,1443,l)
);
},
{
closed = 1;
nodes = (
(216,652,l),
(696,652,ls),
(872,652,o),
(989,555,o),
(989,409,cs),
(989,266,o),
(872,170,o),
(696,170,cs),
(216,170,l),
(216,0,l),
(688,0,ls),
(977,0,o),
(1169,164,o),
(1169,409,cs),
(1169,582,o),
(1056,718,o),
(887,749,c),
(887,757,l),
(1008,790,o),
(1089,912,o),
(1089,1061,cs),
(1089,1290,o),
(913,1443,o),
(648,1443,cs),
(216,1443,l),
(216,1273,l),
(636,1273,ls),
(800,1273,o),
(909,1188,o),
(909,1061,cs),
(909,918,o),
(800,822,o),
(636,822,cs),
(216,822,l)
);
}
);
width = 1229;
},
{
anchors = (
{
name = bottom;
pos = (651,0);
},
{
name = top;
pos = (651,1443);
},
{
name = tophook;
pos = (419,1443);
}
);
layerId = "0CA926B8-BF71-483F-A045-F233B587689B";
shapes = (
{
closed = 1;
nodes = (
(100,1443,l),
(100,0,l),
(510,0,l),
(510,1443,l)
);
},
{
closed = 1;
nodes = (
(308,585,l),
(768,585,ls),
(866,585,o),
(931,536,o),
(931,463,cs),
(931,377,o),
(866,320,o),
(768,320,cs),
(308,320,l),
(308,0,l),
(820,0,ls),
(1127,0,o),
(1331,158,o),
(1331,394,cs),
(1331,569,o),
(1215,707,o),
(1041,738,c),
(1041,754,l),
(1179,790,o),
(1271,916,o),
(1271,1068,cs),
(1271,1293,o),
(1083,1443,o),
(800,1443,cs),
(308,1443,l),
(308,1123,l),
(718,1123,ls),
(810,1123,o),
(871,1075,o),
(871,1003,cs),
(871,923,o),
(810,870,o),
(718,870,cs),
(308,870,l)
);
}
);
width = 1391;
},
{
anchors = (
{
name = bottom;
pos = (470,0);
},
{
name = top;
pos = (676,1443);
},
{
name = tophook;
pos = (496,1443);
}
);
layerId = "6871CC57-2503-4E31-BAA0-540E82C15514";
shapes = (
{
closed = 1;
nodes = (
(296,1443,l),
(-10,0,l),
(40,0,l),
(346,1443,l)
);
},
{
closed = 1;
nodes = (
(179,732,l),
(659,732,ls),
(907,732,o),
(1034,600,o),
(989,389,cs),
(945,181,o),
(762,50,o),
(514,50,cs),
(34,50,l),
(24,0,l),
(506,0,ls),
(783,0,o),
(989,150,o),
(1039,389,cs),
(1082,589,o),
(986,734,o),
(789,764,c),
(790,767,l),
(942,809,o),
(1057,931,o),
(1089,1083,cs),
(1136,1304,o),
(1006,1443,o),
(754,1443,cs),
(330,1443,l),
(320,1395,l),
(742,1395,ls),
(965,1395,o),
(1080,1275,o),
(1039,1083,cs),
(1000,898,o),
(830,782,o),
(600,782,cs),
(190,782,l)
);
}
);
width = 1127;
},
{
anchors = (
{
name = bottom;
pos = (512,0);
},
{
name = top;
pos = (748,1443);
},
{
name = tophook;
pos = (585,1443);
}
);
layerId = "0655DA90-B56F-496E-8077-C2A69D96FC98";
shapes = (
{
closed = 1;
nodes = (
(296,1443,l),
(-10,0,l),
(170,0,l),
(476,1443,l)
);
},
{
closed = 1;
nodes = (
(244,652,l),
(714,652,ls),
(894,652,o),
(987,558,o),
(956,409,cs),
(924,262,o),
(792,170,o),
(612,170,cs),
(142,170,l),
(106,0,l),
(568,0,ls),
(863,0,o),
(1082,158,o),
(1136,409,cs),
(1174,590,o),
(1066,721,o),
(856,749,c),
(858,757,l),
(1029,780,o),
(1159,897,o),
(1194,1061,cs),
(1244,1296,o),
(1105,1443,o),
(834,1443,cs),
(412,1443,l),
(376,1273,l),
(786,1273,ls),
(954,1273,o),
(1042,1191,o),
(1014,1061,cs),
(983,914,o),
(858,822,o),
(690,822,cs),
(280,822,l)
);
}
);
width = 1220;
},
{
anchors = (
{
name = bottom;
pos = (605,0);
},
{
name = top;
pos = (811,1443);
},
{
name = tophook;
pos = (579,1443);
}
);
layerId = "F66262BA-5A1D-44F4-BFD7-97C08A9A14E5";
shapes = (
{
closed = 1;
nodes = (
(290,1443,l),
(-16,0,l),
(394,0,l),
(700,1443,l)
);
},
{
closed = 1;
nodes = (
(316,585,l),
(746,585,ls),
(846,585,o),
(899,538,o),
(883,463,cs),
(864,375,o),
(790,320,o),
(690,320,cs),
(260,320,l),
(192,0,l),
(624,0,ls),
(969,0,o),
(1217,152,o),
(1268,394,cs),
(1313,603,o),
(1188,740,o),
(944,748,c),
(945,754,l),
(1156,763,o),
(1313,884,o),
(1352,1068,cs),
(1401,1298,o),
(1230,1443,o),
(910,1443,cs),
(498,1443,l),
(430,1123,l),
(810,1123,ls),
(904,1123,o),
(954,1077,o),
(938,1003,cs),
(920,921,o),
(851,870,o),
(757,870,cs),
(377,870,l)
);
}
);
width = 1361;
}
);
metricLeft = H;
metricRight = O;
unicode = 66;
},
{
color = 6;
glyphname = C;
kernLeft = round;
kernRight = round;
lastChange = "2025-12-11 10:41:50 +0000";
layers = (
{
anchors = (
{
name = bottom;
pos = (776,-10);
},
{
name = top;
pos = (776,1463);
}
);
layerId = "B1815A28-7A99-448B-912A-F8CD41C6863A";
shapes = (
{
closed = 1;
nodes = (
(68,292,o),
(368,-19,o),
(776,-19,cs),
(1097,-19,o),
(1365,178,o),
(1414,449,c),
(1366,461,l),
(1318,210,o),
(1070,29,o),
(776,29,cs),
(397,29,o),
(118,320,o),
(110,722,c),
(118,1124,o),
(397,1415,o),
(776,1415,cs),
(1069,1415,o),
(1317,1229,o),
(1366,972,c),
(1414,985,l),
(1364,1262,o),
(1096,1463,o),
(776,1463,cs),
(368,1463,o),
(68,1152,o),
(60,722,c)
);
}
);
width = 1474;
},
{
anchors = (
{
name = bottom;
pos = (775,-12);
},
{
name = top;
pos = (776,1463);
}
);
layerId = "0A7ECE6A-DF67-46D8-8F43-1681A4AD540C";
shapes = (
{
closed = 1;
nodes = (
(68,292,o),
(368,-19,o),
(776,-19,cs),
(1101,-19,o),
(1373,183,o),
(1424,463,c),
(1249,522,l),
(1203,307,o),
(1004,151,o),
(776,151,cs),
(478,151,o),
(258,391,o),
(251,722,c),
(258,1053,o),
(478,1293,o),
(776,1293,cs),
(1003,1293,o),
(1201,1141,o),
(1246,932,c),
(1424,981,l),
(1373,1261,o),
(1101,1463,o),
(776,1463,cs),
(368,1463,o),
(68,1152,o),
(60,722,c)
);
}
);
width = 1484;
},
{
anchors = (
{
name = bottom;
pos = (833,-24);
},
{
name = top;
pos = (833,1479);
}
);
background = {
shapes = (
{
closed = 0;
nodes = (
(1086,831,l),
(1286,905,l)
);
}
);
};
layerId = "0CA926B8-BF71-483F-A045-F233B587689B";
shapes = (
{
closed = 1;
nodes = (
(67,282,o),
(392,-36,o),
(833,-36,cs),
(1162,-36,o),
(1451,163,o),
(1522,438,c),
(1178,575,l),
(1143,418,o),
(998,304,o),
(833,304,cs),
(627,304,o),
(474,480,o),
(470,722,c),
(474,964,o),
(627,1139,o),
(833,1139,cs),
(984,1139,o),
(1121,1029,o),
(1158,878,c),
(1502,1015,l),
(1439,1284,o),
(1158,1479,o),
(833,1479,cs),
(392,1479,o),
(67,1161,o),
(60,721,c)
);
}
);
width = 1582;
},
{
anchors = (
{
name = bottom;
pos = (663,-10);
},
{
name = top;
pos = (977,1463);
}
);
layerId = "6871CC57-2503-4E31-BAA0-540E82C15514";
shapes = (
{
closed = 1;
nodes = (
(20,292,o),
(254,-19,o),
(661,-19,cs),
(982,-19,o),
(1292,178,o),
(1399,449,c),
(1354,461,l),
(1252,210,o),
(957,29,o),
(652,29,cs),
(286,29,o),
(76,320,o),
(153,722,c),
(246,1124,o),
(596,1415,o),
(986,1415,cs),
(1268,1415,o),
(1468,1229,o),
(1462,972,c),
(1513,985,l),
(1522,1262,o),
(1297,1463,o),
(977,1463,cs),
(569,1463,o),
(202,1152,o),
(103,722,c)
);
}
);
width = 1474;
},
{
anchors = (
{
name = bottom;
pos = (662,-12);
},
{
name = top;
pos = (977,1463);
}
);
layerId = "0655DA90-B56F-496E-8077-C2A69D96FC98";
shapes = (
{
closed = 1;
nodes = (
(20,292,o),
(254,-19,o),
(661,-19,cs),
(986,-19,o),
(1301,183,o),
(1412,463,c),
(1249,522,l),
(1158,307,o),
(918,151,o),
(678,151,cs),
(392,151,o),
(231,391,o),
(294,722,c),
(371,1053,o),
(651,1293,o),
(960,1293,cs),
(1176,1293,o),
(1333,1141,o),
(1334,932,c),
(1522,981,l),
(1531,1261,o),
(1302,1463,o),
(977,1463,cs),
(569,1463,o),
(202,1152,o),
(103,722,c)
);
}
);
width = 1484;
},
{
anchors = (
{
name = bottom;
pos = (711,-24);
},
{
name = top;
pos = (1030,1479);
}
);
background = {
shapes = (
{
closed = 0;
nodes = (
(1149,831,l),
(1349,905,l)
);
}
);
};
layerId = "F66262BA-5A1D-44F4-BFD7-97C08A9A14E5";
shapes = (
{
closed = 1;
nodes = (
(10,282,o),
(267,-36,o),
(708,-36,cs),
(1036,-36,o),
(1368,163,o),
(1498,438,c),
(1183,575,l),
(1114,418,o),
(936,304,o),
(760,304,cs),
(566,304,o),
(459,480,o),
(506,722,c),
(562,964,o),
(760,1139,o),
(978,1139,cs),
(1117,1139,o),
(1222,1029,o),
(1227,878,c),
(1600,1015,l),
(1595,1284,o),
(1356,1479,o),
(1030,1479,cs),
(588,1479,o),
(196,1161,o),
(96,721,c)
);
}
);
width = 1582;
}
);
metricLeft = O;
metricRight = O;
unicode = 67;
},
{
color = 10;
glyphname = Ccaron;
kernLeft = C;
kernRight = C;
lastChange = "2025-12-11 10:53:19 +0000";
layers = (
{
background = {
anchors = (
{
name = bottom;
pos = (776,1636);
},
{
name = top;
pos = (776,1756);
}
);
shapes = (
{
closed = 1;
nodes = (
(68,292,o),
(368,-19,o),
(776,-19,cs),
(1097,-19,o),
(1365,178,o),
(1414,449,c),
(1366,461,l),
(1318,210,o),
(1070,29,o),
(776,29,cs),
(397,29,o),
(118,320,o),
(110,722,c),
(118,1124,o),
(397,1415,o),
(776,1415,cs),
(1069,1415,o),
(1317,1229,o),
(1366,972,c),
(1414,985,l),
(1364,1262,o),
(1096,1463,o),
(776,1463,cs),
(368,1463,o),
(68,1152,o),
(60,722,c)
);
},
{
closed = 1;
nodes = (
(798,1595,l),
(983,1804,l),
(919,1804,l),
(777,1642,l),
(775,1642,l),
(633,1804,l),
(569,1804,l),
(754,1595,l)
);
}
);
};
layerId = "B1815A28-7A99-448B-912A-F8CD41C6863A";
shapes = (
{
ref = C;
},
{
pos = (459,523);
ref = caroncomb;
}
);
width = 1474;
},
{
background = {
anchors = (
{
name = bottom;
pos = (766,1601);
},
{
name = top;
pos = (776,1746);
}
);
shapes = (
{
closed = 1;
nodes = (
(68,292,o),
(368,-19,o),
(776,-19,cs),
(1101,-19,o),
(1373,183,o),
(1424,463,c),
(1249,522,l),
(1203,307,o),
(1004,151,o),
(776,151,cs),
(478,151,o),
(258,391,o),
(251,722,c),
(258,1053,o),
(478,1293,o),
(776,1293,cs),
(1003,1293,o),
(1201,1141,o),
(1246,932,c),
(1424,981,l),
(1373,1261,o),
(1101,1463,o),
(776,1463,cs),
(368,1463,o),
(68,1152,o),
(60,722,c)
);
},
{
closed = 1;
nodes = (
(878,1570,l),
(1048,1809,l),
(854,1809,l),
(778,1674,l),
(772,1674,l),
(698,1809,l),
(504,1809,l),
(672,1570,l)
);
}
);
};
layerId = "0A7ECE6A-DF67-46D8-8F43-1681A4AD540C";
shapes = (
{
ref = C;
},
{
pos = (394,523);
ref = caroncomb;
}
);
width = 1484;
},
{
background = {
anchors = (
{
name = bottom;
pos = (838,1627);
},
{
name = top;
pos = (833,1901);
}
);
shapes = (
{
closed = 1;
nodes = (
(67,282,o),
(392,-36,o),
(833,-36,cs),
(1162,-36,o),
(1451,163,o),
(1522,438,c),
(1178,575,l),
(1143,418,o),
(998,304,o),
(833,304,cs),
(627,304,o),
(474,480,o),
(470,722,c),
(474,964,o),
(627,1139,o),
(833,1139,cs),
(984,1139,o),
(1121,1029,o),
(1158,878,c),
(1502,1015,l),
(1439,1284,o),
(1158,1479,o),
(833,1479,cs),
(392,1479,o),
(67,1161,o),
(60,721,c)
);
},
{
closed = 1;
nodes = (
(1027,1595,l),
(1253,1944,l),
(941,1944,l),
(844,1769,l),
(834,1769,l),
(735,1944,l),
(423,1944,l),
(651,1595,l)
);
}
);
};
layerId = "0CA926B8-BF71-483F-A045-F233B587689B";
shapes = (
{
ref = C;
},
{
pos = (313,479);
ref = caroncomb;
}
);
width = 1582;
},
{
background = {
anchors = (
{
name = bottom;
pos = (1006,1636);
},
{
name = top;
pos = (1031,1756);
}
);
shapes = (
{
closed = 1;
nodes = (
(20,292,o),
(254,-19,o),
(661,-19,cs),
(982,-19,o),
(1292,178,o),
(1399,449,c),
(1354,461,l),
(1252,210,o),
(957,29,o),
(652,29,cs),
(286,29,o),
(76,320,o),
(153,722,c),
(246,1124,o),
(596,1415,o),
(986,1415,cs),
(1268,1415,o),
(1468,1229,o),
(1462,972,c),
(1513,985,l),
(1522,1262,o),
(1297,1463,o),
(977,1463,cs),
(569,1463,o),
(202,1152,o),
(103,722,c)
);
},
{
closed = 1;
nodes = (
(1024,1575,l),
(1253,1784,l),
(1184,1784,l),
(1008,1622,l),
(1006,1622,l),
(898,1784,l),
(839,1784,l),
(980,1575,l)
);
}
);
};
layerId = "6871CC57-2503-4E31-BAA0-540E82C15514";
shapes = (
{
ref = C;
},
{
pos = (570,523);
ref = caroncomb;
}
);
width = 1474;
},
{
background = {
anchors = (
{
name = bottom;
pos = (973,1601);
},
{
name = top;
pos = (1005,1746);
}
);
shapes = (
{
closed = 1;
nodes = (
(20,292,o),
(254,-19,o),
(661,-19,cs),
(986,-19,o),
(1301,183,o),
(1412,463,c),
(1249,522,l),
(1158,307,o),
(918,151,o),
(678,151,cs),
(392,151,o),
(231,391,o),
(294,722,c),
(371,1053,o),
(651,1293,o),
(960,1293,cs),
(1176,1293,o),
(1333,1141,o),
(1334,932,c),
(1522,981,l),
(1531,1261,o),
(1302,1463,o),
(977,1463,cs),
(569,1463,o),
(202,1152,o),
(103,722,c)
);
},
{
closed = 1;
nodes = (
(1093,1570,l),
(1313,1809,l),
(1105,1809,l),
(1005,1674,l),
(999,1674,l),
(949,1809,l),
(769,1809,l),
(887,1570,l)
);
}
);
};
layerId = "0655DA90-B56F-496E-8077-C2A69D96FC98";
shapes = (
{
alignment = -1;
ref = C;
},
{
alignment = -1;
pos = (501,523);
ref = caroncomb;
}
);
width = 1633;
},
{
background = {
anchors = (
{
name = bottom;
pos = (1038,1624);
},
{
name = top;
pos = (1102,1892);
}
);
shapes = (
{
closed = 1;
nodes = (
(10,282,o),
(267,-36,o),
(708,-36,cs),
(1036,-36,o),
(1368,163,o),
(1498,438,c),
(1183,575,l),
(1114,418,o),
(936,304,o),
(760,304,cs),
(566,304,o),
(459,480,o),
(506,722,c),
(562,964,o),
(760,1139,o),
(978,1139,cs),
(1117,1139,o),
(1222,1029,o),
(1227,878,c),
(1600,1015,l),
(1595,1284,o),
(1356,1479,o),
(1030,1479,cs),
(588,1479,o),
(196,1161,o),
(96,721,c)
);
},
{
closed = 1;
nodes = (
(1230,1589,l),
(1540,1938,l),
(1208,1938,l),
(1084,1763,l),
(1074,1763,l),
(1002,1938,l),
(710,1938,l),
(864,1589,l)
);
}
);
};
layerId = "F66262BA-5A1D-44F4-BFD7-97C08A9A14E5";
shapes = (
{
alignment = -1;
ref = C;
},
{
alignment = -1;
pos = (406,473);
ref = caroncomb;
}
);
width = 1713;
},
{
associatedMasterId = "F66262BA-5A1D-44F4-BFD7-97C08A9A14E5";
background = {
anchors = (
{
name = bottom;
pos = (1038,1624);
},
{
name = top;
pos = (1102,1892);
}
);
shapes = (
{
closed = 1;
nodes = (
(10,282,o),
(267,-36,o),
(708,-36,cs),
(1036,-36,o),
(1368,163,o),
(1498,438,c),
(1183,575,l),
(1114,418,o),
(936,304,o),
(760,304,cs),
(566,304,o),
(459,480,o),
(506,722,c),
(562,964,o),
(760,1139,o),
(978,1139,cs),
(1117,1139,o),
(1222,1029,o),
(1227,878,c),
(1600,1015,l),
(1595,1284,o),
(1356,1479,o),
(1030,1479,cs),
(588,1479,o),
(196,1161,o),
(96,721,c)
);
},
{
closed = 1;
nodes = (
(1230,1589,l),
(1540,1938,l),
(1208,1938,l),
(1084,1763,l),
(1074,1763,l),
(1002,1938,l),
(710,1938,l),
(864,1589,l)
);
}
);
};
layerId = "DCAB3602-F40B-463A-B4F0-BD07A4DAD05B";
name = "11 Dec 25 at 11:53";
shapes = (
{
alignment = -1;
ref = C;
},
{
alignment = -1;
pos = (406,473);
ref = caroncomb;
}
);
width = 1713;
},
{
associatedMasterId = "0655DA90-B56F-496E-8077-C2A69D96FC98";
background = {
anchors = (
{
name = bottom;
pos = (973,1601);
},
{
name = top;
pos = (1005,1746);
}
);
shapes = (
{
closed = 1;
nodes = (
(20,292,o),
(254,-19,o),
(661,-19,cs),
(986,-19,o),
(1301,183,o),
(1412,463,c),
(1249,522,l),
(1158,307,o),
(918,151,o),
(678,151,cs),
(392,151,o),
(231,391,o),
(294,722,c),
(371,1053,o),
(651,1293,o),
(960,1293,cs),
(1176,1293,o),
(1333,1141,o),
(1334,932,c),
(1522,981,l),
(1531,1261,o),
(1302,1463,o),
(977,1463,cs),
(569,1463,o),
(202,1152,o),
(103,722,c)
);
},
{
closed = 1;
nodes = (
(1093,1570,l),
(1313,1809,l),
(1105,1809,l),
(1005,1674,l),
(999,1674,l),
(949,1809,l),
(769,1809,l),
(887,1570,l)
);
}
);
};
layerId = "3824C522-EF08-493F-9C7B-25519102DF16";
name = "11 Dec 25 at 11:53";
shapes = (
{
alignment = -1;
ref = C;
},
{
alignment = -1;
pos = (501,523);
ref = caroncomb;
}
);
width = 1633;
},
{
associatedMasterId = "0CA926B8-BF71-483F-A045-F233B587689B";
background = {
anchors = (
{
name = bottom;
pos = (838,1627);
},
{
name = top;
pos = (833,1901);
}
);
shapes = (
{
closed = 1;
nodes = (
(67,282,o),
(392,-36,o),
(833,-36,cs),
(1162,-36,o),
(1451,163,o),
(1522,438,c),
(1178,575,l),
(1143,418,o),
(998,304,o),
(833,304,cs),
(627,304,o),
(474,480,o),
(470,722,c),
(474,964,o),
(627,1139,o),
(833,1139,cs),
(984,1139,o),
(1121,1029,o),
(1158,878,c),
(1502,1015,l),
(1439,1284,o),
(1158,1479,o),
(833,1479,cs),
(392,1479,o),
(67,1161,o),
(60,721,c)
);
},
{
closed = 1;
nodes = (
(1027,1595,l),
(1253,1944,l),
(941,1944,l),
(844,1769,l),
(834,1769,l),
(735,1944,l),
(423,1944,l),
(651,1595,l)
);
}
);
};
layerId = "0917DACD-6279-461E-B5C2-F6290A3E0250";
name = "11 Dec 25 at 11:53";
shapes = (
{
ref = C;
},
{
pos = (313,479);
ref = caroncomb;
}
);
width = 1582;
},
{
associatedMasterId = "6871CC57-2503-4E31-BAA0-540E82C15514";
background = {
anchors = (
{
name = bottom;
pos = (1006,1636);
},
{
name = top;
pos = (1031,1756);
}
);
shapes = (
{
closed = 1;
nodes = (
(20,292,o),
(254,-19,o),
(661,-19,cs),
(982,-19,o),
(1292,178,o),
(1399,449,c),
(1354,461,l),
(1252,210,o),
(957,29,o),
(652,29,cs),
(286,29,o),
(76,320,o),
(153,722,c),
(246,1124,o),
(596,1415,o),
(986,1415,cs),
(1268,1415,o),
(1468,1229,o),
(1462,972,c),
(1513,985,l),
(1522,1262,o),
(1297,1463,o),
(977,1463,cs),
(569,1463,o),
(202,1152,o),
(103,722,c)
);
},
{
closed = 1;
nodes = (
(1024,1575,l),
(1253,1784,l),
(1184,1784,l),
(1008,1622,l),
(1006,1622,l),
(898,1784,l),
(839,1784,l),
(980,1575,l)
);
}
);
};
layerId = "FB2FB245-9BB8-416A-ACE0-1499E13FD1D5";
name = "11 Dec 25 at 11:53";
shapes = (
{
ref = C;
},
{
pos = (570,523);
ref = caroncomb;
}
);
width = 1474;
},
{
associatedMasterId = "0A7ECE6A-DF67-46D8-8F43-1681A4AD540C";
background = {
anchors = (
{
name = bottom;
pos = (766,1601);
},
{
name = top;
pos = (776,1746);
}
);
shapes = (
{
closed = 1;
nodes = (
(68,292,o),
(368,-19,o),
(776,-19,cs),
(1101,-19,o),
(1373,183,o),
(1424,463,c),
(1249,522,l),
(1203,307,o),
(1004,151,o),
(776,151,cs),
(478,151,o),
(258,391,o),
(251,722,c),
(258,1053,o),
(478,1293,o),
(776,1293,cs),
(1003,1293,o),
(1201,1141,o),
(1246,932,c),
(1424,981,l),
(1373,1261,o),
(1101,1463,o),
(776,1463,cs),
(368,1463,o),
(68,1152,o),
(60,722,c)
);
},
{
closed = 1;
nodes = (
(878,1570,l),
(1048,1809,l),
(854,1809,l),
(778,1674,l),
(772,1674,l),
(698,1809,l),
(504,1809,l),
(672,1570,l)
);
}
);
};
layerId = "A61EA596-A013-4441-A926-9B983383D2E6";
name = "11 Dec 25 at 11:53";
shapes = (
{
ref = C;
},
{
pos = (394,523);
ref = caroncomb;
}
);
width = 1484;
},
{
associatedMasterId = "B1815A28-7A99-448B-912A-F8CD41C6863A";
background = {
anchors = (
{
name = bottom;
pos = (776,1636);
},
{
name = top;
pos = (776,1756);
}
);
shapes = (
{
closed = 1;
nodes = (
(68,292,o),
(368,-19,o),
(776,-19,cs),
(1097,-19,o),
(1365,178,o),
(1414,449,c),
(1366,461,l),
(1318,210,o),
(1070,29,o),
(776,29,cs),
(397,29,o),
(118,320,o),
(110,722,c),
(118,1124,o),
(397,1415,o),
(776,1415,cs),
(1069,1415,o),
(1317,1229,o),
(1366,972,c),
(1414,985,l),
(1364,1262,o),
(1096,1463,o),
(776,1463,cs),
(368,1463,o),
(68,1152,o),
(60,722,c)
);
},
{
closed = 1;
nodes = (
(798,1595,l),
(983,1804,l),
(919,1804,l),
(777,1642,l),
(775,1642,l),
(633,1804,l),
(569,1804,l),
(754,1595,l)
);
}
);
};
layerId = "6F59BA2A-7204-461C-9C1A-C7A4F4ECCA53";
name = "11 Dec 25 at 11:53";
shapes = (
{
ref = C;
},
{
pos = (459,523);
ref = caroncomb;
}
);
width = 1474;
}
);
unicode = 268;
},
{
color = 10;
glyphname = Ccedilla;
kernLeft = C;
kernRight = C;
lastChange = "2025-12-11 10:53:19 +0000";
layers = (
{
background = {
anchors = (
{
name = bottom;
pos = (782,-393);
},
{
name = top;
pos = (776,1463);
}
);
shapes = (
{
closed = 1;
nodes = (
(68,292,o),
(368,-19,o),
(776,-19,cs),
(1097,-19,o),
(1365,178,o),
(1414,449,c),
(1366,461,l),
(1318,210,o),
(1070,29,o),
(776,29,cs),
(397,29,o),
(118,320,o),
(110,722,c),
(118,1124,o),
(397,1415,o),
(776,1415,cs),
(1069,1415,o),
(1317,1229,o),
(1366,972,c),
(1414,985,l),
(1364,1262,o),
(1096,1463,o),
(776,1463,cs),
(368,1463,o),
(68,1152,o),
(60,722,c)
);
},
{
closed = 1;
nodes = (
(879,-357,o),
(974,-307,o),
(974,-217,cs),
(974,-138,o),
(905,-93,o),
(781,-91,c),
(800,-10,l),
(750,-10,l),
(720,-136,l),
(851,-135,o),
(924,-163,o),
(924,-214,cs),
(924,-275,o),
(847,-309,o),
(709,-309,c),
(708,-357,l)
);
}
);
};
layerId = "B1815A28-7A99-448B-912A-F8CD41C6863A";
shapes = (
{
ref = C;
},
{
pos = (598,-10);
ref = cedillacomb;
}
);
width = 1474;
},
{
background = {
anchors = (
{
name = bottom;
pos = (779,-449);
},
{
name = top;
pos = (776,1463);
}
);
shapes = (
{
closed = 1;
nodes = (
(68,292,o),
(368,-19,o),
(776,-19,cs),
(1101,-19,o),
(1373,183,o),
(1424,463,c),
(1249,522,l),
(1203,307,o),
(1004,151,o),
(776,151,cs),
(478,151,o),
(258,391,o),
(251,722,c),
(258,1053,o),
(478,1293,o),
(776,1293,cs),
(1003,1293,o),
(1201,1141,o),
(1246,932,c),
(1424,981,l),
(1373,1261,o),
(1101,1463,o),
(776,1463,cs),
(368,1463,o),
(68,1152,o),
(60,722,c)
);
},
{
closed = 1;
nodes = (
(849,-377,o),
(981,-310,o),
(981,-207,cs),
(981,-138,o),
(920,-87,o),
(826,-77,c),
(836,-10,l),
(710,-10,l),
(682,-156,l),
(785,-155,o),
(851,-175,o),
(851,-207,cs),
(851,-233,o),
(780,-249,o),
(669,-249,c),
(645,-377,l)
);
}
);
};
layerId = "0A7ECE6A-DF67-46D8-8F43-1681A4AD540C";
shapes = (
{
ref = C;
},
{
pos = (535,-12);
ref = cedillacomb;
}
);
width = 1484;
},
{
background = {
anchors = (
{
name = bottom;
pos = (789,-407);
},
{
name = top;
pos = (833,1479);
}
);
shapes = (
{
closed = 1;
nodes = (
(67,282,o),
(392,-36,o),
(833,-36,cs),
(1162,-36,o),
(1451,163,o),
(1522,438,c),
(1178,575,l),
(1143,418,o),
(998,304,o),
(833,304,cs),
(627,304,o),
(474,480,o),
(470,722,c),
(474,964,o),
(627,1139,o),
(833,1139,cs),
(984,1139,o),
(1121,1029,o),
(1158,878,c),
(1502,1015,l),
(1439,1284,o),
(1158,1479,o),
(833,1479,cs),
(392,1479,o),
(67,1161,o),
(60,721,c)
);
},
{
closed = 1;
nodes = (
(924,-433,o),
(1090,-350,o),
(1090,-222,cs),
(1090,-136,o),
(1032,-81,o),
(935,-81,c),
(941,-24,l),
(713,-24,l),
(697,-173,l),
(828,-173,o),
(893,-193,o),
(893,-225,cs),
(893,-254,o),
(826,-272,o),
(691,-272,c),
(667,-433,l)
);
}
);
};
layerId = "0CA926B8-BF71-483F-A045-F233B587689B";
shapes = (
{
ref = C;
},
{
pos = (557,-24);
ref = cedillacomb;
}
);
width = 1582;
},
{
background = {
anchors = (
{
name = bottom;
pos = (587,-393);
},
{
name = top;
pos = (977,1463);
}
);
shapes = (
{
closed = 1;
nodes = (
(20,292,o),
(254,-19,o),
(661,-19,cs),
(982,-19,o),
(1292,178,o),
(1399,449,c),
(1354,461,l),
(1252,210,o),
(957,29,o),
(652,29,cs),
(286,29,o),
(76,320,o),
(153,722,c),
(246,1124,o),
(596,1415,o),
(986,1415,cs),
(1268,1415,o),
(1468,1229,o),
(1462,972,c),
(1513,985,l),
(1522,1262,o),
(1297,1463,o),
(977,1463,cs),
(569,1463,o),
(202,1152,o),
(103,722,c)
);
},
{
closed = 1;
nodes = (
(692,-357,o),
(798,-307,o),
(817,-217,cs),
(833,-138,o),
(774,-93,o),
(650,-91,c),
(687,-10,l),
(637,-10,l),
(580,-136,l),
(711,-135,o),
(778,-163,o),
(767,-214,cs),
(754,-275,o),
(670,-309,o),
(532,-309,c),
(521,-357,l)
);
}
);
};
layerId = "6871CC57-2503-4E31-BAA0-540E82C15514";
shapes = (
{
ref = C;
},
{
pos = (594,-10);
ref = cedillacomb;
}
);
width = 1474;
},
{
background = {
anchors = (
{
name = bottom;
pos = (604,-449);
},
{
name = top;
pos = (977,1463);
}
);
shapes = (
{
closed = 1;
nodes = (
(20,292,o),
(254,-19,o),
(661,-19,cs),
(986,-19,o),
(1301,183,o),
(1412,463,c),
(1249,522,l),
(1158,307,o),
(918,151,o),
(678,151,cs),
(392,151,o),
(231,391,o),
(294,722,c),
(371,1053,o),
(651,1293,o),
(960,1293,cs),
(1176,1293,o),
(1333,1141,o),
(1334,932,c),
(1522,981,l),
(1531,1261,o),
(1302,1463,o),
(977,1463,cs),
(569,1463,o),
(202,1152,o),
(103,722,c)
);
},
{
closed = 1;
nodes = (
(690,-377,o),
(836,-310,o),
(858,-207,cs),
(872,-138,o),
(822,-87,o),
(730,-77,c),
(755,-10,l),
(629,-10,l),
(570,-156,l),
(673,-155,o),
(735,-175,o),
(728,-207,cs),
(722,-233,o),
(648,-249,o),
(537,-249,c),
(486,-377,l)
);
}
);
};
layerId = "0655DA90-B56F-496E-8077-C2A69D96FC98";
shapes = (
{
alignment = -1;
ref = C;
},
{
alignment = -1;
pos = (569,-12);
ref = cedillacomb;
}
);
width = 1633;
},
{
background = {
anchors = (
{
name = bottom;
pos = (643,-407);
},
{
name = top;
pos = (1030,1479);
}
);
shapes = (
{
closed = 1;
nodes = (
(10,282,o),
(267,-36,o),
(708,-36,cs),
(1036,-36,o),
(1368,163,o),
(1498,438,c),
(1183,575,l),
(1114,418,o),
(936,304,o),
(760,304,cs),
(566,304,o),
(459,480,o),
(506,722,c),
(562,964,o),
(760,1139,o),
(978,1139,cs),
(1117,1139,o),
(1222,1029,o),
(1227,878,c),
(1600,1015,l),
(1595,1284,o),
(1356,1479,o),
(1030,1479,cs),
(588,1479,o),
(196,1161,o),
(96,721,c)
);
},
{
closed = 1;
nodes = (
(771,-463,o),
(982,-372,o),
(1009,-242,cs),
(1030,-147,o),
(974,-81,o),
(874,-81,c),
(897,-24,l),
(639,-24,l),
(571,-173,l),
(698,-173,o),
(783,-194,o),
(776,-225,cs),
(770,-253,o),
(674,-272,o),
(544,-272,c),
(499,-463,l)
);
}
);
};
layerId = "F66262BA-5A1D-44F4-BFD7-97C08A9A14E5";
shapes = (
{
alignment = -1;
ref = C;
},
{
alignment = -1;
pos = (599,-24);
ref = cedillacomb;
}
);
width = 1713;
},
{
associatedMasterId = "F66262BA-5A1D-44F4-BFD7-97C08A9A14E5";
background = {
anchors = (
{
name = bottom;
pos = (643,-407);
},
{
name = top;
pos = (1030,1479);
}
);
shapes = (
{
closed = 1;
nodes = (
(10,282,o),
(267,-36,o),
(708,-36,cs),
(1036,-36,o),
(1368,163,o),
(1498,438,c),
(1183,575,l),
(1114,418,o),
(936,304,o),
(760,304,cs),
(566,304,o),
(459,480,o),
(506,722,c),
(562,964,o),
(760,1139,o),
(978,1139,cs),
(1117,1139,o),
(1222,1029,o),
(1227,878,c),
(1600,1015,l),
(1595,1284,o),
(1356,1479,o),
(1030,1479,cs),
(588,1479,o),
(196,1161,o),
(96,721,c)
);
},
{
closed = 1;
nodes = (
(771,-463,o),
(982,-372,o),
(1009,-242,cs),
(1030,-147,o),
(974,-81,o),
(874,-81,c),
(897,-24,l),
(639,-24,l),
(571,-173,l),
(698,-173,o),
(783,-194,o),
(776,-225,cs),
(770,-253,o),
(674,-272,o),
(544,-272,c),
(499,-463,l)
);
}
);
};
layerId = "9FC8ABB8-98F1-4EAC-AE9A-3643996A700F";
name = "11 Dec 25 at 11:53";
shapes = (
{
alignment = -1;
ref = C;
},
{
alignment = -1;
pos = (599,-24);
ref = cedillacomb;
}
);
width = 1713;
},
{
associatedMasterId = "0655DA90-B56F-496E-8077-C2A69D96FC98";
background = {
anchors = (
{
name = bottom;
pos = (604,-449);
},
{
name = top;
pos = (977,1463);
}
);
shapes = (
{
closed = 1;
nodes = (
(20,292,o),
(254,-19,o),
(661,-19,cs),
(986,-19,o),
(1301,183,o),
(1412,463,c),
(1249,522,l),
(1158,307,o),
(918,151,o),
(678,151,cs),
(392,151,o),
(231,391,o),
(294,722,c),
(371,1053,o),
(651,1293,o),
(960,1293,cs),
(1176,1293,o),
(1333,1141,o),
(1334,932,c),
(1522,981,l),
(1531,1261,o),
(1302,1463,o),
(977,1463,cs),
(569,1463,o),
(202,1152,o),
(103,722,c)
);
},
{
closed = 1;
nodes = (
(690,-377,o),
(836,-310,o),
(858,-207,cs),
(872,-138,o),
(822,-87,o),
(730,-77,c),
(755,-10,l),
(629,-10,l),
(570,-156,l),
(673,-155,o),
(735,-175,o),
(728,-207,cs),
(722,-233,o),
(648,-249,o),
(537,-249,c),
(486,-377,l)
);
}
);
};
layerId = "DFAB0923-EE45-41F5-88E7-D27989920E50";
name = "11 Dec 25 at 11:53";
shapes = (
{
alignment = -1;
ref = C;
},
{
alignment = -1;
pos = (569,-12);
ref = cedillacomb;
}
);
width = 1633;
},
{
associatedMasterId = "0CA926B8-BF71-483F-A045-F233B587689B";
background = {
anchors = (
{
name = bottom;
pos = (789,-407);
},
{
name = top;
pos = (833,1479);
}
);
shapes = (
{
closed = 1;
nodes = (
(67,282,o),
(392,-36,o),
(833,-36,cs),
(1162,-36,o),
(1451,163,o),
(1522,438,c),
(1178,575,l),
(1143,418,o),
(998,304,o),
(833,304,cs),
(627,304,o),
(474,480,o),
(470,722,c),
(474,964,o),
(627,1139,o),
(833,1139,cs),
(984,1139,o),
(1121,1029,o),
(1158,878,c),
(1502,1015,l),
(1439,1284,o),
(1158,1479,o),
(833,1479,cs),
(392,1479,o),
(67,1161,o),
(60,721,c)
);
},
{
closed = 1;
nodes = (
(924,-433,o),
(1090,-350,o),
(1090,-222,cs),
(1090,-136,o),
(1032,-81,o),
(935,-81,c),
(941,-24,l),
(713,-24,l),
(697,-173,l),
(828,-173,o),
(893,-193,o),
(893,-225,cs),
(893,-254,o),
(826,-272,o),
(691,-272,c),
(667,-433,l)
);
}
);
};
layerId = "0840ADD5-99A6-4EDE-BEDA-96693BD6EB68";
name = "11 Dec 25 at 11:53";
shapes = (
{
ref = C;
},
{
pos = (557,-24);
ref = cedillacomb;
}
);
width = 1582;
},
{
associatedMasterId = "6871CC57-2503-4E31-BAA0-540E82C15514";
background = {
anchors = (
{
name = bottom;
pos = (587,-393);
},
{
name = top;
pos = (977,1463);
}
);
shapes = (
{
closed = 1;
nodes = (
(20,292,o),
(254,-19,o),
(661,-19,cs),
(982,-19,o),
(1292,178,o),
(1399,449,c),
(1354,461,l),
(1252,210,o),
(957,29,o),
(652,29,cs),
(286,29,o),
(76,320,o),
(153,722,c),
(246,1124,o),
(596,1415,o),
(986,1415,cs),
(1268,1415,o),
(1468,1229,o),
(1462,972,c),
(1513,985,l),
(1522,1262,o),
(1297,1463,o),
(977,1463,cs),
(569,1463,o),
(202,1152,o),
(103,722,c)
);
},
{
closed = 1;
nodes = (
(692,-357,o),
(798,-307,o),
(817,-217,cs),
(833,-138,o),
(774,-93,o),
(650,-91,c),
(687,-10,l),
(637,-10,l),
(580,-136,l),
(711,-135,o),
(778,-163,o),
(767,-214,cs),
(754,-275,o),
(670,-309,o),
(532,-309,c),
(521,-357,l)
);
}
);
};
layerId = "FD288D55-B579-4856-A7DC-A7DFE5D96FB9";
name = "11 Dec 25 at 11:53";
shapes = (
{
ref = C;
},
{
pos = (594,-10);
ref = cedillacomb;
}
);
width = 1474;
},
{
associatedMasterId = "0A7ECE6A-DF67-46D8-8F43-1681A4AD540C";
background = {
anchors = (
{
name = bottom;
pos = (779,-449);
},
{
name = top;
pos = (776,1463);
}
);
shapes = (
{
closed = 1;
nodes = (
(68,292,o),
(368,-19,o),
(776,-19,cs),
(1101,-19,o),
(1373,183,o),
(1424,463,c),
(1249,522,l),
(1203,307,o),
(1004,151,o),
(776,151,cs),
(478,151,o),
(258,391,o),
(251,722,c),
(258,1053,o),
(478,1293,o),
(776,1293,cs),
(1003,1293,o),
(1201,1141,o),
(1246,932,c),
(1424,981,l),
(1373,1261,o),
(1101,1463,o),
(776,1463,cs),
(368,1463,o),
(68,1152,o),
(60,722,c)
);
},
{
closed = 1;
nodes = (
(849,-377,o),
(981,-310,o),
(981,-207,cs),
(981,-138,o),
(920,-87,o),
(826,-77,c),
(836,-10,l),
(710,-10,l),
(682,-156,l),
(785,-155,o),
(851,-175,o),
(851,-207,cs),
(851,-233,o),
(780,-249,o),
(669,-249,c),
(645,-377,l)
);
}
);
};
layerId = "7FC1A665-4F89-453C-B8FB-ED39A46B11A3";
name = "11 Dec 25 at 11:53";
shapes = (
{
ref = C;
},
{
pos = (535,-12);
ref = cedillacomb;
}
);
width = 1484;
},
{
associatedMasterId = "B1815A28-7A99-448B-912A-F8CD41C6863A";
background = {
anchors = (
{
name = bottom;
pos = (782,-393);
},
{
name = top;
pos = (776,1463);
}
);
shapes = (
{
closed = 1;
nodes = (
(68,292,o),
(368,-19,o),
(776,-19,cs),
(1097,-19,o),
(1365,178,o),
(1414,449,c),
(1366,461,l),
(1318,210,o),
(1070,29,o),
(776,29,cs),
(397,29,o),
(118,320,o),
(110,722,c),
(118,1124,o),
(397,1415,o),
(776,1415,cs),
(1069,1415,o),
(1317,1229,o),
(1366,972,c),
(1414,985,l),
(1364,1262,o),
(1096,1463,o),
(776,1463,cs),
(368,1463,o),
(68,1152,o),
(60,722,c)
);
},
{
closed = 1;
nodes = (
(879,-357,o),
(974,-307,o),
(974,-217,cs),
(974,-138,o),
(905,-93,o),
(781,-91,c),
(800,-10,l),
(750,-10,l),
(720,-136,l),
(851,-135,o),
(924,-163,o),
(924,-214,cs),
(924,-275,o),
(847,-309,o),
(709,-309,c),
(708,-357,l)
);
}
);
};
layerId = "4A2F899A-4349-4542-960C-42ACA0AC1AFB";
name = "11 Dec 25 at 11:53";
shapes = (
{
ref = C;
},
{
pos = (598,-10);
ref = cedillacomb;
}
);
width = 1474;
}
);
unicode = 199;
},
{
color = 10;
glyphname = Ccircumflex;
kernLeft = C;
kernRight = C;
lastChange = "2025-12-11 10:53:19 +0000";
layers = (
{
background = {
anchors = (
{
name = bottom;
pos = (776,-10);
},
{
name = top;
pos = (774,1777);
}
);
shapes = (
{
closed = 1;
nodes = (
(68,292,o),
(368,-19,o),
(776,-19,cs),
(1097,-19,o),
(1365,178,o),
(1414,449,c),
(1366,461,l),
(1318,210,o),
(1070,29,o),
(776,29,cs),
(397,29,o),
(118,320,o),
(110,722,c),
(118,1124,o),
(397,1415,o),
(776,1415,cs),
(1069,1415,o),
(1317,1229,o),
(1366,972,c),
(1414,985,l),
(1364,1262,o),
(1096,1463,o),
(776,1463,cs),
(368,1463,o),
(68,1152,o),
(60,722,c)
);
},
{
closed = 1;
nodes = (
(567,1609,l),
(631,1609,l),
(773,1771,l),
(775,1771,l),
(917,1609,l),
(981,1609,l),
(796,1818,l),
(752,1818,l)
);
}
);
};
layerId = "B1815A28-7A99-448B-912A-F8CD41C6863A";
shapes = (
{
ref = C;
},
{
pos = (457,523);
ref = circumflexcomb;
}
);
width = 1474;
},
{
background = {
anchors = (
{
name = bottom;
pos = (775,-12);
},
{
name = top;
pos = (767,1766);
}
);
shapes = (
{
closed = 1;
nodes = (
(68,292,o),
(368,-19,o),
(776,-19,cs),
(1101,-19,o),
(1373,183,o),
(1424,463,c),
(1249,522,l),
(1203,307,o),
(1004,151,o),
(776,151,cs),
(478,151,o),
(258,391,o),
(251,722,c),
(258,1053,o),
(478,1293,o),
(776,1293,cs),
(1003,1293,o),
(1201,1141,o),
(1246,932,c),
(1424,981,l),
(1373,1261,o),
(1101,1463,o),
(776,1463,cs),
(368,1463,o),
(68,1152,o),
(60,722,c)
);
},
{
closed = 1;
nodes = (
(505,1558,l),
(699,1558,l),
(773,1673,l),
(779,1673,l),
(855,1558,l),
(1049,1558,l),
(879,1797,l),
(673,1797,l)
);
}
);
};
layerId = "0A7ECE6A-DF67-46D8-8F43-1681A4AD540C";
shapes = (
{
ref = C;
},
{
pos = (395,523);
ref = circumflexcomb;
}
);
width = 1484;
},
{
background = {
anchors = (
{
name = bottom;
pos = (833,-24);
},
{
name = top;
pos = (833,1890);
}
);
shapes = (
{
closed = 1;
nodes = (
(67,282,o),
(392,-36,o),
(833,-36,cs),
(1162,-36,o),
(1451,163,o),
(1522,438,c),
(1178,575,l),
(1143,418,o),
(998,304,o),
(833,304,cs),
(627,304,o),
(474,480,o),
(470,722,c),
(474,964,o),
(627,1139,o),
(833,1139,cs),
(984,1139,o),
(1121,1029,o),
(1158,878,c),
(1502,1015,l),
(1439,1284,o),
(1158,1479,o),
(833,1479,cs),
(392,1479,o),
(67,1161,o),
(60,721,c)
);
},
{
closed = 1;
nodes = (
(418,1573,l),
(730,1573,l),
(829,1748,l),
(839,1748,l),
(936,1573,l),
(1248,1573,l),
(1022,1922,l),
(646,1922,l)
);
}
);
};
layerId = "0CA926B8-BF71-483F-A045-F233B587689B";
shapes = (
{
ref = C;
},
{
pos = (308,479);
ref = circumflexcomb;
}
);
width = 1582;
},
{
background = {
anchors = (
{
name = bottom;
pos = (663,-10);
},
{
name = top;
pos = (1041,1777);
}
);
shapes = (
{
closed = 1;
nodes = (
(20,292,o),
(254,-19,o),
(661,-19,cs),
(982,-19,o),
(1292,178,o),
(1399,449,c),
(1354,461,l),
(1252,210,o),
(957,29,o),
(652,29,cs),
(286,29,o),
(76,320,o),
(153,722,c),
(246,1124,o),
(596,1415,o),
(986,1415,cs),
(1268,1415,o),
(1468,1229,o),
(1462,972,c),
(1513,985,l),
(1522,1262,o),
(1297,1463,o),
(977,1463,cs),
(569,1463,o),
(202,1152,o),
(103,722,c)
);
},
{
closed = 1;
nodes = (
(799,1609,l),
(863,1609,l),
(1039,1771,l),
(1041,1771,l),
(1149,1609,l),
(1213,1609,l),
(1072,1818,l),
(1028,1818,l)
);
}
);
};
layerId = "6871CC57-2503-4E31-BAA0-540E82C15514";
shapes = (
{
ref = C;
},
{
pos = (568,523);
ref = circumflexcomb;
}
);
width = 1474;
},
{
background = {
anchors = (
{
name = bottom;
pos = (662,-12);
},
{
name = top;
pos = (1037,1766);
}
);
shapes = (
{
closed = 1;
nodes = (
(20,292,o),
(254,-19,o),
(661,-19,cs),
(986,-19,o),
(1301,183,o),
(1412,463,c),
(1249,522,l),
(1158,307,o),
(918,151,o),
(678,151,cs),
(392,151,o),
(231,391,o),
(294,722,c),
(371,1053,o),
(651,1293,o),
(960,1293,cs),
(1176,1293,o),
(1333,1141,o),
(1334,932,c),
(1522,981,l),
(1531,1261,o),
(1302,1463,o),
(977,1463,cs),
(569,1463,o),
(202,1152,o),
(103,722,c)
);
},
{
closed = 1;
nodes = (
(720,1558,l),
(914,1558,l),
(1012,1673,l),
(1018,1673,l),
(1070,1558,l),
(1264,1558,l),
(1144,1797,l),
(938,1797,l)
);
}
);
};
layerId = "0655DA90-B56F-496E-8077-C2A69D96FC98";
shapes = (
{
alignment = -1;
ref = C;
},
{
alignment = -1;
pos = (506,523);
ref = circumflexcomb;
}
);
width = 1633;
},
{
background = {
anchors = (
{
name = bottom;
pos = (711,-24);
},
{
name = top;
pos = (1121,1860);
}
);
shapes = (
{
closed = 1;
nodes = (
(10,282,o),
(267,-36,o),
(708,-36,cs),
(1036,-36,o),
(1368,163,o),
(1498,438,c),
(1183,575,l),
(1114,418,o),
(936,304,o),
(760,304,cs),
(566,304,o),
(459,480,o),
(506,722,c),
(562,964,o),
(760,1139,o),
(978,1139,cs),
(1117,1139,o),
(1222,1029,o),
(1227,878,c),
(1600,1015,l),
(1595,1284,o),
(1356,1479,o),
(1030,1479,cs),
(588,1479,o),
(196,1161,o),
(96,721,c)
);
},
{
closed = 1;
nodes = (
(639,1573,l),
(951,1573,l),
(1087,1748,l),
(1097,1748,l),
(1157,1573,l),
(1469,1573,l),
(1317,1922,l),
(941,1922,l)
);
}
);
};
layerId = "F66262BA-5A1D-44F4-BFD7-97C08A9A14E5";
shapes = (
{
alignment = -1;
ref = C;
},
{
alignment = -1;
pos = (413,479);
ref = circumflexcomb;
}
);
width = 1713;
},
{
associatedMasterId = "F66262BA-5A1D-44F4-BFD7-97C08A9A14E5";
background = {
anchors = (
{
name = bottom;
pos = (711,-24);
},
{
name = top;
pos = (1121,1860);
}
);
shapes = (
{
closed = 1;
nodes = (
(10,282,o),
(267,-36,o),
(708,-36,cs),
(1036,-36,o),
(1368,163,o),
(1498,438,c),
(1183,575,l),
(1114,418,o),
(936,304,o),
(760,304,cs),
(566,304,o),
(459,480,o),
(506,722,c),
(562,964,o),
(760,1139,o),
(978,1139,cs),
(1117,1139,o),
(1222,1029,o),
(1227,878,c),
(1600,1015,l),
(1595,1284,o),
(1356,1479,o),
(1030,1479,cs),
(588,1479,o),
(196,1161,o),
(96,721,c)
);
},
{
closed = 1;
nodes = (
(639,1573,l),
(951,1573,l),
(1087,1748,l),
(1097,1748,l),
(1157,1573,l),
(1469,1573,l),
(1317,1922,l),
(941,1922,l)
);
}
);
};
layerId = "3BA8CDBA-E136-4763-B877-B80E2BA6A69F";
name = "11 Dec 25 at 11:53";
shapes = (
{
alignment = -1;
ref = C;
},
{
alignment = -1;
pos = (413,479);
ref = circumflexcomb;
}
);
width = 1713;
},
{
associatedMasterId = "0655DA90-B56F-496E-8077-C2A69D96FC98";
background = {
anchors = (
{
name = bottom;
pos = (662,-12);
},
{
name = top;
pos = (1037,1766);
}
);
shapes = (
{
closed = 1;
nodes = (
(20,292,o),
(254,-19,o),
(661,-19,cs),
(986,-19,o),
(1301,183,o),
(1412,463,c),
(1249,522,l),
(1158,307,o),
(918,151,o),
(678,151,cs),
(392,151,o),
(231,391,o),
(294,722,c),
(371,1053,o),
(651,1293,o),
(960,1293,cs),
(1176,1293,o),
(1333,1141,o),
(1334,932,c),
(1522,981,l),
(1531,1261,o),
(1302,1463,o),
(977,1463,cs),
(569,1463,o),
(202,1152,o),
(103,722,c)
);
},
{
closed = 1;
nodes = (
(720,1558,l),
(914,1558,l),
(1012,1673,l),
(1018,1673,l),
(1070,1558,l),
(1264,1558,l),
(1144,1797,l),
(938,1797,l)
);
}
);
};
layerId = "F7488259-0500-4D49-B949-F46D77F37EAF";
name = "11 Dec 25 at 11:53";
shapes = (
{
alignment = -1;
ref = C;
},
{
alignment = -1;
pos = (506,523);
ref = circumflexcomb;
}
);
width = 1633;
},
{
associatedMasterId = "0CA926B8-BF71-483F-A045-F233B587689B";
background = {
anchors = (
{
name = bottom;
pos = (833,-24);
},
{
name = top;
pos = (833,1890);
}
);
shapes = (
{
closed = 1;
nodes = (
(67,282,o),
(392,-36,o),
(833,-36,cs),
(1162,-36,o),
(1451,163,o),
(1522,438,c),
(1178,575,l),
(1143,418,o),
(998,304,o),
(833,304,cs),
(627,304,o),
(474,480,o),
(470,722,c),
(474,964,o),
(627,1139,o),
(833,1139,cs),
(984,1139,o),
(1121,1029,o),
(1158,878,c),
(1502,1015,l),
(1439,1284,o),
(1158,1479,o),
(833,1479,cs),
(392,1479,o),
(67,1161,o),
(60,721,c)
);
},
{
closed = 1;
nodes = (
(418,1573,l),
(730,1573,l),
(829,1748,l),
(839,1748,l),
(936,1573,l),
(1248,1573,l),
(1022,1922,l),
(646,1922,l)
);
}
);
};
layerId = "DB4AAFCF-811C-4C56-88A9-E7545A8659FF";
name = "11 Dec 25 at 11:53";
shapes = (
{
ref = C;
},
{
pos = (308,479);
ref = circumflexcomb;
}
);
width = 1582;
},
{
associatedMasterId = "6871CC57-2503-4E31-BAA0-540E82C15514";
background = {
anchors = (
{
name = bottom;
pos = (663,-10);
},
{
name = top;
pos = (1041,1777);
}
);
shapes = (
{
closed = 1;
nodes = (
(20,292,o),
(254,-19,o),
(661,-19,cs),
(982,-19,o),
(1292,178,o),
(1399,449,c),
(1354,461,l),
(1252,210,o),
(957,29,o),
(652,29,cs),
(286,29,o),
(76,320,o),
(153,722,c),
(246,1124,o),
(596,1415,o),
(986,1415,cs),
(1268,1415,o),
(1468,1229,o),
(1462,972,c),
(1513,985,l),
(1522,1262,o),
(1297,1463,o),
(977,1463,cs),
(569,1463,o),
(202,1152,o),
(103,722,c)
);
},
{
closed = 1;
nodes = (
(799,1609,l),
(863,1609,l),
(1039,1771,l),
(1041,1771,l),
(1149,1609,l),
(1213,1609,l),
(1072,1818,l),
(1028,1818,l)
);
}
);
};
layerId = "D692B0DB-172C-493D-BD70-4DE47B6644C3";
name = "11 Dec 25 at 11:53";
shapes = (
{
ref = C;
},
{
pos = (568,523);
ref = circumflexcomb;
}
);
width = 1474;
},
{
associatedMasterId = "0A7ECE6A-DF67-46D8-8F43-1681A4AD540C";
background = {
anchors = (
{
name = bottom;
pos = (775,-12);
},
{
name = top;
pos = (767,1766);
}
);
shapes = (
{
closed = 1;
nodes = (
(68,292,o),
(368,-19,o),
(776,-19,cs),
(1101,-19,o),
(1373,183,o),
(1424,463,c),
(1249,522,l),
(1203,307,o),
(1004,151,o),
(776,151,cs),
(478,151,o),
(258,391,o),
(251,722,c),
(258,1053,o),
(478,1293,o),
(776,1293,cs),
(1003,1293,o),
(1201,1141,o),
(1246,932,c),
(1424,981,l),
(1373,1261,o),
(1101,1463,o),
(776,1463,cs),
(368,1463,o),
(68,1152,o),
(60,722,c)
);
},
{
closed = 1;
nodes = (
(505,1558,l),
(699,1558,l),
(773,1673,l),
(779,1673,l),
(855,1558,l),
(1049,1558,l),
(879,1797,l),
(673,1797,l)
);
}
);
};
layerId = "AD6A1DB8-4F65-4498-9625-4D29FB65CA4E";
name = "11 Dec 25 at 11:53";
shapes = (
{
ref = C;
},
{
pos = (395,523);
ref = circumflexcomb;
}
);
width = 1484;
},
{
associatedMasterId = "B1815A28-7A99-448B-912A-F8CD41C6863A";
background = {
anchors = (
{
name = bottom;
pos = (776,-10);
},
{
name = top;
pos = (774,1777);
}
);
shapes = (
{
closed = 1;
nodes = (
(68,292,o),
(368,-19,o),
(776,-19,cs),
(1097,-19,o),
(1365,178,o),
(1414,449,c),
(1366,461,l),
(1318,210,o),
(1070,29,o),
(776,29,cs),
(397,29,o),
(118,320,o),
(110,722,c),
(118,1124,o),
(397,1415,o),
(776,1415,cs),
(1069,1415,o),
(1317,1229,o),
(1366,972,c),
(1414,985,l),
(1364,1262,o),
(1096,1463,o),
(776,1463,cs),
(368,1463,o),
(68,1152,o),
(60,722,c)
);
},
{
closed = 1;
nodes = (
(567,1609,l),
(631,1609,l),
(773,1771,l),
(775,1771,l),
(917,1609,l),
(981,1609,l),
(796,1818,l),
(752,1818,l)
);
}
);
};
layerId = "DE28D0C1-198D-4851-8B37-F226DFD8254B";
name = "11 Dec 25 at 11:53";
shapes = (
{
ref = C;
},
{
pos = (457,523);
ref = circumflexcomb;
}
);
width = 1474;
}
);
unicode = 264;
},
{
color = 6;
glyphname = D;
kernLeft = flat;
kernRight = round;
lastChange = "2025-12-11 10:41:50 +0000";
layers = (
{
anchors = (
{
name = bottom;
pos = (529,0);
},
{
name = center;
pos = (662,722);
},
{
name = top;
pos = (529,1443);
},
{
name = tophook;
pos = (329,1443);
}
);
layerId = "B1815A28-7A99-448B-912A-F8CD41C6863A";
shapes = (
{
closed = 1;
nodes = (
(150,0,l),
(150,1443,l),
(100,1443,l),
(100,0,l)
);
},
{
closed = 1;
nodes = (
(127,0,l),
(541,0,ls),
(984,0,o),
(1279,289,o),
(1279,723,cs),
(1279,1155,o),
(984,1443,o),
(541,1443,cs),
(127,1443,l),
(127,1395,l),
(541,1395,ls),
(954,1395,o),
(1229,1126,o),
(1229,723,cs),
(1229,318,o),
(954,48,o),
(541,48,cs),
(127,48,l)
);
}
);
width = 1339;
},
{
anchors = (
{
name = bottom;
pos = (538,0);
},
{
name = center;
pos = (641,722);
},
{
name = top;
pos = (538,1443);
},
{
name = tophook;
pos = (398,1443);
}
);
layerId = "0A7ECE6A-DF67-46D8-8F43-1681A4AD540C";
shapes = (
{
closed = 1;
nodes = (
(280,0,l),
(280,1443,l),
(100,1443,l),
(100,0,l)
);
},
{
closed = 1;
nodes = (
(191,0,l),
(586,0,ls),
(1029,0,o),
(1324,293,o),
(1324,733,cs),
(1324,1159,o),
(1025,1443,o),
(576,1443,cs),
(191,1443,l),
(191,1273,l),
(576,1273,ls),
(917,1273,o),
(1144,1057,o),
(1144,733,cs),
(1144,395,o),
(921,170,o),
(586,170,cs),
(191,170,l)
);
}
);
width = 1384;
},
{
anchors = (
{
name = bottom;
pos = (638,0);
},
{
name = center;
pos = (798,722);
},
{
name = top;
pos = (638,1443);
},
{
name = tophook;
pos = (398,1443);
}
);
layerId = "0CA926B8-BF71-483F-A045-F233B587689B";
shapes = (
{
closed = 1;
nodes = (
(510,0,l),
(510,1443,l),
(100,1443,l),
(100,0,l)
);
},
{
closed = 1;
nodes = (
(308,0,l),
(656,0,ls),
(1129,0,o),
(1444,293,o),
(1444,733,cs),
(1444,1159,o),
(1125,1443,o),
(646,1443,cs),
(308,1443,l),
(308,1093,l),
(646,1093,ls),
(879,1093,o),
(1034,943,o),
(1034,733,cs),
(1034,509,o),
(883,350,o),
(656,350,cs),
(308,350,l)
);
}
);
width = 1504;
},
{
anchors = (
{
name = bottom;
pos = (389,0);
},
{
name = center;
pos = (675,722);
},
{
name = top;
pos = (695,1443);
},
{
name = tophook;
pos = (495,1443);
}
);
layerId = "6871CC57-2503-4E31-BAA0-540E82C15514";
shapes = (
{
closed = 1;
nodes = (
(40,0,l),
(346,1443,l),
(296,1443,l),
(-10,0,l)
);
},
{
closed = 1;
nodes = (
(17,0,l),
(471,0,ls),
(900,0,o),
(1194,259,o),
(1292,723,cs),
(1391,1185,o),
(1188,1443,o),
(727,1443,cs),
(323,1443,l),
(313,1395,l),
(747,1395,ls),
(1157,1395,o),
(1334,1154,o),
(1242,723,cs),
(1150,290,o),
(870,48,o),
(461,48,cs),
(27,48,l)
);
}
);
width = 1309;
},
{
anchors = (
{
name = bottom;
pos = (409,0);
},
{
name = center;
pos = (665,722);
},
{
name = top;
pos = (715,1443);
},
{
name = tophook;
pos = (575,1443);
}
);
layerId = "0655DA90-B56F-496E-8077-C2A69D96FC98";
shapes = (
{
closed = 1;
nodes = (
(171,0,l),
(477,1443,l),
(296,1443,l),
(-8,0,l)
);
},
{
closed = 1;
nodes = (
(82,0,l),
(577,0,ls),
(974,0,o),
(1251,263,o),
(1350,733,cs),
(1447,1188,o),
(1233,1443,o),
(753,1443,cs),
(388,1443,l),
(352,1273,l),
(787,1273,ls),
(1107,1273,o),
(1244,1079,o),
(1170,733,cs),
(1094,372,o),
(876,170,o),
(563,170,cs),
(118,170,l)
);
}
);
width = 1365;
},
{
anchors = (
{
name = bottom;
pos = (523,0);
},
{
name = center;
pos = (836,722);
},
{
name = top;
pos = (829,1443);
},
{
name = tophook;
pos = (589,1443);
}
);
layerId = "F66262BA-5A1D-44F4-BFD7-97C08A9A14E5";
shapes = (
{
closed = 1;
nodes = (
(395,0,l),
(701,1443,l),
(290,1443,l),
(-14,0,l)
);
},
{
closed = 1;
nodes = (
(193,0,l),
(671,0,ls),
(1093,0,o),
(1385,263,o),
(1484,733,cs),
(1581,1188,o),
(1328,1443,o),
(777,1443,cs),
(499,1443,l),
(425,1093,l),
(773,1093,ls),
(997,1093,o),
(1124,964,o),
(1074,733,cs),
(1022,487,o),
(912,350,o),
(695,350,cs),
(267,350,l)
);
}
);
width = 1505;
}
);
metricLeft = H;
metricRight = O;
unicode = 68;
},
{
color = 3;
glyphname = Eth;
kernRight = D;
lastChange = "2025-12-11 14:59:47 +0000";
layers = (
{
layerId = "B1815A28-7A99-448B-912A-F8CD41C6863A";
shapes = (
{
closed = 1;
nodes = (
(695,698,l),
(695,746,l),
(58,746,l),
(58,698,l)
);
},
{
pos = (138,0);
ref = D;
}
);
width = 1477;
},
{
layerId = "0A7ECE6A-DF67-46D8-8F43-1681A4AD540C";
shapes = (
{
closed = 1;
nodes = (
(674,647,l),
(674,797,l),
(37,797,l),
(37,647,l)
);
},
{
pos = (77,0);
ref = D;
}
);
width = 1461;
},
{
layerId = "0CA926B8-BF71-483F-A045-F233B587689B";
shapes = (
{
closed = 1;
nodes = (
(757,606,l),
(757,838,l),
(10,838,l),
(10,606,l)
);
},
{
pos = (-4,0);
ref = D;
}
);
width = 1500;
},
{
layerId = "6871CC57-2503-4E31-BAA0-540E82C15514";
shapes = (
{
closed = 1;
nodes = (
(806,698,l),
(816,746,l),
(179,746,l),
(169,698,l)
);
},
{
pos = (254,0);
ref = D;
}
);
width = 1563;
},
{
layerId = "0655DA90-B56F-496E-8077-C2A69D96FC98";
shapes = (
{
closed = 1;
nodes = (
(774,647,l),
(806,797,l),
(169,797,l),
(137,647,l)
);
},
{
pos = (153,0);
ref = D;
}
);
width = 1518;
},
{
layerId = "F66262BA-5A1D-44F4-BFD7-97C08A9A14E5";
shapes = (
{
closed = 1;
nodes = (
(849,606,l),
(899,838,l),
(152,838,l),
(102,606,l)
);
},
{
pos = (93,0);
ref = D;
}
);
width = 1598;
}
);
metricLeft = hbar;
metricRight = D;
unicode = 208;
},
{
color = 6;
glyphname = E;
kernLeft = E;
kernRight = E;
lastChange = "2025-12-11 13:24:44 +0000";
layers = (
{
anchors = (
{
name = bottom;
pos = (568,0);
},
{
name = ogonek;
pos = (968,1);
},
{
name = top;
pos = (568,1443);
},
{
name = topleft;
pos = (-75,1443);
}
);
layerId = "B1815A28-7A99-448B-912A-F8CD41C6863A";
shapes = (
{
closed = 1;
nodes = (
(1058,0,l),
(1058,48,l),
(150,48,l),
(150,716,l),
(994,716,l),
(994,764,l),
(150,764,l),
(150,1395,l),
(1058,1395,l),
(1058,1443,l),
(100,1443,l),
(100,0,l)
);
}
);
width = 1098;
},
{
anchors = (
{
name = bottom;
pos = (586,0);
},
{
name = ogonek;
pos = (955,0);
},
{
name = top;
pos = (586,1443);
},
{
name = topleft;
pos = (-135,1443);
}
);
layerId = "0A7ECE6A-DF67-46D8-8F43-1681A4AD540C";
shapes = (
{
closed = 1;
nodes = (
(1062,0,l),
(1062,160,l),
(280,160,l),
(280,650,l),
(998,650,l),
(998,810,l),
(280,810,l),
(280,1282,l),
(1062,1282,l),
(1062,1442,l),
(100,1442,l),
(100,0,l)
);
}
);
width = 1102;
},
{
anchors = (
{
name = bottom;
pos = (635,0);
},
{
name = ogonek;
pos = (1035,1);
},
{
name = top;
pos = (635,1443);
},
{
name = topleft;
pos = (-202,1443);
}
);
layerId = "0CA926B8-BF71-483F-A045-F233B587689B";
shapes = (
{
closed = 1;
nodes = (
(1184,0,l),
(1184,350,l),
(510,350,l),
(510,571,l),
(1108,571,l),
(1108,881,l),
(510,881,l),
(510,1092,l),
(1160,1092,l),
(1160,1442,l),
(100,1442,l),
(100,0,l)
);
}
);
width = 1224;
},
{
anchors = (
{
name = bottom;
pos = (498,0);
},
{
name = ogonek;
pos = (858,1);
},
{
name = top;
pos = (764,1443);
},
{
name = topleft;
pos = (-149,1443);
}
);
layerId = "6871CC57-2503-4E31-BAA0-540E82C15514";
shapes = (
{
closed = 1;
nodes = (
(888,0,l),
(898,48,l),
(50,48,l),
(192,716,l),
(976,716,l),
(986,764,l),
(202,764,l),
(336,1395,l),
(1184,1395,l),
(1194,1443,l),
(296,1443,l),
(-10,0,l)
);
}
);
width = 1119;
},
{
anchors = (
{
name = bottom;
pos = (506,0);
},
{
name = ogonek;
pos = (845,0);
},
{
name = top;
pos = (782,1443);
},
{
name = topleft;
pos = (-249,1443);
}
);
layerId = "0655DA90-B56F-496E-8077-C2A69D96FC98";
shapes = (
{
closed = 1;
nodes = (
(932,0,l),
(966,160,l),
(204,160,l),
(308,650,l),
(1006,650,l),
(1040,810,l),
(342,810,l),
(442,1282,l),
(1204,1282,l),
(1238,1441,l),
(296,1443,l),
(-10,0,l)
);
}
);
width = 1143;
},
{
anchors = (
{
name = bottom;
pos = (569,0);
},
{
name = ogonek;
pos = (919,1);
},
{
name = top;
pos = (864,1443);
},
{
name = topleft;
pos = (-312,1443);
}
);
layerId = "F66262BA-5A1D-44F4-BFD7-97C08A9A14E5";
shapes = (
{
closed = 1;
nodes = (
(1068,0,l),
(1142,350,l),
(468,350,l),
(515,571,l),
(1113,571,l),
(1179,881,l),
(581,881,l),
(626,1092,l),
(1276,1092,l),
(1350,1443,l),
(290,1443,l),
(-16,0,l)
);
}
);
width = 1305;
}
);
metricLeft = H;
unicode = 69;
},
{
color = 10;
glyphname = Ecedilla;
kernLeft = E;
kernRight = E;
lastChange = "2025-12-11 10:53:19 +0000";
layers = (
{
background = {
anchors = (
{
name = bottom;
pos = (574,-383);
},
{
name = ogonek;
pos = (968,1);
},
{
name = top;
pos = (568,1443);
},
{
name = topleft;
pos = (-75,1443);
}
);
shapes = (
{
closed = 1;
nodes = (
(1058,0,l),
(1058,48,l),
(150,48,l),
(150,716,l),
(994,716,l),
(994,764,l),
(150,764,l),
(150,1395,l),
(1058,1395,l),
(1058,1443,l),
(100,1443,l),
(100,0,l)
);
},
{
closed = 1;
nodes = (
(671,-347,o),
(766,-297,o),
(766,-207,cs),
(766,-128,o),
(697,-83,o),
(573,-81,c),
(592,0,l),
(542,0,l),
(512,-126,l),
(643,-125,o),
(716,-153,o),
(716,-204,cs),
(716,-265,o),
(639,-299,o),
(501,-299,c),
(500,-347,l)
);
}
);
};
layerId = "B1815A28-7A99-448B-912A-F8CD41C6863A";
shapes = (
{
ref = E;
},
{
pos = (390,0);
ref = cedillacomb;
}
);
width = 1098;
},
{
background = {
anchors = (
{
name = bottom;
pos = (590,-437);
},
{
name = ogonek;
pos = (955,0);
},
{
name = top;
pos = (586,1443);
},
{
name = topleft;
pos = (-135,1443);
}
);
shapes = (
{
closed = 1;
nodes = (
(1062,0,l),
(1062,160,l),
(280,160,l),
(280,650,l),
(998,650,l),
(998,810,l),
(280,810,l),
(280,1282,l),
(1062,1282,l),
(1062,1442,l),
(100,1442,l),
(100,0,l)
);
},
{
closed = 1;
nodes = (
(660,-365,o),
(792,-298,o),
(792,-195,cs),
(792,-126,o),
(731,-75,o),
(637,-65,c),
(647,2,l),
(521,2,l),
(493,-144,l),
(596,-143,o),
(662,-163,o),
(662,-195,cs),
(662,-221,o),
(591,-237,o),
(480,-237,c),
(456,-365,l)
);
}
);
};
layerId = "0A7ECE6A-DF67-46D8-8F43-1681A4AD540C";
shapes = (
{
ref = E;
},
{
pos = (346,0);
ref = cedillacomb;
}
);
width = 1102;
},
{
background = {
anchors = (
{
name = bottom;
pos = (591,-383);
},
{
name = ogonek;
pos = (1035,1);
},
{
name = top;
pos = (635,1443);
},
{
name = topleft;
pos = (-202,1443);
}
);
shapes = (
{
closed = 1;
nodes = (
(1184,0,l),
(1184,350,l),
(510,350,l),
(510,571,l),
(1108,571,l),
(1108,881,l),
(510,881,l),
(510,1092,l),
(1160,1092,l),
(1160,1442,l),
(100,1442,l),
(100,0,l)
);
},
{
closed = 1;
nodes = (
(726,-409,o),
(892,-326,o),
(892,-198,cs),
(892,-112,o),
(834,-57,o),
(737,-57,c),
(743,0,l),
(515,0,l),
(499,-149,l),
(630,-149,o),
(695,-169,o),
(695,-201,cs),
(695,-230,o),
(628,-248,o),
(493,-248,c),
(469,-409,l)
);
}
);
};
layerId = "0CA926B8-BF71-483F-A045-F233B587689B";
shapes = (
{
ref = E;
},
{
pos = (359,0);
ref = cedillacomb;
}
);
width = 1224;
},
{
background = {
anchors = (
{
name = bottom;
pos = (441,-383);
},
{
name = ogonek;
pos = (858,1);
},
{
name = top;
pos = (764,1443);
},
{
name = topleft;
pos = (-149,1443);
}
);
shapes = (
{
closed = 1;
nodes = (
(888,0,l),
(898,48,l),
(50,48,l),
(192,716,l),
(976,716,l),
(986,764,l),
(202,764,l),
(336,1395,l),
(1184,1395,l),
(1194,1443,l),
(296,1443,l),
(-10,0,l)
);
},
{
closed = 1;
nodes = (
(546,-347,o),
(652,-297,o),
(671,-207,cs),
(687,-128,o),
(628,-83,o),
(504,-81,c),
(541,0,l),
(491,0,l),
(434,-126,l),
(565,-125,o),
(632,-153,o),
(621,-204,cs),
(608,-265,o),
(524,-299,o),
(386,-299,c),
(375,-347,l)
);
}
);
};
layerId = "6871CC57-2503-4E31-BAA0-540E82C15514";
shapes = (
{
alignment = -1;
ref = E;
},
{
alignment = -1;
pos = (448,0);
ref = cedillacomb;
}
);
width = 1179;
},
{
background = {
anchors = (
{
name = bottom;
pos = (431,-437);
},
{
name = ogonek;
pos = (845,0);
},
{
name = top;
pos = (782,1443);
},
{
name = topleft;
pos = (-249,1443);
}
);
shapes = (
{
closed = 1;
nodes = (
(932,0,l),
(966,160,l),
(204,160,l),
(308,650,l),
(1006,650,l),
(1040,810,l),
(342,810,l),
(442,1282,l),
(1204,1282,l),
(1238,1441,l),
(296,1443,l),
(-10,0,l)
);
},
{
closed = 1;
nodes = (
(517,-365,o),
(663,-298,o),
(685,-195,cs),
(699,-126,o),
(649,-75,o),
(557,-65,c),
(582,2,l),
(456,2,l),
(397,-144,l),
(500,-143,o),
(562,-163,o),
(555,-195,cs),
(549,-221,o),
(475,-237,o),
(364,-237,c),
(313,-365,l)
);
}
);
};
layerId = "0655DA90-B56F-496E-8077-C2A69D96FC98";
shapes = (
{
alignment = -1;
ref = E;
},
{
alignment = -1;
pos = (396,0);
ref = cedillacomb;
}
);
width = 1223;
},
{
background = {
anchors = (
{
name = bottom;
pos = (463,-383);
},
{
name = ogonek;
pos = (919,1);
},
{
name = top;
pos = (864,1443);
},
{
name = topleft;
pos = (-312,1443);
}
);
shapes = (
{
closed = 1;
nodes = (
(1068,0,l),
(1142,350,l),
(468,350,l),
(515,571,l),
(1113,571,l),
(1179,881,l),
(581,881,l),
(626,1092,l),
(1276,1092,l),
(1350,1441,l),
(290,1443,l),
(-16,0,l)
);
},
{
closed = 1;
nodes = (
(591,-439,o),
(802,-348,o),
(829,-218,cs),
(850,-123,o),
(794,-57,o),
(694,-57,c),
(717,0,l),
(459,0,l),
(391,-149,l),
(518,-149,o),
(603,-170,o),
(596,-201,cs),
(590,-229,o),
(494,-248,o),
(364,-248,c),
(319,-439,l)
);
}
);
};
layerId = "F66262BA-5A1D-44F4-BFD7-97C08A9A14E5";
shapes = (
{
alignment = -1;
ref = E;
},
{
alignment = -1;
pos = (419,0);
ref = cedillacomb;
}
);
width = 1365;
},
{
associatedMasterId = "F66262BA-5A1D-44F4-BFD7-97C08A9A14E5";
background = {
anchors = (
{
name = bottom;
pos = (463,-383);
},
{
name = ogonek;
pos = (919,1);
},
{
name = top;
pos = (864,1443);
},
{
name = topleft;
pos = (-312,1443);
}
);
shapes = (
{
closed = 1;
nodes = (
(1068,0,l),
(1142,350,l),
(468,350,l),
(515,571,l),
(1113,571,l),
(1179,881,l),
(581,881,l),
(626,1092,l),
(1276,1092,l),
(1350,1441,l),
(290,1443,l),
(-16,0,l)
);
},
{
closed = 1;
nodes = (
(591,-439,o),
(802,-348,o),
(829,-218,cs),
(850,-123,o),
(794,-57,o),
(694,-57,c),
(717,0,l),
(459,0,l),
(391,-149,l),
(518,-149,o),
(603,-170,o),
(596,-201,cs),
(590,-229,o),
(494,-248,o),
(364,-248,c),
(319,-439,l)
);
}
);
};
layerId = "76FE6D34-72AC-49C8-8406-A225795AB442";
name = "11 Dec 25 at 11:53";
shapes = (
{
alignment = -1;
ref = E;
},
{
alignment = -1;
pos = (419,0);
ref = cedillacomb;
}
);
width = 1365;
},
{
associatedMasterId = "0655DA90-B56F-496E-8077-C2A69D96FC98";
background = {
anchors = (
{
name = bottom;
pos = (431,-437);
},
{
name = ogonek;
pos = (845,0);
},
{
name = top;
pos = (782,1443);
},
{
name = topleft;
pos = (-249,1443);
}
);
shapes = (
{
closed = 1;
nodes = (
(932,0,l),
(966,160,l),
(204,160,l),
(308,650,l),
(1006,650,l),
(1040,810,l),
(342,810,l),
(442,1282,l),
(1204,1282,l),
(1238,1441,l),
(296,1443,l),
(-10,0,l)
);
},
{
closed = 1;
nodes = (
(517,-365,o),
(663,-298,o),
(685,-195,cs),
(699,-126,o),
(649,-75,o),
(557,-65,c),
(582,2,l),
(456,2,l),
(397,-144,l),
(500,-143,o),
(562,-163,o),
(555,-195,cs),
(549,-221,o),
(475,-237,o),
(364,-237,c),
(313,-365,l)
);
}
);
};
layerId = "2BE27227-15EA-487E-B5FD-F69F5393BEDD";
name = "11 Dec 25 at 11:53";
shapes = (
{
alignment = -1;
ref = E;
},
{
alignment = -1;
pos = (396,0);
ref = cedillacomb;
}
);
width = 1223;
},
{
associatedMasterId = "0CA926B8-BF71-483F-A045-F233B587689B";
background = {
anchors = (
{
name = bottom;
pos = (591,-383);
},
{
name = ogonek;
pos = (1035,1);
},
{
name = top;
pos = (635,1443);
},
{
name = topleft;
pos = (-202,1443);
}
);
shapes = (
{
closed = 1;
nodes = (
(1184,0,l),
(1184,350,l),
(510,350,l),
(510,571,l),
(1108,571,l),
(1108,881,l),
(510,881,l),
(510,1092,l),
(1160,1092,l),
(1160,1442,l),
(100,1442,l),
(100,0,l)
);
},
{
closed = 1;
nodes = (
(726,-409,o),
(892,-326,o),
(892,-198,cs),
(892,-112,o),
(834,-57,o),
(737,-57,c),
(743,0,l),
(515,0,l),
(499,-149,l),
(630,-149,o),
(695,-169,o),
(695,-201,cs),
(695,-230,o),
(628,-248,o),
(493,-248,c),
(469,-409,l)
);
}
);
};
layerId = "2813762C-9B11-48AF-8AB4-FCCC92596381";
name = "11 Dec 25 at 11:53";
shapes = (
{
ref = E;
},
{
pos = (359,0);
ref = cedillacomb;
}
);
width = 1224;
},
{
associatedMasterId = "6871CC57-2503-4E31-BAA0-540E82C15514";
background = {
anchors = (
{
name = bottom;
pos = (441,-383);
},
{
name = ogonek;
pos = (858,1);
},
{
name = top;
pos = (764,1443);
},
{
name = topleft;
pos = (-149,1443);
}
);
shapes = (
{
closed = 1;
nodes = (
(888,0,l),
(898,48,l),
(50,48,l),
(192,716,l),
(976,716,l),
(986,764,l),
(202,764,l),
(336,1395,l),
(1184,1395,l),
(1194,1443,l),
(296,1443,l),
(-10,0,l)
);
},
{
closed = 1;
nodes = (
(546,-347,o),
(652,-297,o),
(671,-207,cs),
(687,-128,o),
(628,-83,o),
(504,-81,c),
(541,0,l),
(491,0,l),
(434,-126,l),
(565,-125,o),
(632,-153,o),
(621,-204,cs),
(608,-265,o),
(524,-299,o),
(386,-299,c),
(375,-347,l)
);
}
);
};
layerId = "C6AAFD42-634F-4933-8A11-30566AD8785E";
name = "11 Dec 25 at 11:53";
shapes = (
{
alignment = -1;
ref = E;
},
{
alignment = -1;
pos = (448,0);
ref = cedillacomb;
}
);
width = 1179;
},
{
associatedMasterId = "0A7ECE6A-DF67-46D8-8F43-1681A4AD540C";
background = {
anchors = (
{
name = bottom;
pos = (590,-437);
},
{
name = ogonek;
pos = (955,0);
},
{
name = top;
pos = (586,1443);
},
{
name = topleft;
pos = (-135,1443);
}
);
shapes = (
{
closed = 1;
nodes = (
(1062,0,l),
(1062,160,l),
(280,160,l),
(280,650,l),
(998,650,l),
(998,810,l),
(280,810,l),
(280,1282,l),
(1062,1282,l),
(1062,1442,l),
(100,1442,l),
(100,0,l)
);
},
{
closed = 1;
nodes = (
(660,-365,o),
(792,-298,o),
(792,-195,cs),
(792,-126,o),
(731,-75,o),
(637,-65,c),
(647,2,l),
(521,2,l),
(493,-144,l),
(596,-143,o),
(662,-163,o),
(662,-195,cs),
(662,-221,o),
(591,-237,o),
(480,-237,c),
(456,-365,l)
);
}
);
};
layerId = "C9C413AF-D5E9-4CA9-8B62-01691977BC59";
name = "11 Dec 25 at 11:53";
shapes = (
{
ref = E;
},
{
pos = (346,0);
ref = cedillacomb;
}
);
width = 1102;
},
{
associatedMasterId = "B1815A28-7A99-448B-912A-F8CD41C6863A";
background = {
anchors = (
{
name = bottom;
pos = (574,-383);
},
{
name = ogonek;
pos = (968,1);
},
{
name = top;
pos = (568,1443);
},
{
name = topleft;
pos = (-75,1443);
}
);
shapes = (
{
closed = 1;
nodes = (
(1058,0,l),
(1058,48,l),
(150,48,l),
(150,716,l),
(994,716,l),
(994,764,l),
(150,764,l),
(150,1395,l),
(1058,1395,l),
(1058,1443,l),
(100,1443,l),
(100,0,l)
);
},
{
closed = 1;
nodes = (
(671,-347,o),
(766,-297,o),
(766,-207,cs),
(766,-128,o),
(697,-83,o),
(573,-81,c),
(592,0,l),
(542,0,l),
(512,-126,l),
(643,-125,o),
(716,-153,o),
(716,-204,cs),
(716,-265,o),
(639,-299,o),
(501,-299,c),
(500,-347,l)
);
}
);
};
layerId = "86A17199-9622-495F-B90D-E13498365660";
name = "11 Dec 25 at 11:53";
shapes = (
{
ref = E;
},
{
pos = (390,0);
ref = cedillacomb;
}
);
width = 1098;
}
);
unicode = 552;
},
{
color = 10;
glyphname = Etilde;
kernLeft = E;
kernRight = E;
lastChange = "2025-12-11 10:53:19 +0000";
layers = (
{
background = {
anchors = (
{
name = bottom;
pos = (568,0);
},
{
name = ogonek;
pos = (968,1);
},
{
name = top;
pos = (568,1627);
},
{
name = topleft;
pos = (-75,1443);
}
);
shapes = (
{
closed = 1;
nodes = (
(1058,0,l),
(1058,48,l),
(150,48,l),
(150,716,l),
(994,716,l),
(994,764,l),
(150,764,l),
(150,1395,l),
(1058,1395,l),
(1058,1443,l),
(100,1443,l),
(100,0,l)
);
},
{
closed = 1;
nodes = (
(377,1587,l),
(408,1618,o),
(446,1637,o),
(477,1637,cs),
(535,1637,o),
(586,1575,o),
(651,1575,cs),
(686,1575,o),
(726,1592,o),
(754,1623,c),
(753,1675,l),
(720,1644,o),
(681,1624,o),
(651,1624,cs),
(600,1624,o),
(544,1686,o),
(477,1686,cs),
(449,1686,o),
(410,1669,o),
(377,1639,c)
);
}
);
};
layerId = "B1815A28-7A99-448B-912A-F8CD41C6863A";
shapes = (
{
ref = E;
},
{
pos = (267,403);
ref = tildecomb;
}
);
width = 1098;
},
{
background = {
anchors = (
{
name = bottom;
pos = (586,0);
},
{
name = ogonek;
pos = (955,0);
},
{
name = top;
pos = (586,1737);
},
{
name = topleft;
pos = (-135,1443);
}
);
shapes = (
{
closed = 1;
nodes = (
(1062,0,l),
(1062,160,l),
(280,160,l),
(280,650,l),
(998,650,l),
(998,810,l),
(280,810,l),
(280,1282,l),
(1062,1282,l),
(1062,1442,l),
(100,1442,l),
(100,0,l)
);
},
{
closed = 1;
nodes = (
(326,1582,l),
(367,1613,o),
(426,1632,o),
(481,1632,cs),
(553,1632,o),
(616,1578,o),
(697,1578,cs),
(754,1578,o),
(809,1597,o),
(839,1628,c),
(839,1764,l),
(798,1737,o),
(741,1720,o),
(689,1720,cs),
(626,1720,o),
(564,1774,o),
(481,1774,cs),
(430,1774,o),
(371,1752,o),
(326,1718,c)
);
}
);
};
layerId = "0A7ECE6A-DF67-46D8-8F43-1681A4AD540C";
shapes = (
{
ref = E;
},
{
pos = (216,503);
ref = tildecomb;
}
);
width = 1102;
},
{
background = {
anchors = (
{
name = bottom;
pos = (635,0);
},
{
name = ogonek;
pos = (1035,1);
},
{
name = top;
pos = (635,1869);
},
{
name = topleft;
pos = (-202,1443);
}
);
shapes = (
{
closed = 1;
nodes = (
(1184,0,l),
(1184,350,l),
(510,350,l),
(510,571,l),
(1108,571,l),
(1108,881,l),
(510,881,l),
(510,1092,l),
(1160,1092,l),
(1160,1442,l),
(100,1442,l),
(100,0,l)
);
},
{
closed = 1;
nodes = (
(265,1614,l),
(343,1659,o),
(430,1687,o),
(489,1687,cs),
(587,1687,o),
(672,1590,o),
(781,1590,cs),
(883,1590,o),
(975,1624,o),
(1023,1677,c),
(1023,1897,l),
(967,1857,o),
(883,1832,o),
(808,1832,cs),
(723,1832,o),
(628,1929,o),
(516,1929,cs),
(444,1929,o),
(347,1899,o),
(265,1835,c)
);
}
);
};
layerId = "0CA926B8-BF71-483F-A045-F233B587689B";
shapes = (
{
ref = E;
},
{
pos = (155,442);
ref = tildecomb;
}
);
width = 1224;
},
{
background = {
anchors = (
{
name = bottom;
pos = (498,0);
},
{
name = ogonek;
pos = (858,1);
},
{
name = top;
pos = (825,1627);
},
{
name = topleft;
pos = (-149,1443);
}
);
shapes = (
{
closed = 1;
nodes = (
(888,0,l),
(898,48,l),
(50,48,l),
(192,716,l),
(976,716,l),
(986,764,l),
(202,764,l),
(336,1395,l),
(1184,1395,l),
(1194,1443,l),
(296,1443,l),
(-10,0,l)
);
},
{
closed = 1;
nodes = (
(606,1587,l),
(649,1617,o),
(697,1637,o),
(727,1637,cs),
(785,1637,o),
(809,1575,o),
(874,1575,cs),
(919,1575,o),
(967,1590,o),
(998,1613,c),
(1019,1675,l),
(973,1644,o),
(924,1624,o),
(895,1624,cs),
(844,1624,o),
(815,1686,o),
(748,1686,cs),
(709,1686,o),
(662,1671,o),
(628,1649,c)
);
}
);
};
layerId = "6871CC57-2503-4E31-BAA0-540E82C15514";
shapes = (
{
alignment = -1;
ref = E;
},
{
alignment = -1;
pos = (354,403);
ref = tildecomb;
}
);
width = 1179;
},
{
background = {
anchors = (
{
name = bottom;
pos = (506,0);
},
{
name = ogonek;
pos = (845,0);
},
{
name = top;
pos = (857,1737);
},
{
name = topleft;
pos = (-249,1443);
}
);
shapes = (
{
closed = 1;
nodes = (
(932,0,l),
(966,160,l),
(204,160,l),
(308,650,l),
(1006,650,l),
(1040,810,l),
(342,810,l),
(442,1282,l),
(1204,1282,l),
(1238,1441,l),
(296,1443,l),
(-10,0,l)
);
},
{
closed = 1;
nodes = (
(567,1582,l),
(615,1613,o),
(678,1632,o),
(733,1632,cs),
(805,1632,o),
(856,1578,o),
(937,1578,cs),
(994,1578,o),
(1053,1597,o),
(1090,1628,c),
(1119,1764,l),
(1072,1737,o),
(1011,1720,o),
(959,1720,cs),
(896,1720,o),
(846,1774,o),
(763,1774,cs),
(712,1774,o),
(648,1752,o),
(596,1718,c)
);
}
);
};
layerId = "0655DA90-B56F-496E-8077-C2A69D96FC98";
shapes = (
{
alignment = -1;
ref = E;
},
{
alignment = -1;
pos = (343,503);
ref = tildecomb;
}
);
width = 1223;
},
{
background = {
anchors = (
{
name = bottom;
pos = (569,0);
},
{
name = ogonek;
pos = (919,1);
},
{
name = top;
pos = (855,1869);
},
{
name = topleft;
pos = (-312,1443);
}
);
shapes = (
{
closed = 1;
nodes = (
(1068,0,l),
(1142,350,l),
(468,350,l),
(515,571,l),
(1113,571,l),
(1179,881,l),
(581,881,l),
(626,1092,l),
(1276,1092,l),
(1350,1441,l),
(290,1443,l),
(-16,0,l)
);
},
{
closed = 1;
nodes = (
(444,1614,l),
(532,1659,o),
(625,1687,o),
(684,1687,cs),
(782,1687,o),
(846,1590,o),
(955,1590,cs),
(1057,1590,o),
(1156,1624,o),
(1215,1677,c),
(1262,1897,l),
(1198,1857,o),
(1108,1832,o),
(1033,1832,cs),
(948,1832,o),
(874,1929,o),
(762,1929,cs),
(690,1929,o),
(587,1899,o),
(491,1835,c)
);
}
);
};
layerId = "F66262BA-5A1D-44F4-BFD7-97C08A9A14E5";
shapes = (
{
alignment = -1;
ref = E;
},
{
alignment = -1;
pos = (202,442);
ref = tildecomb;
}
);
width = 1365;
},
{
associatedMasterId = "F66262BA-5A1D-44F4-BFD7-97C08A9A14E5";
background = {
anchors = (
{
name = bottom;
pos = (569,0);
},
{
name = ogonek;
pos = (919,1);
},
{
name = top;
pos = (855,1869);
},
{
name = topleft;
pos = (-312,1443);
}
);
shapes = (
{
closed = 1;
nodes = (
(1068,0,l),
(1142,350,l),
(468,350,l),
(515,571,l),
(1113,571,l),
(1179,881,l),
(581,881,l),
(626,1092,l),
(1276,1092,l),
(1350,1441,l),
(290,1443,l),
(-16,0,l)
);
},
{
closed = 1;
nodes = (
(444,1614,l),
(532,1659,o),
(625,1687,o),
(684,1687,cs),
(782,1687,o),
(846,1590,o),
(955,1590,cs),
(1057,1590,o),
(1156,1624,o),
(1215,1677,c),
(1262,1897,l),
(1198,1857,o),
(1108,1832,o),
(1033,1832,cs),
(948,1832,o),
(874,1929,o),
(762,1929,cs),
(690,1929,o),
(587,1899,o),
(491,1835,c)
);
}
);
};
layerId = "9D857797-3F4A-49DF-B3AA-1A601B25F357";
name = "11 Dec 25 at 11:53";
shapes = (
{
alignment = -1;
ref = E;
},
{
alignment = -1;
pos = (202,442);
ref = tildecomb;
}
);
width = 1365;
},
{
associatedMasterId = "0655DA90-B56F-496E-8077-C2A69D96FC98";
background = {
anchors = (
{
name = bottom;
pos = (506,0);
},
{
name = ogonek;
pos = (845,0);
},
{
name = top;
pos = (857,1737);
},
{
name = topleft;
pos = (-249,1443);
}
);
shapes = (
{
closed = 1;
nodes = (
(932,0,l),
(966,160,l),
(204,160,l),
(308,650,l),
(1006,650,l),
(1040,810,l),
(342,810,l),
(442,1282,l),
(1204,1282,l),
(1238,1441,l),
(296,1443,l),
(-10,0,l)
);
},
{
closed = 1;
nodes = (
(567,1582,l),
(615,1613,o),
(678,1632,o),
(733,1632,cs),
(805,1632,o),
(856,1578,o),
(937,1578,cs),
(994,1578,o),
(1053,1597,o),
(1090,1628,c),
(1119,1764,l),
(1072,1737,o),
(1011,1720,o),
(959,1720,cs),
(896,1720,o),
(846,1774,o),
(763,1774,cs),
(712,1774,o),
(648,1752,o),
(596,1718,c)
);
}
);
};
layerId = "F086F5C4-0C46-42B1-ABF5-23F1A833A4F4";
name = "11 Dec 25 at 11:53";
shapes = (
{
alignment = -1;
ref = E;
},
{
alignment = -1;
pos = (343,503);
ref = tildecomb;
}
);
width = 1223;
},
{
associatedMasterId = "0CA926B8-BF71-483F-A045-F233B587689B";
background = {
anchors = (
{
name = bottom;
pos = (635,0);
},
{
name = ogonek;
pos = (1035,1);
},
{
name = top;
pos = (635,1869);
},
{
name = topleft;
pos = (-202,1443);
}
);
shapes = (
{
closed = 1;
nodes = (
(1184,0,l),
(1184,350,l),
(510,350,l),
(510,571,l),
(1108,571,l),
(1108,881,l),
(510,881,l),
(510,1092,l),
(1160,1092,l),
(1160,1442,l),
(100,1442,l),
(100,0,l)
);
},
{
closed = 1;
nodes = (
(265,1614,l),
(343,1659,o),
(430,1687,o),
(489,1687,cs),
(587,1687,o),
(672,1590,o),
(781,1590,cs),
(883,1590,o),
(975,1624,o),
(1023,1677,c),
(1023,1897,l),
(967,1857,o),
(883,1832,o),
(808,1832,cs),
(723,1832,o),
(628,1929,o),
(516,1929,cs),
(444,1929,o),
(347,1899,o),
(265,1835,c)
);
}
);
};
layerId = "EBD6473B-2EB1-4F4D-AC85-6E70FEAFD3B1";
name = "11 Dec 25 at 11:53";
shapes = (
{
ref = E;
},
{
pos = (155,442);
ref = tildecomb;
}
);
width = 1224;
},
{
associatedMasterId = "6871CC57-2503-4E31-BAA0-540E82C15514";
background = {
anchors = (
{
name = bottom;
pos = (498,0);
},
{
name = ogonek;
pos = (858,1);
},
{
name = top;
pos = (825,1627);
},
{
name = topleft;
pos = (-149,1443);
}
);
shapes = (
{
closed = 1;
nodes = (
(888,0,l),
(898,48,l),
(50,48,l),
(192,716,l),
(976,716,l),
(986,764,l),
(202,764,l),
(336,1395,l),
(1184,1395,l),
(1194,1443,l),
(296,1443,l),
(-10,0,l)
);
},
{
closed = 1;
nodes = (
(606,1587,l),
(649,1617,o),
(697,1637,o),
(727,1637,cs),
(785,1637,o),
(809,1575,o),
(874,1575,cs),
(919,1575,o),
(967,1590,o),
(998,1613,c),
(1019,1675,l),
(973,1644,o),
(924,1624,o),
(895,1624,cs),
(844,1624,o),
(815,1686,o),
(748,1686,cs),
(709,1686,o),
(662,1671,o),
(628,1649,c)
);
}
);
};
layerId = "A467045E-AA4B-4AA0-A1F8-BEEBC1FB5AF6";
name = "11 Dec 25 at 11:53";
shapes = (
{
alignment = -1;
ref = E;
},
{
alignment = -1;
pos = (354,403);
ref = tildecomb;
}
);
width = 1179;
},
{
associatedMasterId = "0A7ECE6A-DF67-46D8-8F43-1681A4AD540C";
background = {
anchors = (
{
name = bottom;
pos = (586,0);
},
{
name = ogonek;
pos = (955,0);
},
{
name = top;
pos = (586,1737);
},
{
name = topleft;
pos = (-135,1443);
}
);
shapes = (
{
closed = 1;
nodes = (
(1062,0,l),
(1062,160,l),
(280,160,l),
(280,650,l),
(998,650,l),
(998,810,l),
(280,810,l),
(280,1282,l),
(1062,1282,l),
(1062,1442,l),
(100,1442,l),
(100,0,l)
);
},
{
closed = 1;
nodes = (
(326,1582,l),
(367,1613,o),
(426,1632,o),
(481,1632,cs),
(553,1632,o),
(616,1578,o),
(697,1578,cs),
(754,1578,o),
(809,1597,o),
(839,1628,c),
(839,1764,l),
(798,1737,o),
(741,1720,o),
(689,1720,cs),
(626,1720,o),
(564,1774,o),
(481,1774,cs),
(430,1774,o),
(371,1752,o),
(326,1718,c)
);
}
);
};
layerId = "BEDC8B75-C512-4DC9-AFDA-192D5F401E2E";
name = "11 Dec 25 at 11:53";
shapes = (
{
ref = E;
},
{
pos = (216,503);
ref = tildecomb;
}
);
width = 1102;
},
{
associatedMasterId = "B1815A28-7A99-448B-912A-F8CD41C6863A";
background = {
anchors = (
{
name = bottom;
pos = (568,0);
},
{
name = ogonek;
pos = (968,1);
},
{
name = top;
pos = (568,1627);
},
{
name = topleft;
pos = (-75,1443);
}
);
shapes = (
{
closed = 1;
nodes = (
(1058,0,l),
(1058,48,l),
(150,48,l),
(150,716,l),
(994,716,l),
(994,764,l),
(150,764,l),
(150,1395,l),
(1058,1395,l),
(1058,1443,l),
(100,1443,l),
(100,0,l)
);
},
{
closed = 1;
nodes = (
(377,1587,l),
(408,1618,o),
(446,1637,o),
(477,1637,cs),
(535,1637,o),
(586,1575,o),
(651,1575,cs),
(686,1575,o),
(726,1592,o),
(754,1623,c),
(753,1675,l),
(720,1644,o),
(681,1624,o),
(651,1624,cs),
(600,1624,o),
(544,1686,o),
(477,1686,cs),
(449,1686,o),
(410,1669,o),
(377,1639,c)
);
}
);
};
layerId = "3913D30E-8327-462D-A118-5D6323DA5A07";
name = "11 Dec 25 at 11:53";
shapes = (
{
ref = E;
},
{
pos = (267,403);
ref = tildecomb;
}
);
width = 1098;
}
);
unicode = 7868;
},
{
color = 6;
glyphname = F;
kernLeft = E;
kernRight = F;
lastChange = "2025-12-11 10:41:50 +0000";
layers = (
{
anchors = (
{
name = bottom;
pos = (493,0);
},
{
name = hook;
pos = (124,0);
},
{
name = top;
pos = (493,1443);
}
);
layerId = "B1815A28-7A99-448B-912A-F8CD41C6863A";
shapes = (
{
closed = 1;
nodes = (
(150,0,l),
(150,723,l),
(966,723,l),
(966,771,l),
(150,771,l),
(150,1395,l),
(1018,1395,l),
(1018,1443,l),
(100,1443,l),
(100,0,l)
);
}
);
width = 1058;
},
{
anchors = (
{
name = bottom;
pos = (533,0);
},
{
name = hook;
pos = (189,0);
},
{
name = top;
pos = (583,1443);
}
);
layerId = "0A7ECE6A-DF67-46D8-8F43-1681A4AD540C";
shapes = (
{
closed = 1;
nodes = (
(280,0,l),
(280,651,l),
(964,651,l),
(964,811,l),
(280,811,l),
(280,1273,l),
(1026,1273,l),
(1026,1443,l),
(100,1443,l),
(100,0,l)
);
}
);
width = 1066;
},
{
anchors = (
{
name = bottom;
pos = (692,0);
},
{
name = hook;
pos = (306,0);
},
{
name = top;
pos = (692,1443);
}
);
layerId = "0CA926B8-BF71-483F-A045-F233B587689B";
shapes = (
{
closed = 1;
nodes = (
(510,0,l),
(510,513,l),
(1098,513,l),
(1098,823,l),
(510,823,l),
(510,1093,l),
(1171,1093,l),
(1171,1443,l),
(100,1443,l),
(100,0,l)
);
}
);
width = 1211;
},
{
anchors = (
{
name = bottom;
pos = (383,0);
},
{
name = hook;
pos = (14,0);
},
{
name = top;
pos = (689,1443);
}
);
layerId = "6871CC57-2503-4E31-BAA0-540E82C15514";
shapes = (
{
closed = 1;
nodes = (
(40,0,l),
(193,723,l),
(929,723,l),
(940,771,l),
(204,771,l),
(336,1395,l),
(1124,1395,l),
(1134,1443,l),
(296,1443,l),
(-10,0,l)
);
}
);
width = 1058;
},
{
anchors = (
{
name = bottom;
pos = (423,0);
},
{
name = hook;
pos = (79,0);
},
{
name = top;
pos = (779,1443);
}
);
layerId = "0655DA90-B56F-496E-8077-C2A69D96FC98";
shapes = (
{
closed = 1;
nodes = (
(170,0,l),
(308,651,l),
(972,651,l),
(1006,811,l),
(342,811,l),
(440,1273,l),
(1166,1273,l),
(1202,1443,l),
(296,1443,l),
(-10,0,l)
);
}
);
width = 1106;
},
{
anchors = (
{
name = bottom;
pos = (576,0);
},
{
name = hook;
pos = (177,0);
},
{
name = top;
pos = (882,1443);
}
);
layerId = "F66262BA-5A1D-44F4-BFD7-97C08A9A14E5";
shapes = (
{
closed = 1;
nodes = (
(394,0,l),
(503,513,l),
(1091,513,l),
(1157,823,l),
(569,823,l),
(626,1093,l),
(1287,1093,l),
(1361,1443,l),
(290,1443,l),
(-16,0,l)
);
}
);
width = 1292;
}
);
metricLeft = H;
metricRight = E;
unicode = 70;
},
{
color = 6;
glyphname = G;
kernLeft = round;
kernRight = round;
lastChange = "2025-12-11 10:41:50 +0000";
layers = (
{
anchors = (
{
name = bottom;
pos = (754,-7);
},
{
name = top;
pos = (744,1463);
}
);
layerId = "B1815A28-7A99-448B-912A-F8CD41C6863A";
shapes = (
{
closed = 1;
nodes = (
(794,684,l),
(1361,684,l),
(1375,283,o),
(1141,31,o),
(754,31,cs),
(358,31,o),
(110,292,o),
(110,708,cs),
(110,1142,o),
(358,1414,o),
(754,1414,cs),
(987,1414,o),
(1193,1303,o),
(1288,1127,c),
(1327,1152,l),
(1229,1343,o),
(1008,1463,o),
(754,1463,cs),
(328,1463,o),
(60,1172,o),
(60,708,cs),
(60,261,o),
(328,-19,o),
(754,-19,cs),
(1171,-19,o),
(1424,251,o),
(1412,681,c),
(1410,733,l),
(794,732,l)
);
}
);
width = 1472;
},
{
anchors = (
{
name = bottom;
pos = (794,-9);
},
{
name = top;
pos = (774,1463);
}
);
layerId = "0A7ECE6A-DF67-46D8-8F43-1681A4AD540C";
shapes = (
{
closed = 1;
nodes = (
(834,619,l),
(1301,619,l),
(1310,348,o),
(1097,151,o),
(794,151,cs),
(473,151,o),
(240,385,o),
(240,708,cs),
(240,1047,o),
(473,1293,o),
(794,1293,cs),
(977,1293,o),
(1172,1192,o),
(1258,1052,c),
(1397,1152,l),
(1304,1332,o),
(1051,1463,o),
(794,1463,cs),
(368,1463,o),
(60,1146,o),
(60,708,cs),
(60,286,o),
(368,-19,o),
(794,-19,cs),
(1203,-19,o),
(1492,257,o),
(1481,639,c),
(1481,790,l),
(834,790,l)
);
}
);
width = 1541;
},
{
anchors = (
{
name = bottom;
pos = (847,-25);
},
{
name = top;
pos = (827,1479);
}
);
layerId = "0CA926B8-BF71-483F-A045-F233B587689B";
shapes = (
{
closed = 1;
nodes = (
(860,541,l),
(1171,541,l),
(1176,402,o),
(1036,302,o),
(837,302,cs),
(624,302,o),
(470,476,o),
(470,717,cs),
(470,962,o),
(624,1139,o),
(837,1139,cs),
(978,1139,o),
(1118,1059,o),
(1171,948,c),
(1423,1197,l),
(1316,1361,o),
(1074,1479,o),
(847,1479,cs),
(389,1479,o),
(58,1159,o),
(60,717,cs),
(62,283,o),
(384,-34,o),
(827,-38,cs),
(1244,-39,o),
(1546,250,o),
(1546,651,cs),
(1546,839,l),
(860,839,l)
);
}
);
width = 1606;
},
{
anchors = (
{
name = bottom;
pos = (667,-7);
},
{
name = top;
pos = (939,1463);
}
);
layerId = "6871CC57-2503-4E31-BAA0-540E82C15514";
shapes = (
{
closed = 1;
nodes = (
(830,684,l),
(1397,684,l),
(1341,283,o),
(1059,31,o),
(665,31,cs),
(275,31,o),
(77,292,o),
(151,708,cs),
(227,1142,o),
(527,1414,o),
(929,1414,cs),
(1155,1414,o),
(1338,1303,o),
(1402,1127,c),
(1446,1152,l),
(1381,1343,o),
(1181,1463,o),
(928,1463,cs),
(501,1463,o),
(182,1172,o),
(101,708,cs),
(22,261,o),
(240,-19,o),
(666,-19,cs),
(1082,-19,o),
(1384,251,o),
(1448,681,c),
(1455,733,l),
(839,732,l)
);
}
);
width = 1476;
},
{
anchors = (
{
name = bottom;
pos = (686,-9);
},
{
name = top;
pos = (948,1463);
}
);
layerId = "0655DA90-B56F-496E-8077-C2A69D96FC98";
shapes = (
{
closed = 1;
nodes = (
(839,619,l),
(1286,619,l),
(1244,332,o),
(1016,151,o),
(696,151,cs),
(380,151,o),
(220,366,o),
(281,708,cs),
(344,1067,o),
(597,1293,o),
(938,1293,cs),
(1122,1293,o),
(1277,1204,o),
(1339,1062,c),
(1486,1152,l),
(1421,1343,o),
(1206,1463,o),
(928,1463,cs),
(501,1463,o),
(182,1172,o),
(101,708,cs),
(22,261,o),
(255,-19,o),
(706,-19,cs),
(1114,-19,o),
(1409,235,o),
(1470,639,c),
(1495,790,l),
(869,789,l)
);
}
);
width = 1506;
},
{
anchors = (
{
name = bottom;
pos = (750,-25);
},
{
name = top;
pos = (978,1479);
}
);
layerId = "F66262BA-5A1D-44F4-BFD7-97C08A9A14E5";
shapes = (
{
closed = 1;
nodes = (
(865,541,l),
(1166,541,l),
(1145,394,o),
(992,302,o),
(770,302,cs),
(563,302,o),
(461,462,o),
(506,717,cs),
(552,976,o),
(730,1139,o),
(968,1139,cs),
(1124,1139,o),
(1240,1077,o),
(1270,978,c),
(1544,1197,l),
(1460,1370,o),
(1242,1479,o),
(978,1479,cs),
(517,1479,o),
(177,1185,o),
(96,717,cs),
(17,257,o),
(281,-34,o),
(780,-38,cs),
(1192,-39,o),
(1497,227,o),
(1571,651,cs),
(1604,839,l),
(918,839,l)
);
}
);
width = 1610;
}
);
metricLeft = O;
metricRight = O;
unicode = 71;
},
{
color = 10;
glyphname = Gcaron;
kernLeft = round;
kernRight = round;
lastChange = "2025-12-11 10:53:19 +0000";
layers = (
{
background = {
anchors = (
{
name = bottom;
pos = (744,1636);
},
{
name = top;
pos = (744,1756);
}
);
shapes = (
{
closed = 1;
nodes = (
(794,684,l),
(1361,684,l),
(1375,283,o),
(1141,31,o),
(754,31,cs),
(358,31,o),
(110,292,o),
(110,708,cs),
(110,1142,o),
(358,1414,o),
(754,1414,cs),
(987,1414,o),
(1193,1303,o),
(1288,1127,c),
(1327,1152,l),
(1229,1343,o),
(1008,1463,o),
(754,1463,cs),
(328,1463,o),
(60,1172,o),
(60,708,cs),
(60,261,o),
(328,-19,o),
(754,-19,cs),
(1171,-19,o),
(1424,251,o),
(1412,681,c),
(1410,733,l),
(794,732,l)
);
},
{
closed = 1;
nodes = (
(766,1595,l),
(951,1804,l),
(887,1804,l),
(745,1642,l),
(743,1642,l),
(601,1804,l),
(537,1804,l),
(722,1595,l)
);
}
);
};
layerId = "B1815A28-7A99-448B-912A-F8CD41C6863A";
shapes = (
{
ref = G;
},
{
pos = (427,523);
ref = caroncomb;
}
);
width = 1472;
},
{
background = {
anchors = (
{
name = bottom;
pos = (764,1601);
},
{
name = top;
pos = (774,1746);
}
);
shapes = (
{
closed = 1;
nodes = (
(834,619,l),
(1301,619,l),
(1310,348,o),
(1097,151,o),
(794,151,cs),
(473,151,o),
(240,385,o),
(240,708,cs),
(240,1047,o),
(473,1293,o),
(794,1293,cs),
(977,1293,o),
(1172,1192,o),
(1258,1052,c),
(1397,1152,l),
(1304,1332,o),
(1051,1463,o),
(794,1463,cs),
(368,1463,o),
(60,1146,o),
(60,708,cs),
(60,286,o),
(368,-19,o),
(794,-19,cs),
(1203,-19,o),
(1492,257,o),
(1481,639,c),
(1481,790,l),
(834,790,l)
);
},
{
closed = 1;
nodes = (
(876,1570,l),
(1046,1809,l),
(852,1809,l),
(776,1674,l),
(770,1674,l),
(696,1809,l),
(502,1809,l),
(670,1570,l)
);
}
);
};
layerId = "0A7ECE6A-DF67-46D8-8F43-1681A4AD540C";
shapes = (
{
ref = G;
},
{
pos = (392,523);
ref = caroncomb;
}
);
width = 1541;
},
{
background = {
anchors = (
{
name = bottom;
pos = (832,1627);
},
{
name = top;
pos = (827,1901);
}
);
shapes = (
{
closed = 1;
nodes = (
(860,541,l),
(1171,541,l),
(1176,402,o),
(1036,302,o),
(837,302,cs),
(624,302,o),
(470,476,o),
(470,717,cs),
(470,962,o),
(624,1139,o),
(837,1139,cs),
(978,1139,o),
(1118,1059,o),
(1171,948,c),
(1423,1197,l),
(1316,1361,o),
(1074,1479,o),
(847,1479,cs),
(389,1479,o),
(58,1159,o),
(60,717,cs),
(62,283,o),
(384,-34,o),
(827,-38,cs),
(1244,-39,o),
(1546,250,o),
(1546,651,cs),
(1546,839,l),
(860,839,l)
);
},
{
closed = 1;
nodes = (
(1021,1595,l),
(1247,1944,l),
(935,1944,l),
(838,1769,l),
(828,1769,l),
(729,1944,l),
(417,1944,l),
(645,1595,l)
);
}
);
};
layerId = "0CA926B8-BF71-483F-A045-F233B587689B";
shapes = (
{
ref = G;
},
{
pos = (307,479);
ref = caroncomb;
}
);
width = 1606;
},
{
background = {
anchors = (
{
name = bottom;
pos = (1009,1636);
},
{
name = top;
pos = (1034,1756);
}
);
shapes = (
{
closed = 1;
nodes = (
(830,684,l),
(1397,684,l),
(1341,283,o),
(1059,31,o),
(665,31,cs),
(275,31,o),
(77,292,o),
(151,708,cs),
(227,1142,o),
(527,1414,o),
(929,1414,cs),
(1155,1414,o),
(1338,1303,o),
(1402,1127,c),
(1446,1152,l),
(1381,1343,o),
(1181,1463,o),
(928,1463,cs),
(501,1463,o),
(182,1172,o),
(101,708,cs),
(22,261,o),
(240,-19,o),
(666,-19,cs),
(1082,-19,o),
(1384,251,o),
(1448,681,c),
(1455,733,l),
(839,732,l)
);
},
{
closed = 1;
nodes = (
(1027,1575,l),
(1256,1784,l),
(1187,1784,l),
(1011,1622,l),
(1009,1622,l),
(901,1784,l),
(842,1784,l),
(983,1575,l)
);
}
);
};
layerId = "6871CC57-2503-4E31-BAA0-540E82C15514";
shapes = (
{
alignment = -1;
ref = G;
},
{
alignment = -1;
pos = (573,523);
ref = caroncomb;
}
);
width = 1616;
},
{
background = {
anchors = (
{
name = bottom;
pos = (961,1601);
},
{
name = top;
pos = (993,1746);
}
);
shapes = (
{
closed = 1;
nodes = (
(839,619,l),
(1286,619,l),
(1244,332,o),
(1016,151,o),
(696,151,cs),
(380,151,o),
(220,366,o),
(281,708,cs),
(344,1067,o),
(597,1293,o),
(938,1293,cs),
(1122,1293,o),
(1277,1204,o),
(1339,1062,c),
(1486,1152,l),
(1421,1343,o),
(1206,1463,o),
(928,1463,cs),
(501,1463,o),
(182,1172,o),
(101,708,cs),
(22,261,o),
(255,-19,o),
(706,-19,cs),
(1114,-19,o),
(1409,235,o),
(1470,639,c),
(1495,790,l),
(869,789,l)
);
},
{
closed = 1;
nodes = (
(1081,1570,l),
(1301,1809,l),
(1093,1809,l),
(993,1674,l),
(987,1674,l),
(937,1809,l),
(757,1809,l),
(875,1570,l)
);
}
);
};
layerId = "0655DA90-B56F-496E-8077-C2A69D96FC98";
shapes = (
{
alignment = -1;
ref = G;
},
{
alignment = -1;
pos = (489,523);
ref = caroncomb;
}
);
width = 1646;
},
{
background = {
anchors = (
{
name = bottom;
pos = (1022,1624);
},
{
name = top;
pos = (1086,1892);
}
);
shapes = (
{
closed = 1;
nodes = (
(865,541,l),
(1166,541,l),
(1145,394,o),
(992,302,o),
(770,302,cs),
(563,302,o),
(461,462,o),
(506,717,cs),
(552,976,o),
(730,1139,o),
(968,1139,cs),
(1124,1139,o),
(1240,1077,o),
(1270,978,c),
(1544,1197,l),
(1460,1370,o),
(1242,1479,o),
(978,1479,cs),
(517,1479,o),
(177,1185,o),
(96,717,cs),
(17,257,o),
(281,-34,o),
(780,-38,cs),
(1192,-39,o),
(1497,227,o),
(1571,651,cs),
(1604,839,l),
(918,839,l)
);
},
{
closed = 1;
nodes = (
(1214,1589,l),
(1524,1938,l),
(1192,1938,l),
(1068,1763,l),
(1058,1763,l),
(986,1938,l),
(694,1938,l),
(848,1589,l)
);
}
);
};
layerId = "F66262BA-5A1D-44F4-BFD7-97C08A9A14E5";
shapes = (
{
alignment = -1;
ref = G;
},
{
alignment = -1;
pos = (390,473);
ref = caroncomb;
}
);
width = 1750;
},
{
associatedMasterId = "F66262BA-5A1D-44F4-BFD7-97C08A9A14E5";
background = {
anchors = (
{
name = bottom;
pos = (1022,1624);
},
{
name = top;
pos = (1086,1892);
}
);
shapes = (
{
closed = 1;
nodes = (
(865,541,l),
(1166,541,l),
(1145,394,o),
(992,302,o),
(770,302,cs),
(563,302,o),
(461,462,o),
(506,717,cs),
(552,976,o),
(730,1139,o),
(968,1139,cs),
(1124,1139,o),
(1240,1077,o),
(1270,978,c),
(1544,1197,l),
(1460,1370,o),
(1242,1479,o),
(978,1479,cs),
(517,1479,o),
(177,1185,o),
(96,717,cs),
(17,257,o),
(281,-34,o),
(780,-38,cs),
(1192,-39,o),
(1497,227,o),
(1571,651,cs),
(1604,839,l),
(918,839,l)
);
},
{
closed = 1;
nodes = (
(1214,1589,l),
(1524,1938,l),
(1192,1938,l),
(1068,1763,l),
(1058,1763,l),
(986,1938,l),
(694,1938,l),
(848,1589,l)
);
}
);
};
layerId = "8AA4F4DC-B3D1-4302-8C28-7359484252DE";
name = "11 Dec 25 at 11:53";
shapes = (
{
alignment = -1;
ref = G;
},
{
alignment = -1;
pos = (390,473);
ref = caroncomb;
}
);
width = 1750;
},
{
associatedMasterId = "0655DA90-B56F-496E-8077-C2A69D96FC98";
background = {
anchors = (
{
name = bottom;
pos = (961,1601);
},
{
name = top;
pos = (993,1746);
}
);
shapes = (
{
closed = 1;
nodes = (
(839,619,l),
(1286,619,l),
(1244,332,o),
(1016,151,o),
(696,151,cs),
(380,151,o),
(220,366,o),
(281,708,cs),
(344,1067,o),
(597,1293,o),
(938,1293,cs),
(1122,1293,o),
(1277,1204,o),
(1339,1062,c),
(1486,1152,l),
(1421,1343,o),
(1206,1463,o),
(928,1463,cs),
(501,1463,o),
(182,1172,o),
(101,708,cs),
(22,261,o),
(255,-19,o),
(706,-19,cs),
(1114,-19,o),
(1409,235,o),
(1470,639,c),
(1495,790,l),
(869,789,l)
);
},
{
closed = 1;
nodes = (
(1081,1570,l),
(1301,1809,l),
(1093,1809,l),
(993,1674,l),
(987,1674,l),
(937,1809,l),
(757,1809,l),
(875,1570,l)
);
}
);
};
layerId = "9842D532-12CB-4344-80D0-A936D0CB7060";
name = "11 Dec 25 at 11:53";
shapes = (
{
alignment = -1;
ref = G;
},
{
alignment = -1;
pos = (489,523);
ref = caroncomb;
}
);
width = 1646;
},
{
associatedMasterId = "0CA926B8-BF71-483F-A045-F233B587689B";
background = {
anchors = (
{
name = bottom;
pos = (832,1627);
},
{
name = top;
pos = (827,1901);
}
);
shapes = (
{
closed = 1;
nodes = (
(860,541,l),
(1171,541,l),
(1176,402,o),
(1036,302,o),
(837,302,cs),
(624,302,o),
(470,476,o),
(470,717,cs),
(470,962,o),
(624,1139,o),
(837,1139,cs),
(978,1139,o),
(1118,1059,o),
(1171,948,c),
(1423,1197,l),
(1316,1361,o),
(1074,1479,o),
(847,1479,cs),
(389,1479,o),
(58,1159,o),
(60,717,cs),
(62,283,o),
(384,-34,o),
(827,-38,cs),
(1244,-39,o),
(1546,250,o),
(1546,651,cs),
(1546,839,l),
(860,839,l)
);
},
{
closed = 1;
nodes = (
(1021,1595,l),
(1247,1944,l),
(935,1944,l),
(838,1769,l),
(828,1769,l),
(729,1944,l),
(417,1944,l),
(645,1595,l)
);
}
);
};
layerId = "721E0487-DA56-435B-90E5-159045155F68";
name = "11 Dec 25 at 11:53";
shapes = (
{
ref = G;
},
{
pos = (307,479);
ref = caroncomb;
}
);
width = 1606;
},
{
associatedMasterId = "6871CC57-2503-4E31-BAA0-540E82C15514";
background = {
anchors = (
{
name = bottom;
pos = (1009,1636);
},
{
name = top;
pos = (1034,1756);
}
);
shapes = (
{
closed = 1;
nodes = (
(830,684,l),
(1397,684,l),
(1341,283,o),
(1059,31,o),
(665,31,cs),
(275,31,o),
(77,292,o),
(151,708,cs),
(227,1142,o),
(527,1414,o),
(929,1414,cs),
(1155,1414,o),
(1338,1303,o),
(1402,1127,c),
(1446,1152,l),
(1381,1343,o),
(1181,1463,o),
(928,1463,cs),
(501,1463,o),
(182,1172,o),
(101,708,cs),
(22,261,o),
(240,-19,o),
(666,-19,cs),
(1082,-19,o),
(1384,251,o),
(1448,681,c),
(1455,733,l),
(839,732,l)
);
},
{
closed = 1;
nodes = (
(1027,1575,l),
(1256,1784,l),
(1187,1784,l),
(1011,1622,l),
(1009,1622,l),
(901,1784,l),
(842,1784,l),
(983,1575,l)
);
}
);
};
layerId = "13921CBD-FC19-4C53-A313-B1455A08C142";
name = "11 Dec 25 at 11:53";
shapes = (
{
alignment = -1;
ref = G;
},
{
alignment = -1;
pos = (573,523);
ref = caroncomb;
}
);
width = 1616;
},
{
associatedMasterId = "0A7ECE6A-DF67-46D8-8F43-1681A4AD540C";
background = {
anchors = (
{
name = bottom;
pos = (764,1601);
},
{
name = top;
pos = (774,1746);
}
);
shapes = (
{
closed = 1;
nodes = (
(834,619,l),
(1301,619,l),
(1310,348,o),
(1097,151,o),
(794,151,cs),
(473,151,o),
(240,385,o),
(240,708,cs),
(240,1047,o),
(473,1293,o),
(794,1293,cs),
(977,1293,o),
(1172,1192,o),
(1258,1052,c),
(1397,1152,l),
(1304,1332,o),
(1051,1463,o),
(794,1463,cs),
(368,1463,o),
(60,1146,o),
(60,708,cs),
(60,286,o),
(368,-19,o),
(794,-19,cs),
(1203,-19,o),
(1492,257,o),
(1481,639,c),
(1481,790,l),
(834,790,l)
);
},
{
closed = 1;
nodes = (
(876,1570,l),
(1046,1809,l),
(852,1809,l),
(776,1674,l),
(770,1674,l),
(696,1809,l),
(502,1809,l),
(670,1570,l)
);
}
);
};
layerId = "83B3C8C5-B6AF-4785-9B93-BEFFE6A286DC";
name = "11 Dec 25 at 11:53";
shapes = (
{
ref = G;
},
{
pos = (392,523);
ref = caroncomb;
}
);
width = 1541;
},
{
associatedMasterId = "B1815A28-7A99-448B-912A-F8CD41C6863A";
background = {
anchors = (
{
name = bottom;
pos = (744,1636);
},
{
name = top;
pos = (744,1756);
}
);
shapes = (
{
closed = 1;
nodes = (
(794,684,l),
(1361,684,l),
(1375,283,o),
(1141,31,o),
(754,31,cs),
(358,31,o),
(110,292,o),
(110,708,cs),
(110,1142,o),
(358,1414,o),
(754,1414,cs),
(987,1414,o),
(1193,1303,o),
(1288,1127,c),
(1327,1152,l),
(1229,1343,o),
(1008,1463,o),
(754,1463,cs),
(328,1463,o),
(60,1172,o),
(60,708,cs),
(60,261,o),
(328,-19,o),
(754,-19,cs),
(1171,-19,o),
(1424,251,o),
(1412,681,c),
(1410,733,l),
(794,732,l)
);
},
{
closed = 1;
nodes = (
(766,1595,l),
(951,1804,l),
(887,1804,l),
(745,1642,l),
(743,1642,l),
(601,1804,l),
(537,1804,l),
(722,1595,l)
);
}
);
};
layerId = "B9C4B606-2A49-4155-B03D-482181B77FE0";
name = "11 Dec 25 at 11:53";
shapes = (
{
ref = G;
},
{
pos = (427,523);
ref = caroncomb;
}
);
width = 1472;
}
);
unicode = 486;
},
